<svg width="406" height="295" viewBox="0 0 406 295" fill="none" xmlns="http://www.w3.org/2000/svg">
<path d="M256.235 150.185C255.782 152.546 255.24 154.883 254.607 157.196C254.538 157.465 254.461 157.729 254.385 157.998H245.583C244.833 157.999 244.115 158.294 243.585 158.821C243.055 159.347 242.756 160.06 242.756 160.804V185.706C242.489 186.199 242.218 186.688 241.948 187.177C240.55 189.703 239.096 192.2 237.61 194.666C213.371 234.736 179.566 268.267 139.177 292.299L141.569 286.943C140.692 286.883 139.812 286.823 138.935 286.763C119.85 285.468 100.7 284.033 82.0624 279.776C62.565 275.322 43.4918 267.597 28.2113 254.789C12.9266 241.977 1.72189 223.681 0.166737 203.886C-0.351823 197.083 0.34145 190.242 2.21476 183.678C5.79742 171.042 13.6256 159.673 24.9193 152.947C42.6597 142.384 65.8005 144.536 84.5021 153.324C103.2 162.107 118.42 176.646 133.28 190.934C118.276 165.399 97.3863 143.759 72.3238 127.788C64.0191 122.512 55.2056 117.814 48.145 110.979C41.0883 104.148 35.8817 94.5712 37.13 84.866C38.5476 73.858 47.632 65.5038 56.7323 59.0617C60.3677 56.4881 64.1201 54.0467 67.9898 51.8018C78.9077 45.452 90.7186 40.6615 103.192 38.8856C120.088 36.4764 138.337 40.1324 151.291 51.1644C165.885 63.5956 171.871 83.6434 171.301 102.821C180.293 89.8489 194.159 79.9192 209.82 79.4983C226.078 79.0654 241.532 89.2596 249.675 103.234C257.814 117.205 259.276 134.33 256.235 150.185Z" fill="#B1DCF8"/>
<path d="M152.405 204.053C161.867 203.221 170.608 202.249 179.777 199.657C188.665 197.146 197.217 192.941 203.544 186.075C210.349 178.691 214.022 169.101 216.614 159.554C218.059 154.232 219.246 148.835 220.367 143.436C221.582 137.578 222.662 131.694 223.607 125.785C225.487 114.021 226.829 102.189 227.634 90.2872C227.731 88.8425 227.82 87.3973 227.901 85.9515C227.951 85.0597 226.562 85.0626 226.512 85.9515C225.852 97.6833 224.663 109.369 222.946 121.01C221.252 132.446 219.085 143.833 216.335 155.065C214.005 164.579 210.989 174.243 205.014 182.164C199.411 189.591 191.319 194.445 182.581 197.347C173.689 200.3 164.314 201.479 155.023 202.356C153.883 202.463 153.546 202.566 152.405 202.666C151.522 202.744 151.514 204.132 152.405 204.053L152.405 204.053Z" fill="white"/>
<path d="M3.00663 184.695C14.9447 185.356 26.7614 187.436 38.2068 190.89C49.657 194.337 60.6604 199.12 70.9888 205.141C80.9688 210.963 90.2336 217.93 98.5948 225.9C106.71 233.639 113.942 242.251 120.159 251.579C126.405 260.931 131.581 270.953 135.59 281.457C136.079 282.742 136.55 284.034 137.003 285.333C137.296 286.17 138.638 285.81 138.342 284.964C134.591 274.239 129.646 263.968 123.6 254.344C117.556 244.72 110.462 235.794 102.448 227.73C94.3065 219.542 85.2451 212.32 75.4442 206.207C54.8658 193.405 31.5402 185.66 7.38291 183.609C5.9257 183.487 4.46694 183.386 3.00664 183.308C2.1136 183.259 2.11634 184.646 3.00664 184.695L3.00663 184.695Z" fill="white"/>
<path d="M67.9389 53.4271C75.5719 55.8516 82.807 59.3827 89.4125 63.9072C96.1623 68.5621 102.318 74.022 107.744 80.1661C113.461 86.6294 118.544 93.6259 122.923 101.059C127.568 108.908 131.603 117.101 134.992 125.566C138.483 134.257 141.418 143.16 143.782 152.221C146.184 161.39 148.06 170.688 149.402 180.071C150.737 189.353 151.544 198.704 151.821 208.078C152.1 217.042 151.835 226.014 151.027 234.946C150.287 243.278 148.937 251.545 146.988 259.681C145.256 267.029 142.816 274.192 139.701 281.069C138.979 282.63 138.214 284.17 137.404 285.687C136.984 286.475 138.182 287.176 138.603 286.387C142.045 279.818 144.794 272.909 146.805 265.772C149.061 257.826 150.696 249.718 151.696 241.52C152.804 232.626 153.344 223.67 153.312 214.707C153.292 205.291 152.73 195.883 151.631 186.531C150.531 177.063 148.897 167.663 146.738 158.378C144.584 149.078 141.852 139.921 138.558 130.96C135.383 122.285 131.581 113.852 127.182 105.728C122.993 97.975 118.111 90.6159 112.596 83.7404C107.359 77.1939 101.379 71.2757 94.7771 66.1042C88.411 61.1324 81.3764 57.0798 73.8798 54.0654C72.0479 53.3372 70.1907 52.6786 68.3081 52.0897C67.4535 51.8212 67.0879 53.1597 67.9389 53.4271H67.9389Z" fill="white"/>
<path d="M156.29 294.685C218.886 294.685 269.631 292.816 269.631 290.509C269.631 288.203 218.886 286.334 156.29 286.334C93.6939 286.334 42.9497 288.203 42.9497 290.509C42.9497 292.816 93.6939 294.685 156.29 294.685Z" fill="#E8F6FF"/>
<path d="M170.789 281.481L175.549 282.727L182.625 264.983L175.6 263.144L170.789 281.481Z" fill="#FFB8B8"/>
<path d="M183.571 289.544L168.611 285.629L170.125 279.856L179.305 282.258C180.838 282.66 182.149 283.652 182.949 285.019C183.749 286.385 183.972 288.013 183.571 289.544Z" fill="#2F2E41"/>
<path d="M213.102 284.866L217.946 284.002L216.914 264.93L209.765 266.206L213.102 284.866Z" fill="#FFB8B8"/>
<path d="M228.092 286.828L212.868 289.544L211.817 283.669L221.159 282.002C221.932 281.865 222.724 281.88 223.49 282.048C224.256 282.216 224.982 282.533 225.626 282.981C226.27 283.429 226.819 283.999 227.242 284.659C227.665 285.319 227.954 286.056 228.092 286.828Z" fill="#2F2E41"/>
<path d="M203.564 144.609C204.758 144.899 205.729 146.114 206.312 147.521C206.85 148.999 207.214 150.535 207.397 152.097C207.855 155.006 208.296 158.155 207.348 160.849C206.237 164.007 203.277 165.661 200.71 164.883C198.142 164.106 196.1 161.189 195.403 157.831C194.767 154.437 195.177 150.932 196.576 147.775C197.306 146.117 198.311 144.587 199.647 143.839C200.302 143.443 201.083 143.31 201.833 143.466C202.583 143.622 203.245 144.056 203.688 144.68" fill="#2F2E41"/>
<path d="M210.318 197.277L219.54 279.771L211.923 282.659L197.875 227.341L178.318 277.92L169.98 278.383C169.98 278.383 181.419 199.682 189.897 197.893L210.318 197.277Z" fill="#2F2E41"/>
<path d="M202.572 155.137C208.016 155.137 212.43 150.729 212.43 145.291C212.43 139.854 208.016 135.446 202.572 135.446C197.127 135.446 192.714 139.854 192.714 145.291C192.714 150.729 197.127 155.137 202.572 155.137Z" fill="#FFB8B8"/>
<path d="M199.993 154.242C201.538 153.352 201.702 151.205 201.493 149.437C201.283 147.668 200.932 145.697 201.973 144.25C203.215 142.525 205.711 142.49 207.839 142.434C209.966 142.378 212.557 141.755 213.108 139.702C213.473 138.346 212.693 136.89 211.575 136.038C210.457 135.187 209.058 134.81 207.698 134.453C204.656 133.652 201.514 132.845 198.399 133.285C195.314 133.721 192.525 135.352 190.635 137.826C188.745 140.3 187.906 143.418 188.3 146.505C188.804 150.454 189.535 152.178 189.055 153.92C188.161 157.163 184.307 159.246 184.23 162.609C184.17 165.239 186.496 167.268 188.766 168.604C190.567 169.663 192.51 170.562 194.584 170.81C196.659 171.058 198.893 170.584 200.439 169.179C202.432 167.368 202.925 164.341 202.354 161.711C201.782 159.08 200.316 156.744 198.865 154.476" fill="#2F2E41"/>
<path d="M206.802 159.267L196.149 157.879C196.149 157.879 189.202 166.206 189.665 180.546C190.128 194.886 188.507 199.281 188.507 199.281L210.719 199.682C207.508 195.272 220.938 169.947 206.802 159.267Z" fill="#0578B9"/>
<path d="M212.525 201.686C212.303 201.688 212.081 201.707 211.862 201.743L198.234 187.254L199.623 182.628L192.907 179.621L188.739 189.798L208.346 205.375C208.241 206.223 208.396 207.083 208.792 207.84C209.188 208.597 209.805 209.216 210.562 209.615C211.319 210.013 212.179 210.172 213.028 210.071C213.878 209.969 214.676 209.612 215.317 209.046C215.958 208.48 216.411 207.733 216.616 206.903C216.822 206.074 216.769 205.202 216.466 204.403C216.163 203.604 215.624 202.916 214.92 202.431C214.216 201.945 213.381 201.686 212.525 201.686Z" fill="#FFB8B8"/>
<path d="M238.08 165.124C238.03 165.34 237.998 165.56 237.984 165.781L220.742 175.715L216.551 173.306L212.083 179.147L221.049 185.529L240.719 170.031C241.521 170.327 242.395 170.373 243.224 170.161C244.053 169.95 244.797 169.491 245.359 168.847C245.92 168.202 246.272 167.402 246.367 166.553C246.463 165.704 246.297 164.846 245.892 164.094C245.487 163.341 244.863 162.729 244.101 162.34C243.34 161.951 242.478 161.802 241.63 161.914C240.782 162.025 239.988 162.392 239.354 162.966C238.719 163.539 238.275 164.292 238.08 165.124Z" fill="#FFB8B8"/>
<path d="M46.6746 280.306C46.9508 280.316 47.2233 280.241 47.4554 280.09C47.6874 279.939 47.8677 279.72 47.9719 279.462C48.076 279.205 48.099 278.922 48.0377 278.651C47.9763 278.38 47.8337 278.134 47.629 277.947C47.5937 277.812 47.5684 277.715 47.5332 277.579C47.7909 276.902 48.2439 276.317 48.8341 275.9C49.4243 275.483 50.1249 275.253 50.8459 275.24C51.5669 275.226 52.2756 275.429 52.8811 275.823C53.4866 276.217 53.9613 276.784 54.2444 277.451C55.877 281.196 57.9808 285.068 56.9921 289.219C63.6448 274.681 61.1653 256.698 51.0138 244.417C48.2256 242.906 45.9517 240.198 45.3364 237.033C46.7136 237.488 48.4144 236.348 47.3685 234.904C46.9159 234.352 46.459 233.805 46.0064 233.253C51.1678 227.618 57.4638 236.337 51.7957 243.931C53.6956 246.28 55.3462 248.824 56.7204 251.518C56.3817 248.646 56.7259 245.734 57.7245 243.021C58.7388 240.493 60.6644 238.353 62.3572 236.159C64.4153 233.486 68.7147 234.669 69.0269 238.033C67.1103 238.687 66.8869 241.483 69.0898 241.844C68.5731 248.113 64.5592 253.908 58.9818 256.709C61.1063 262.529 61.9732 268.737 61.5246 274.921C62.4453 267.691 70.1351 265.864 75.4943 262.943C75.835 262.718 76.2333 262.599 76.6406 262.598C77.0478 262.597 77.4465 262.716 77.7879 262.939C78.1293 263.163 78.3987 263.481 78.5632 263.856C78.7277 264.231 78.7803 264.645 78.7144 265.05C77.9739 265.361 77.2659 265.745 76.6009 266.197C76.2893 266.412 76.0515 266.719 75.92 267.075C75.7886 267.432 75.7699 267.82 75.8666 268.188C75.9632 268.555 76.1705 268.883 76.46 269.128C76.7495 269.372 77.1071 269.52 77.4836 269.552C74.8325 276.337 67.8559 280.943 60.6462 280.986C59.982 284.021 59.0061 286.978 57.7341 289.81L47.0337 289.913C46.9942 289.794 46.9586 289.67 46.9229 289.551C47.9139 289.604 48.9077 289.535 49.882 289.345C47.2321 286.25 45.1905 284.677 46.6743 280.306L46.6746 280.306Z" fill="#0578B9"/>
<path d="M265.096 284.244C264.899 284.251 264.704 284.197 264.538 284.089C264.372 283.982 264.244 283.825 264.169 283.641C264.095 283.457 264.078 283.255 264.122 283.061C264.166 282.868 264.268 282.693 264.414 282.559C264.439 282.462 264.457 282.393 264.483 282.296C264.299 281.812 263.975 281.395 263.553 281.097C263.132 280.799 262.631 280.635 262.116 280.625C261.601 280.615 261.095 280.76 260.663 281.042C260.23 281.323 259.891 281.728 259.689 282.205C258.523 284.879 257.02 287.646 257.726 290.611C252.974 280.226 254.745 267.381 261.996 258.609C263.988 257.53 265.612 255.595 266.052 253.335C265.068 253.659 263.853 252.845 264.6 251.814C264.924 251.42 265.25 251.029 265.573 250.635C261.886 246.609 257.389 252.837 261.438 258.262C260.081 259.94 258.902 261.756 257.92 263.681C258.162 261.63 257.916 259.55 257.203 257.612C256.479 255.806 255.103 254.277 253.894 252.71C252.424 250.801 249.353 251.646 249.13 254.049C250.499 254.516 250.659 256.513 249.085 256.771C249.454 261.249 252.321 265.388 256.305 267.389C254.788 271.546 254.168 275.981 254.489 280.397C253.831 275.233 248.338 273.928 244.51 271.842C244.267 271.681 243.983 271.596 243.692 271.595C243.401 271.595 243.116 271.68 242.872 271.839C242.628 271.999 242.436 272.226 242.318 272.494C242.201 272.762 242.163 273.058 242.21 273.347C242.739 273.569 243.245 273.843 243.72 274.166C243.943 274.32 244.112 274.539 244.206 274.793C244.3 275.048 244.314 275.325 244.245 275.588C244.175 275.85 244.027 276.085 243.821 276.259C243.614 276.434 243.358 276.54 243.089 276.563C244.983 281.409 249.966 284.699 255.116 284.73C255.591 286.898 256.288 289.01 257.196 291.033L264.839 291.106C264.868 291.021 264.893 290.933 264.919 290.848C264.211 290.886 263.501 290.836 262.805 290.701C264.698 288.49 266.156 287.366 265.096 284.244L265.096 284.244Z" fill="#0578B9"/>
<path d="M198.813 171.218L212.389 180.882L218.461 173.279L205.264 162.703C204.696 162.248 204.041 161.914 203.339 161.72C202.638 161.527 201.904 161.479 201.183 161.578C200.462 161.678 199.769 161.924 199.146 162.301C198.523 162.677 197.984 163.177 197.562 163.769C196.739 164.922 196.408 166.355 196.643 167.752C196.877 169.149 197.658 170.396 198.813 171.218Z" fill="#0578B9"/>
<path d="M196.009 169.154L189.696 184.564L198.497 188.727L205.785 173.477C206.098 172.82 206.274 172.107 206.302 171.381C206.33 170.654 206.209 169.93 205.947 169.252C205.685 168.573 205.286 167.956 204.777 167.437C204.267 166.918 203.657 166.508 202.983 166.233C202.333 165.967 201.637 165.832 200.935 165.835C200.233 165.838 199.538 165.979 198.89 166.25C198.242 166.522 197.655 166.918 197.16 167.416C196.666 167.914 196.274 168.505 196.009 169.154Z" fill="#0578B9"/>
<circle cx="314.967" cy="255.314" r="17.8959" fill="#9BCCE8"/>
<path d="M392.864 175.871C392.802 175.871 392.763 175.87 392.749 175.869L385.354 175.87V174.776H392.776C392.948 174.782 396.454 174.881 399.685 170.948C404.499 165.087 408.452 150.577 399.947 114.738C388.511 66.5469 398.049 23.9729 402.681 7.90549C402.909 7.11057 402.95 6.27329 402.8 5.45982C402.65 4.64635 402.314 3.87897 401.818 3.21832C401.322 2.55766 400.679 2.02182 399.941 1.65315C399.203 1.28448 398.389 1.09308 397.565 1.09406H287.115C286.275 1.09519 285.448 1.29495 284.699 1.67713C283.951 2.05931 283.303 2.61315 282.808 3.29367C280.846 6.00158 278.153 11.2037 276.468 20.61L275.395 20.4167C277.116 10.806 279.897 5.45081 281.926 2.65049C282.522 1.83048 283.303 1.16313 284.204 0.702604C285.106 0.24208 286.103 0.00136255 287.115 2.97695e-06H397.565C398.559 -0.000956258 399.539 0.229912 400.428 0.674366C401.317 1.11882 402.092 1.76469 402.689 2.56093C403.287 3.35718 403.692 4.28199 403.873 5.26231C404.053 6.24262 404.004 7.25158 403.728 8.20946C399.121 24.1935 389.632 66.5466 401.008 114.485C409.633 150.828 405.486 165.652 400.49 171.688C397.194 175.67 393.562 175.871 392.864 175.871Z" fill="#DFDDDD"/>
<path d="M372.827 195.907C372.766 195.907 372.727 195.906 372.713 195.905L365.317 195.906V194.812H372.74C372.913 194.817 376.418 194.917 379.648 190.984C384.463 185.123 388.416 170.613 379.911 134.774C368.475 86.5828 378.013 44.0088 382.645 27.9414C382.873 27.1465 382.914 26.3092 382.764 25.4958C382.614 24.6823 382.278 23.9149 381.782 23.2543C381.285 22.5936 380.643 22.0578 379.905 21.6891C379.167 21.3204 378.353 21.129 377.529 21.13H267.079C266.239 21.1311 265.411 21.3309 264.663 21.7131C263.915 22.0953 263.267 22.6491 262.772 23.3296C260.81 26.0375 258.117 31.2397 256.432 40.646L255.359 40.4526C257.08 30.8419 259.861 25.4868 261.89 22.6864C262.486 21.8664 263.267 21.1991 264.168 20.7386C265.07 20.278 266.067 20.0373 267.079 20.036H377.529C378.522 20.035 379.503 20.2659 380.392 20.7103C381.281 21.1548 382.055 21.8006 382.653 22.5969C383.251 23.3931 383.656 24.3179 383.836 25.2983C384.017 26.2786 383.967 27.2875 383.692 28.2454C379.085 44.2295 369.596 86.5826 380.972 134.521C389.597 170.864 385.45 185.688 380.454 191.724C377.158 195.706 373.526 195.907 372.827 195.907Z" fill="#BFBFC0"/>
<path d="M352.798 215.943C352.736 215.943 352.698 215.942 352.684 215.941L243.992 215.942C242.946 215.943 241.915 215.687 240.99 215.195C240.065 214.704 239.274 213.993 238.686 213.124C238.099 212.254 237.732 211.254 237.619 210.21C237.506 209.165 237.649 208.109 238.037 207.133C241.98 197.243 247.29 173.514 238.544 125.714C228.217 69.2713 237.463 48.8728 241.917 42.7224C242.513 41.9024 243.294 41.2351 244.195 40.7745C245.096 40.314 246.093 40.0733 247.104 40.072H357.497C358.49 40.071 359.47 40.3019 360.359 40.7463C361.248 41.1908 362.022 41.8366 362.619 42.6329C363.217 43.4291 363.621 44.354 363.802 45.3343C363.982 46.3146 363.933 47.3235 363.658 48.2814C359.052 64.2655 349.568 106.619 360.939 154.557C369.559 190.9 365.415 205.724 360.42 211.76C357.126 215.742 353.497 215.943 352.798 215.943ZM247.104 41.166C246.265 41.1671 245.437 41.3669 244.689 41.7491C243.941 42.1313 243.294 42.6851 242.799 43.3656C238.427 49.4019 229.365 69.4903 239.616 125.516C247.971 171.179 243.919 195.325 239.049 207.54C238.72 208.346 238.597 209.221 238.69 210.087C238.783 210.952 239.089 211.781 239.581 212.498C240.069 213.222 240.726 213.815 241.495 214.225C242.264 214.634 243.121 214.848 243.992 214.848H352.711C352.882 214.856 356.387 214.953 359.616 211.02C364.427 205.159 368.379 190.649 359.878 154.81C348.448 106.619 357.981 64.0448 362.611 47.9774C362.839 47.1825 362.879 46.3453 362.73 45.5318C362.58 44.7183 362.244 43.9509 361.748 43.2903C361.252 42.6296 360.61 42.0938 359.872 41.7251C359.134 41.3564 358.321 41.165 357.497 41.166H247.104Z" fill="black"/>
<path d="M339.29 89.0488H252.315C251.154 89.0488 250.041 88.5797 249.22 87.7447C248.4 86.9097 247.938 85.7772 247.938 84.5964C247.938 83.4155 248.4 82.283 249.22 81.448C250.041 80.613 251.154 80.1439 252.315 80.1439H339.29C340.45 80.1439 341.564 80.613 342.384 81.448C343.205 82.283 343.666 83.4155 343.666 84.5964C343.666 85.7772 343.205 86.9097 342.384 87.7447C341.564 88.5797 340.45 89.0488 339.29 89.0488Z" fill="#E8F6FF"/>
<path d="M339.29 107.601H252.315C251.154 107.601 250.041 107.132 249.22 106.297C248.4 105.462 247.938 104.329 247.938 103.148C247.938 101.967 248.4 100.835 249.22 99.9998C250.041 99.1648 251.154 98.6957 252.315 98.6957H339.29C340.45 98.6957 341.564 99.1648 342.384 99.9998C343.205 100.835 343.666 101.967 343.666 103.148C343.666 104.329 343.205 105.462 342.384 106.297C341.564 107.132 340.45 107.601 339.29 107.601Z" fill="#E8F6FF"/>
<path d="M339.29 126.152H252.315C251.154 126.152 250.041 125.683 249.22 124.848C248.4 124.013 247.938 122.881 247.938 121.7C247.938 120.519 248.4 119.387 249.22 118.552C250.041 117.717 251.154 117.248 252.315 117.248H339.29C340.45 117.248 341.564 117.717 342.384 118.552C343.205 119.387 343.666 120.519 343.666 121.7C343.666 122.881 343.205 124.013 342.384 124.848C341.564 125.683 340.45 126.152 339.29 126.152Z" fill="#E8F6FF"/>
<path d="M345.26 144.704H258.959C257.808 144.704 256.703 144.235 255.889 143.4C255.075 142.565 254.617 141.433 254.617 140.252C254.617 139.071 255.075 137.938 255.889 137.103C256.703 136.268 257.808 135.799 258.959 135.799H345.26C346.412 135.799 347.516 136.268 348.331 137.103C349.145 137.938 349.603 139.071 349.603 140.252C349.603 141.433 349.145 142.565 348.331 143.4C347.516 144.235 346.412 144.704 345.26 144.704Z" fill="#E8F6FF"/>
<path d="M345.26 163.256H258.959C257.808 163.256 256.703 162.787 255.889 161.952C255.075 161.117 254.617 159.985 254.617 158.804C254.617 157.623 255.075 156.49 255.889 155.655C256.703 154.82 257.808 154.351 258.959 154.351H345.26C346.412 154.351 347.516 154.82 348.331 155.655C349.145 156.49 349.603 157.623 349.603 158.804C349.603 159.985 349.145 161.117 348.331 161.952C347.516 162.787 346.412 163.256 345.26 163.256Z" fill="#E8F6FF"/>
<path d="M293.286 70.4969H252.309C251.15 70.4969 250.038 70.0279 249.219 69.1929C248.399 68.3579 247.938 67.2254 247.938 66.0445C247.938 64.8636 248.399 63.7312 249.219 62.8962C250.038 62.0612 251.15 61.5921 252.309 61.5921H293.286C294.446 61.5921 295.557 62.0612 296.377 62.8962C297.197 63.7312 297.657 64.8636 297.657 66.0445C297.657 67.2254 297.197 68.3579 296.377 69.1929C295.557 70.0279 294.446 70.4969 293.286 70.4969Z" fill="#0578B9"/>
<path d="M288.131 193.079C289.013 189.428 293.156 188.232 296.543 188.365C298.683 188.507 300.806 188.835 302.886 189.347C305.063 189.823 307.218 190.387 309.363 190.985C313.295 192.081 317.187 193.407 321.184 194.265C324.512 194.978 328.129 195.397 331.447 194.412C334.637 193.464 337.344 191.139 338.211 187.925C339.029 184.895 337.906 181.583 334.904 180.199C332.166 178.936 328.708 179.578 327.351 182.433C325.821 185.652 327.349 189.163 329.772 191.492C331.149 192.756 332.657 193.877 334.272 194.834C335.912 195.927 337.736 196.726 339.661 197.194C342.821 197.854 346.586 196.882 348.216 193.93C348.578 193.261 348.796 192.527 348.856 191.773C348.952 190.747 347.313 190.753 347.217 191.773C346.941 194.713 343.42 196.089 340.787 195.767C339.01 195.479 337.312 194.835 335.802 193.875C334.344 193.044 332.962 192.091 331.673 191.027C329.44 189.137 327.346 186.028 328.846 183.079C330.067 180.678 333.251 180.702 335.187 182.251C337.532 184.126 337.114 187.529 335.568 189.756C333.855 192.222 330.751 193.255 327.824 193.367C324.644 193.488 321.491 192.775 318.452 191.931C314.675 190.882 310.937 189.709 307.142 188.722C304.988 188.161 302.817 187.656 300.624 187.262C298.551 186.815 296.421 186.671 294.304 186.834C290.884 187.22 287.393 189.167 286.551 192.653C286.309 193.656 287.889 194.084 288.131 193.079L288.131 193.079Z" fill="black"/>
<path d="M200.879 31.0195C194.518 31.0284 189.69 26.1428 189.696 19.8368C189.696 19.4244 190.03 19.0889 190.442 19.0889H192.41C192.78 19.0889 193.094 19.3603 193.148 19.7257C193.278 20.6019 193.533 21.4549 193.905 22.2587L193.982 22.4242C194.033 22.5356 194.044 22.6615 194.013 22.7802C193.982 22.8989 193.91 23.003 193.81 23.0744C193.2 23.5099 192.968 24.3861 193.442 25.0691C194.041 25.9291 194.787 26.6757 195.647 27.274C196.33 27.7482 197.207 27.5156 197.641 26.9064C197.713 26.8063 197.817 26.7343 197.936 26.7028C198.055 26.6713 198.181 26.6824 198.292 26.7341L198.457 26.8102C199.261 27.183 200.114 27.4381 200.99 27.5678C201.355 27.6222 201.627 27.9362 201.627 28.306V30.2738C201.627 30.3718 201.608 30.4688 201.57 30.5593C201.533 30.6498 201.478 30.7321 201.408 30.8013C201.339 30.8706 201.257 30.9255 201.166 30.9629C201.075 31.0003 200.978 31.0196 200.88 31.0195H200.879Z" fill="#0578B9"/>
<circle cx="195.661" cy="25.0542" r="16.8959" stroke="#0578B9" stroke-width="2"/>
</svg>
