<svg width="24" height="25" viewBox="0 0 24 25" fill="none" xmlns="http://www.w3.org/2000/svg">
<path d="M18.2649 4.61979C16.0571 2.41198 12.4617 2.41198 10.2563 4.61979L4.13908 10.7323C4.09924 10.7721 4.07815 10.826 4.07815 10.8823C4.07815 10.9385 4.09924 10.9924 4.13908 11.0323L5.00393 11.8971C5.04346 11.9365 5.09697 11.9586 5.15276 11.9586C5.20854 11.9586 5.26205 11.9365 5.30158 11.8971L11.4188 5.78463C12.1781 5.02526 13.1883 4.60807 14.2617 4.60807C15.3352 4.60807 16.3453 5.02526 17.1024 5.78463C17.8617 6.54401 18.2789 7.55416 18.2789 8.62526C18.2789 9.69869 17.8617 10.7065 17.1024 11.4659L10.868 17.6979L9.85783 18.7081C8.9133 19.6526 7.37815 19.6526 6.43362 18.7081C5.97658 18.251 5.7258 17.644 5.7258 16.9971C5.7258 16.3503 5.97658 15.7432 6.43362 15.2862L12.6188 9.10338C12.7758 8.94869 12.9821 8.86197 13.2024 8.86197H13.2047C13.425 8.86197 13.6289 8.94869 13.7836 9.10338C13.9406 9.26041 14.025 9.46666 14.025 9.68697C14.025 9.90494 13.9383 10.1112 13.7836 10.2659L8.72815 15.3167C8.6883 15.3565 8.66721 15.4104 8.66721 15.4667C8.66721 15.5229 8.6883 15.5768 8.72815 15.6167L9.59299 16.4815C9.63252 16.5209 9.68603 16.543 9.74182 16.543C9.7976 16.543 9.85112 16.5209 9.89065 16.4815L14.9438 11.4284C15.4102 10.962 15.6656 10.3432 15.6656 9.68463C15.6656 9.02604 15.4078 8.40494 14.9438 7.94088C13.9805 6.9776 12.4149 6.97994 11.4516 7.94088L10.8516 8.54322L5.26877 14.1237C4.88986 14.5004 4.5895 14.9486 4.38512 15.4422C4.18074 15.9359 4.0764 16.4652 4.07815 16.9995C4.07815 18.0846 4.50237 19.1042 5.26877 19.8706C6.0633 20.6628 7.10393 21.0588 8.14455 21.0588C9.18518 21.0588 10.2258 20.6628 11.018 19.8706L18.2649 12.6284C19.3313 11.5596 19.9219 10.137 19.9219 8.62526C19.9242 7.11119 19.3336 5.68854 18.2649 4.61979Z" fill="white"/>
</svg>
