<svg width="100" height="100" viewBox="0 0 100 100" fill="none" xmlns="http://www.w3.org/2000/svg">
<path d="M50 93.75C38.3968 93.75 27.2688 89.1406 19.0641 80.9359C10.8594 72.7312 6.25 61.6032 6.25 50C6.25 38.3968 10.8594 27.2688 19.0641 19.0641C27.2688 10.8594 38.3968 6.25 50 6.25C61.6032 6.25 72.7312 10.8594 80.9359 19.0641C89.1406 27.2688 93.75 38.3968 93.75 50C93.75 61.6032 89.1406 72.7312 80.9359 80.9359C72.7312 89.1406 61.6032 93.75 50 93.75ZM50 100C63.2608 100 75.9785 94.7322 85.3553 85.3553C94.7322 75.9785 100 63.2608 100 50C100 36.7392 94.7322 24.0215 85.3553 14.6447C75.9785 5.26784 63.2608 0 50 0C36.7392 0 24.0215 5.26784 14.6447 14.6447C5.26784 24.0215 0 36.7392 0 50C0 63.2608 5.26784 75.9785 14.6447 85.3553C24.0215 94.7322 36.7392 100 50 100Z" fill="#878787"/>
<path d="M26.7812 77.7063C27.4989 78.1206 28.3519 78.2329 29.1524 78.0184C29.9529 77.8039 30.6355 77.2802 31.0499 76.5625C32.9694 73.2354 35.7315 70.4727 39.0582 68.5526C42.3849 66.6325 46.1588 65.6227 49.9999 65.625C58.0937 65.625 65.1624 70.0188 68.9499 76.5625C69.3673 77.2744 70.0492 77.7923 70.847 78.0032C71.6448 78.2142 72.4937 78.101 73.2083 77.6884C73.923 77.2757 74.4454 76.5972 74.6616 75.8008C74.8778 75.0044 74.7703 74.1549 74.3624 73.4375C71.8944 69.1603 68.3433 65.6086 64.0665 63.14C59.7897 60.6713 54.9381 59.3728 49.9999 59.375C45.062 59.374 40.2109 60.6731 35.9343 63.1417C31.6577 65.6102 28.1064 69.1611 25.6374 73.4375C25.223 74.1552 25.1107 75.0082 25.3252 75.8087C25.5397 76.6093 26.0634 77.2918 26.7812 77.7063ZM43.7499 40.625C43.7499 45.8 40.9499 50 37.4999 50C34.0499 50 31.2499 45.8 31.2499 40.625C31.2499 35.45 34.0499 31.25 37.4999 31.25C40.9499 31.25 43.7499 35.45 43.7499 40.625ZM68.7499 40.625C68.7499 45.8 65.9499 50 62.4999 50C59.0499 50 56.2499 45.8 56.2499 40.625C56.2499 35.45 59.0499 31.25 62.4999 31.25C65.9499 31.25 68.7499 35.45 68.7499 40.625Z" fill="#0578B9"/>
</svg>
