<svg width="81" height="80" viewBox="0 0 81 80" fill="none" xmlns="http://www.w3.org/2000/svg">
<path d="M40.5 75C31.2174 75 22.315 71.3125 15.7513 64.7487C9.18749 58.185 5.5 49.2826 5.5 40C5.5 30.7174 9.18749 21.815 15.7513 15.2513C22.315 8.68749 31.2174 5 40.5 5C49.7826 5 58.685 8.68749 65.2487 15.2513C71.8125 21.815 75.5 30.7174 75.5 40C75.5 49.2826 71.8125 58.185 65.2487 64.7487C58.685 71.3125 49.7826 75 40.5 75ZM40.5 80C51.1087 80 61.2828 75.7857 68.7843 68.2843C76.2857 60.7828 80.5 50.6087 80.5 40C80.5 29.3913 76.2857 19.2172 68.7843 11.7157C61.2828 4.21427 51.1087 0 40.5 0C29.8913 0 19.7172 4.21427 12.2157 11.7157C4.71427 19.2172 0.5 29.3913 0.5 40C0.5 50.6087 4.71427 60.7828 12.2157 68.2843C19.7172 75.7857 29.8913 80 40.5 80Z" fill="white"/>
<path d="M31.855 25.275C32.2639 25.0644 32.723 24.9708 33.1817 25.0043C33.6405 25.0378 34.081 25.1972 34.455 25.465L51.955 37.965C52.2791 38.1963 52.5432 38.5016 52.7255 38.8555C52.9078 39.2095 53.0028 39.6019 53.0028 40C53.0028 40.3981 52.9078 40.7905 52.7255 41.1445C52.5432 41.4984 52.2791 41.8037 51.955 42.035L34.455 54.535C34.0812 54.8026 33.6408 54.9619 33.1823 54.9954C32.7238 55.0289 32.265 54.9354 31.8562 54.725C31.4474 54.5147 31.1045 54.1957 30.8653 53.8032C30.626 53.4106 30.4996 52.9597 30.5 52.5V27.5C30.4995 27.0404 30.6257 26.5896 30.8648 26.1971C31.1038 25.8045 31.4464 25.4855 31.855 25.275Z" fill="white"/>
</svg>
