<svg width="20" height="20" viewBox="0 0 20 20" fill="none" xmlns="http://www.w3.org/2000/svg">
<path d="M17.6501 12.7037L19.7938 13.7762C20.0688 13.9137 20.0688 14.3062 19.7938 14.4437L10.3338 19.175C10.2302 19.2267 10.1159 19.2536 10.0001 19.2536C9.88425 19.2536 9.77 19.2267 9.66634 19.175L0.206342 14.4437C0.144544 14.4126 0.0926083 14.3649 0.0563205 14.306C0.0200328 14.247 0.000818489 14.1792 0.000818489 14.11C0.000818489 14.0408 0.0200328 13.9729 0.0563205 13.914C0.0926083 13.8551 0.144544 13.8074 0.206342 13.7762L2.35134 12.7037L8.99759 16.0275C9.62884 16.3425 10.3726 16.3425 11.0026 16.0275L17.6488 12.7025L17.6501 12.7037ZM9.66634 0.0787364C9.77 0.0270148 9.88425 9.15527e-05 10.0001 9.15527e-05C10.1159 9.15527e-05 10.2302 0.0270148 10.3338 0.0787364L19.7938 4.80874C19.8556 4.84009 19.9075 4.88792 19.9437 4.94694C19.9799 5.00596 19.9991 5.07386 19.9991 5.14311C19.9991 5.21236 19.9799 5.28026 19.9437 5.33928C19.9075 5.3983 19.8556 5.44614 19.7938 5.47749L10.3338 10.2062C10.2302 10.258 10.1159 10.2849 10.0001 10.2849C9.88425 10.2849 9.77 10.258 9.66634 10.2062L0.206342 5.47749C0.144217 5.44646 0.0919628 5.39874 0.0554407 5.33968C0.0189186 5.28062 -0.000427246 5.21255 -0.000427246 5.14311C-0.000427246 5.07367 0.0189186 5.0056 0.0554407 4.94654C0.0919628 4.88748 0.144217 4.83976 0.206342 4.80874L9.66634 0.0787364Z" fill="#595959"/>
<path d="M17.65 8.22L19.7938 9.2925C20.0688 9.43 20.0688 9.8225 19.7938 9.96L10.3338 14.69C10.2301 14.7417 10.1158 14.7686 10 14.7686C9.88417 14.7686 9.76991 14.7417 9.66626 14.69L0.206256 9.96C0.144458 9.92885 0.0925222 9.88116 0.0562344 9.82223C0.0199467 9.7633 0.000732422 9.69546 0.000732422 9.62625C0.000732422 9.55705 0.0199467 9.4892 0.0562344 9.43027C0.0925222 9.37135 0.144458 9.32365 0.206256 9.2925L2.35126 8.22L8.99751 11.5438C9.62876 11.8588 10.3725 11.8588 11.0025 11.5438L17.65 8.22Z" fill="#595959"/>
</svg>
