<svg width="24" height="25" viewBox="0 0 24 25" fill="none" xmlns="http://www.w3.org/2000/svg">
<circle cx="12" cy="12.5" r="10" fill="#F2F2F2"/>
<path fill-rule="evenodd" clip-rule="evenodd" d="M15.663 4.27343C13.8902 3.48353 11.9096 3.28785 10.0166 3.71556C8.12351 4.14327 6.41942 5.17146 5.15845 6.64679C3.89749 8.12212 3.14721 9.96554 3.01951 11.9021C2.89181 13.8387 3.39354 15.7647 4.44987 17.3928C5.50619 19.0209 7.06051 20.264 8.88102 20.9366C10.7015 21.6091 12.6907 21.6752 14.5518 21.1249C16.413 20.5747 18.0464 19.4375 19.2084 17.8831C20.3705 16.3286 20.9989 14.4402 21 12.4994V11.58C21 11.0277 21.4477 10.58 22 10.58C22.5523 10.58 23 11.0277 23 11.58V12.5C22.9986 14.8721 22.2306 17.1807 20.8103 19.0806C19.39 20.9804 17.3936 22.3703 15.1189 23.0429C12.8442 23.7154 10.413 23.6347 8.18792 22.8126C5.96285 21.9906 4.06312 20.4713 2.77206 18.4813C1.48099 16.4914 0.86777 14.1374 1.02384 11.7705C1.17992 9.40359 2.09693 7.15053 3.63811 5.34735C5.17929 3.54417 7.26206 2.28749 9.57581 1.76473C11.8896 1.24197 14.3103 1.48114 16.477 2.44657C16.9815 2.67135 17.2082 3.26253 16.9834 3.767C16.7587 4.27147 16.1675 4.49821 15.663 4.27343Z" fill="#0578B9"/>
<path fill-rule="evenodd" clip-rule="evenodd" d="M22.7068 3.79254C23.0975 4.18287 23.0978 4.81603 22.7075 5.20675L12.7075 15.2168C12.52 15.4044 12.2656 15.5099 12.0002 15.51C11.7349 15.5101 11.4805 15.4047 11.2929 15.2171L8.29289 12.2171C7.90237 11.8266 7.90237 11.1934 8.29289 10.8029C8.68342 10.4124 9.31658 10.4124 9.70711 10.8029L11.9996 13.0954L21.2925 3.79325C21.6829 3.40253 22.316 3.40221 22.7068 3.79254Z" fill="#0578B9"/>
</svg>
