<svg width="40" height="40" viewBox="0 0 40 40" fill="none" xmlns="http://www.w3.org/2000/svg">
<path d="M19.9771 23.3224C26.3567 23.3224 31.5284 18.1507 31.5284 11.7711C31.5284 5.39148 26.3567 0.219788 19.9771 0.219788C13.5975 0.219788 8.42578 5.39148 8.42578 11.7711C8.42578 18.1507 13.5975 23.3224 19.9771 23.3224Z" fill="#0578B9"/>
<path d="M24.351 35.0159C24.1029 35.0159 23.9019 34.8153 23.9019 34.5668V24.8644C23.9019 24.6163 24.1025 24.4152 24.351 24.4152C24.5995 24.4152 24.8002 24.6158 24.8002 24.8644V34.5668C24.7997 34.8153 24.5991 35.0159 24.351 35.0159Z" fill="#0578B9"/>
<path d="M15.2353 34.0965C14.9872 34.0965 14.7861 33.8959 14.7861 33.6474V25.6362C14.7861 25.3882 14.9872 25.1871 15.2353 25.1871C15.4834 25.1871 15.6845 25.3877 15.6845 25.6362V33.6474C15.6845 33.8959 15.4834 34.0965 15.2353 34.0965Z" fill="#0578B9"/>
<path d="M29.0053 30.1652C28.7572 30.1652 28.5562 29.9645 28.5562 29.716V23.0374C28.5562 22.7893 28.7568 22.5883 29.0053 22.5883C29.2534 22.5883 29.4545 22.7889 29.4545 23.0374V29.716C29.4545 29.9645 29.2538 30.1652 29.0053 30.1652Z" fill="#0578B9"/>
<path d="M10.582 28.769C10.3339 28.769 10.1328 28.5683 10.1328 28.3198V22.8587C10.1328 22.6107 10.3339 22.4096 10.582 22.4096C10.83 22.4096 11.0311 22.6102 11.0311 22.8587V28.3198C11.0307 28.5683 10.8296 28.769 10.582 28.769Z" fill="#0578B9"/>
<path d="M24.9861 38.4823L25.473 37.9954C25.6486 37.8198 25.6486 37.5357 25.473 37.3605C25.2974 37.1853 25.0133 37.1853 24.8381 37.3605L24.3512 37.8474L23.8643 37.3605C23.6886 37.1853 23.4046 37.1853 23.2294 37.3605C23.0538 37.5361 23.0538 37.8202 23.2294 37.9954L23.7163 38.4823L23.2294 38.9692C23.0538 39.1449 23.0538 39.4289 23.2294 39.6041C23.3172 39.6919 23.4318 39.7358 23.5468 39.7358C23.6619 39.7358 23.7764 39.6919 23.8643 39.6041L24.3512 39.1172L24.8381 39.6037C24.9259 39.6915 25.0405 39.7354 25.1555 39.7354C25.2706 39.7354 25.3852 39.6915 25.473 39.6037C25.6486 39.4285 25.6486 39.144 25.473 38.9688L24.9861 38.4823Z" fill="#0578B9"/>
<path d="M11.2165 32.2577L11.7035 31.7708C11.8791 31.5952 11.8791 31.3111 11.7035 31.1359C11.5278 30.9603 11.2438 30.9603 11.0686 31.1359L10.5816 31.6229L10.0947 31.1359C9.9191 30.9603 9.63503 30.9603 9.45984 31.1359C9.28422 31.3111 9.28422 31.5956 9.45984 31.7708L9.94676 32.2577L9.45984 32.7447C9.28422 32.9203 9.28422 33.2044 9.45984 33.3795C9.54766 33.4674 9.66225 33.5113 9.77729 33.5113C9.89232 33.5113 10.0069 33.4674 10.0947 33.3795L10.5816 32.8926L11.0686 33.3795C11.1564 33.4674 11.271 33.5113 11.386 33.5113C11.501 33.5113 11.6156 33.4674 11.7035 33.3795C11.8791 33.2039 11.8791 32.9198 11.7035 32.7447L11.2165 32.2577Z" fill="#0578B9"/>
<path d="M15.2352 39.598C14.3413 39.598 13.6138 38.8705 13.6138 37.9765C13.6138 37.0826 14.3413 36.3551 15.2352 36.3551C16.1296 36.3551 16.8571 37.0826 16.8571 37.9765C16.8571 38.8705 16.1296 39.598 15.2352 39.598ZM15.2352 37.253C14.8361 37.253 14.5117 37.5774 14.5117 37.9765C14.5117 38.3756 14.8361 38.7001 15.2352 38.7001C15.6343 38.7001 15.9588 38.3756 15.9588 37.9765C15.9592 37.5774 15.6343 37.253 15.2352 37.253Z" fill="#0578B9"/>
<path d="M29.0052 35.2767C28.1108 35.2767 27.3833 34.5492 27.3833 33.6553C27.3833 32.7613 28.1108 32.0338 29.0052 32.0338C29.8991 32.0338 30.6267 32.7613 30.6267 33.6553C30.6271 34.5492 29.8996 35.2767 29.0052 35.2767ZM29.0052 32.9313C28.6061 32.9313 28.2812 33.2557 28.2812 33.6548C28.2812 34.0539 28.6061 34.3784 29.0052 34.3784C29.4043 34.3784 29.7288 34.0539 29.7288 33.6548C29.7288 33.2557 29.4043 32.9313 29.0052 32.9313Z" fill="#0578B9"/>
<path d="M35.578 3.11409H4.37738C4.12931 3.11409 3.92822 3.31518 3.92822 3.56325V21.066C3.92822 21.3141 4.12931 21.5152 4.37738 21.5152H19.5286V29.5316C18.8537 29.7279 18.3558 30.3447 18.3558 31.0824C18.3558 31.9763 19.0833 32.7038 19.9777 32.7038C20.8716 32.7038 21.5992 31.9763 21.5992 31.0824C21.5992 30.3447 21.1013 29.7279 20.4264 29.5316V21.5152H35.5776C35.8257 21.5152 36.0268 21.3145 36.0268 21.066V3.56325C36.0272 3.31518 35.8261 3.11409 35.578 3.11409ZM20.7013 31.0828C20.7013 31.4819 20.3768 31.8064 19.9777 31.8064C19.5786 31.8064 19.2541 31.4819 19.2541 31.0828C19.2541 30.6837 19.579 30.3588 19.9777 30.3588C20.3764 30.3588 20.7013 30.6837 20.7013 31.0828ZM35.1289 20.6169H4.82654V4.01197H35.1289V20.6169Z" fill="#212121"/>
<path d="M28.9552 8.43289C28.9539 8.38196 28.946 8.33103 28.9266 8.28186C28.9258 8.2801 28.9244 8.27834 28.9236 8.27659C28.9196 8.26693 28.9126 8.25903 28.9082 8.24981C28.8893 8.21117 28.8661 8.17604 28.838 8.14531C28.8265 8.13258 28.8142 8.12248 28.8011 8.1115C28.773 8.08691 28.7431 8.06672 28.7102 8.05003C28.6953 8.04257 28.6816 8.03466 28.6663 8.02896C28.6167 8.01008 28.5644 7.99734 28.5091 7.99734H25.9568C25.7088 7.99734 25.5077 8.19844 25.5077 8.44651C25.5077 8.69458 25.7083 8.89567 25.9568 8.89567H27.3653L21.4867 14.3541L17.1975 10.464C17.0237 10.3064 16.7585 10.309 16.5877 10.4701L10.9062 15.8346C10.7262 16.005 10.7178 16.289 10.8882 16.4695C10.9765 16.563 11.0954 16.6104 11.2149 16.6104C11.3255 16.6104 11.4361 16.57 11.5231 16.4879L16.9025 11.4084L21.189 15.2963C21.3616 15.4526 21.625 15.4509 21.7963 15.2928L28.0604 9.47567V10.7468C28.0604 10.9948 28.261 11.1959 28.5095 11.1959C28.7576 11.1959 28.9587 10.9948 28.9587 10.7468V8.44607C28.9583 8.44124 28.9556 8.43729 28.9552 8.43289Z" fill="#212121"/>
</svg>
