<svg width="66" height="66" viewBox="0 0 66 66" fill="none" xmlns="http://www.w3.org/2000/svg">
    <path fill-rule="evenodd" clip-rule="evenodd"
          d="M61.4375 42.299V8.7829C61.4375 5.97977 59.1629 3.70456 56.3601 3.70456H9.63891C6.8361 3.70456 4.56152 5.97977 4.56152 8.7829V47.3774C4.56152 50.1805 6.8361 52.4557 9.63891 52.4557H20.8126C21.3726 52.4557 21.8287 52.0002 21.8287 51.4396C21.8287 50.879 21.3726 50.4235 20.8126 50.4235H9.63891C7.95896 50.4235 6.59363 49.0593 6.59363 47.3774V8.7829C6.59363 7.10102 7.95896 5.73683 9.63891 5.73683H56.3601C58.0401 5.73683 59.4054 7.10102 59.4054 8.7829V42.299C59.4054 42.8597 59.8614 43.3152 60.4214 43.3152C60.9814 43.3152 61.4375 42.8597 61.4375 42.299Z"
          fill="white"/>
    <path d="M60.4209 11.83H5.57715V13.8612H60.4209V11.83Z" fill="white"/>
    <path d="M56.3584 9.79871C56.9193 9.79871 57.374 9.344 57.374 8.78308C57.374 8.22217 56.9193 7.76746 56.3584 7.76746C55.7975 7.76746 55.3428 8.22217 55.3428 8.78308C55.3428 9.344 55.7975 9.79871 56.3584 9.79871Z"
          fill="white"/>
    <path d="M52.2959 9.79871C52.8568 9.79871 53.3115 9.344 53.3115 8.78308C53.3115 8.22217 52.8568 7.76746 52.2959 7.76746C51.735 7.76746 51.2803 8.22217 51.2803 8.78308C51.2803 9.344 51.735 9.79871 52.2959 9.79871Z"
          fill="white"/>
    <path d="M48.2334 9.79871C48.7943 9.79871 49.249 9.344 49.249 8.78308C49.249 8.22217 48.7943 7.76746 48.2334 7.76746C47.6725 7.76746 47.2178 8.22217 47.2178 8.78308C47.2178 9.344 47.6725 9.79871 48.2334 9.79871Z"
          fill="white"/>
    <path fill-rule="evenodd" clip-rule="evenodd"
          d="M41.1243 28.627C41.1243 28.4212 41.0622 28.2201 40.9447 28.0504C40.9447 28.0504 38.9923 25.0331 32.9994 25.0331C27.0066 25.0331 25.0541 28.0504 25.0541 28.0504C24.9366 28.2201 24.8745 28.4212 24.8745 28.627V35.1896C24.8745 35.7504 25.3288 36.205 25.89 36.205H40.1088C40.6701 36.205 41.1243 35.7504 41.1243 35.1896V28.627ZM39.0933 29.0051V34.1739H26.9056V29.0051C27.4376 28.474 29.206 27.0647 32.9994 27.0647C36.7928 27.0647 38.562 28.474 39.0933 29.0051Z"
          fill="white"/>
    <path fill-rule="evenodd" clip-rule="evenodd"
          d="M26.384 32.3834L16.8097 27.0645L32.9998 18.0698L49.1899 27.0645L39.6156 32.3834L40.6028 34.1589L51.7747 27.9522C52.0967 27.7732 52.2967 27.4332 52.2967 27.0645C52.2967 26.6959 52.0967 26.3558 51.7747 26.1768L33.4934 16.0205C33.1867 15.8497 32.8129 15.8497 32.5062 16.0205L14.2249 26.1768C13.903 26.3558 13.7029 26.6959 13.7029 27.0645C13.7029 27.4332 13.903 27.7732 14.2249 27.9522L25.3968 34.1589L26.384 32.3834ZM32.9993 34.1739C26.8331 34.1739 21.8274 39.1799 21.8274 45.3458C21.8274 51.5118 26.8331 56.5177 32.9993 56.5177C39.1654 56.5177 44.1712 51.5118 44.1712 45.3458C44.1712 39.1799 39.1654 34.1739 32.9993 34.1739ZM32.9993 36.2052C38.044 36.2052 42.1399 40.301 42.1399 45.3458C42.1399 50.3907 38.044 54.4865 32.9993 54.4865C27.9546 54.4865 23.8586 50.3907 23.8586 45.3458C23.8586 40.301 27.9546 36.2052 32.9993 36.2052Z"
          fill="white"/>
    <path fill-rule="evenodd" clip-rule="evenodd"
          d="M38.6155 46.2069C38.9124 46.0212 39.093 45.6962 39.093 45.3458C39.093 44.9954 38.9124 44.6704 38.6155 44.4847L30.4905 39.4065C30.1774 39.2107 29.783 39.2005 29.4599 39.3797C29.1374 39.5582 28.9368 39.8984 28.9368 40.2677V50.4239C28.9368 50.7932 29.1374 51.1334 29.4599 51.3119C29.783 51.4911 30.1774 51.4809 30.4905 51.285L38.6155 46.2069ZM36.1612 45.3458L30.968 48.5915V42.1001L36.1612 45.3458Z"
          fill="white"/>
    <path d="M17.7646 37.2206V28.1927H15.7334V37.2206H17.7646Z" fill="white"/>
    <path fill-rule="evenodd" clip-rule="evenodd"
          d="M53.6967 53.0867L56.5541 55.944C56.9505 56.3404 57.5935 56.3409 57.9906 55.9438L60.8628 53.0716C61.2599 52.6745 61.2594 52.0315 60.863 51.635L58.0057 48.7777L60.1602 46.6233C60.4132 46.3702 60.5149 46.0017 60.4268 45.6544C60.338 45.3078 60.0735 45.0323 59.73 44.9315L47.5054 41.3247C47.1481 41.2198 46.7632 41.3175 46.4998 41.5808C46.2365 41.8442 46.1388 42.2291 46.2437 42.5864L49.8505 54.811C49.9513 55.1545 50.2268 55.419 50.5734 55.5078C50.9207 55.5958 51.2892 55.4942 51.5423 55.2412L53.6967 53.0867ZM54.4147 50.9324C54.0182 50.536 53.3752 50.5356 52.9788 50.932L51.3145 52.5963L48.7201 43.8011L57.5153 46.3955L55.851 48.0598C55.4546 48.4562 55.455 49.0992 55.8514 49.4957L58.7088 52.353L57.272 53.7898L54.4147 50.9324ZM19.7962 39.2521C19.7962 37.5704 18.431 36.2052 16.7494 36.2052C15.0677 36.2052 13.7025 37.5704 13.7025 39.2521V42.2989C13.7025 42.8598 14.1573 43.3146 14.7181 43.3146H18.7806C19.3414 43.3146 19.7962 42.8598 19.7962 42.2989V39.2521ZM17.765 39.2521V41.2833H15.7337V39.2521C15.7337 38.6914 16.1887 38.2364 16.7494 38.2364C17.31 38.2364 17.765 38.6914 17.765 39.2521ZM12.687 60.5797H18.7808C19.3409 60.5797 19.7964 60.1247 19.7964 59.5641C19.7964 59.0034 19.3409 58.5484 18.7808 58.5484H12.687C12.127 58.5484 11.6714 59.0034 11.6714 59.5641C11.6714 60.1247 12.127 60.5797 12.687 60.5797ZM22.8433 60.5797H53.3123C53.8723 60.5797 54.3279 60.1247 54.3279 59.5641C54.3279 59.0034 53.8723 58.5484 53.3123 58.5484H22.8433C22.2833 58.5484 21.8277 59.0034 21.8277 59.5641C21.8277 60.1247 22.2833 60.5797 22.8433 60.5797Z"
          fill="white"/>
    <path fill-rule="evenodd" clip-rule="evenodd"
          d="M20.8117 56.5178C19.1301 56.5178 17.7648 57.8831 17.7648 59.5647C17.7648 61.2463 19.1301 62.6116 20.8117 62.6116C22.4933 62.6116 23.8586 61.2463 23.8586 59.5647C23.8586 57.8831 22.4933 56.5178 20.8117 56.5178ZM20.8117 58.549C21.3722 58.549 21.8273 59.0041 21.8273 59.5647C21.8273 60.1252 21.3722 60.5803 20.8117 60.5803C20.2511 60.5803 19.7961 60.1252 19.7961 59.5647C19.7961 59.0041 20.2511 58.549 20.8117 58.549ZM13.1944 17.9244H19.2882C19.8488 17.9244 20.3039 17.4694 20.3039 16.9088C20.3039 16.3482 19.8488 15.8932 19.2882 15.8932H13.1944C12.6338 15.8932 12.1787 16.3482 12.1787 16.9088C12.1787 17.4694 12.6338 17.9244 13.1944 17.9244Z"
          fill="white"/>
    <path d="M8.62402 16.9081C8.62402 17.469 9.07873 17.9237 9.63965 17.9237C10.2006 17.9237 10.6553 17.469 10.6553 16.9081C10.6553 16.3472 10.2006 15.8925 9.63965 15.8925C9.07873 15.8925 8.62402 16.3472 8.62402 16.9081Z"
          fill="white"/>
    <path d="M44.1709 51.4393C44.1709 52.0002 44.6256 52.455 45.1865 52.455C45.7474 52.455 46.2021 52.0002 46.2021 51.4393C46.2021 50.8784 45.7474 50.4237 45.1865 50.4237C44.6256 50.4237 44.1709 50.8784 44.1709 51.4393Z"
          fill="white"/>
</svg>
