<svg width="22" height="18" viewBox="0 0 22 18" fill="none" xmlns="http://www.w3.org/2000/svg">
<path fill-rule="evenodd" clip-rule="evenodd" d="M1.26884 1.51884C1.76113 1.02656 2.42881 0.75 3.125 0.75H12.125C12.8212 0.75 13.4889 1.02656 13.9812 1.51884C14.4734 2.01113 14.75 2.67881 14.75 3.375V5.25C14.75 5.66421 14.4142 6 14 6C13.5858 6 13.25 5.66421 13.25 5.25V3.375C13.25 3.07663 13.1315 2.79048 12.9205 2.5795C12.7095 2.36853 12.4234 2.25 12.125 2.25H3.125C2.82663 2.25 2.54048 2.36853 2.3295 2.5795C2.11853 2.79048 2 3.07663 2 3.375V14.625C2 14.9234 2.11853 15.2095 2.3295 15.4205C2.54048 15.6315 2.82663 15.75 3.125 15.75H12.125C12.4234 15.75 12.7095 15.6315 12.9205 15.4205C13.1315 15.2095 13.25 14.9234 13.25 14.625V12.75C13.25 12.3358 13.5858 12 14 12C14.4142 12 14.75 12.3358 14.75 12.75V14.625C14.75 15.3212 14.4734 15.9889 13.9812 16.4812C13.4889 16.9734 12.8212 17.25 12.125 17.25H3.125C2.42881 17.25 1.76113 16.9734 1.26884 16.4812C0.776562 15.9889 0.5 15.3212 0.5 14.625V3.375C0.5 2.67881 0.776562 2.01113 1.26884 1.51884ZM16.4697 4.71967C16.7626 4.42678 17.2374 4.42678 17.5303 4.71967L21.2803 8.46967C21.5732 8.76256 21.5732 9.23744 21.2803 9.53033L17.5303 13.2803C17.2374 13.5732 16.7626 13.5732 16.4697 13.2803C16.1768 12.9874 16.1768 12.5126 16.4697 12.2197L18.9393 9.75H7.95312C7.53891 9.75 7.20312 9.41421 7.20312 9C7.20312 8.58579 7.53891 8.25 7.95312 8.25H18.9393L16.4697 5.78033C16.1768 5.48744 16.1768 5.01256 16.4697 4.71967Z" fill="#0578B9" fill-opacity="0.5"/>
</svg>
