<svg width="18" height="14" viewBox="0 0 18 14" fill="none" xmlns="http://www.w3.org/2000/svg">
<path d="M9.00007 1.16675C5.8689 1.16675 3.53008 3.20041 2.13954 4.8662C1.09607 6.11621 1.09607 7.88395 2.13954 9.13396C3.53008 10.7997 5.8689 12.8334 9.00007 12.8334C12.1312 12.8334 14.4701 10.7997 15.8606 9.13396C16.9041 7.88395 16.9041 6.11622 15.8606 4.8662C14.4701 3.20042 12.1312 1.16675 9.00007 1.16675Z" stroke="#878787" stroke-width="1.5" stroke-linecap="round" stroke-linejoin="round"/>
<path d="M9.00006 9.50008C10.3808 9.50008 11.5001 8.38079 11.5001 7.00008C11.5001 5.61937 10.3808 4.50008 9.00006 4.50008C7.61935 4.50008 6.50006 5.61937 6.50006 7.00008C6.50006 8.38079 7.61935 9.50008 9.00006 9.50008Z" stroke="#878787" stroke-width="1.5" stroke-linecap="round" stroke-linejoin="round"/>
</svg>
