<svg width="15" height="15" viewBox="0 0 15 15" fill="none" xmlns="http://www.w3.org/2000/svg">
<path d="M10.2949 9.39258L7.5 12.1875L4.70508 9.39258C2.61035 9.4834 0.9375 11.1973 0.9375 13.3125V13.5938C0.9375 14.3701 1.56738 15 2.34375 15H12.6562C13.4326 15 14.0625 14.3701 14.0625 13.5938V13.3125C14.0625 11.1973 12.3896 9.4834 10.2949 9.39258ZM1.33594 2.33789L1.52344 2.38184V4.09277C1.31836 4.21582 1.17188 4.42969 1.17188 4.6875C1.17188 4.93359 1.30664 5.13867 1.49707 5.26465L1.04004 7.08984C0.990234 7.29199 1.10156 7.5 1.2627 7.5H2.4873C2.64844 7.5 2.75977 7.29199 2.70996 7.08984L2.25293 5.26465C2.44336 5.13867 2.57812 4.93359 2.57812 4.6875C2.57812 4.42969 2.43164 4.21582 2.22656 4.09277V2.55176L4.16016 3.01758C3.9082 3.52148 3.75 4.08398 3.75 4.6875C3.75 6.75879 5.42871 8.4375 7.5 8.4375C9.57129 8.4375 11.25 6.75879 11.25 4.6875C11.25 4.08398 11.0947 3.52148 10.8398 3.01758L13.6611 2.33789C14.1943 2.20898 14.1943 1.54395 13.6611 1.41504L8.08301 0.0673828C7.70215 -0.0234375 7.30078 -0.0234375 6.91992 0.0673828L1.33594 1.41211C0.805664 1.54102 0.805664 2.20898 1.33594 2.33789Z" fill="#B0B0B0"/>
</svg>
