<svg width="25" height="24" viewBox="0 0 25 24" fill="none" xmlns="http://www.w3.org/2000/svg">
<path d="M4.1 10.8C5.42375 10.8 6.5 9.72376 6.5 8.40001C6.5 7.07626 5.42375 6.00001 4.1 6.00001C2.77625 6.00001 1.7 7.07626 1.7 8.40001C1.7 9.72376 2.77625 10.8 4.1 10.8ZM20.9 10.8C22.2238 10.8 23.3 9.72376 23.3 8.40001C23.3 7.07626 22.2238 6.00001 20.9 6.00001C19.5763 6.00001 18.5 7.07626 18.5 8.40001C18.5 9.72376 19.5763 10.8 20.9 10.8ZM22.1 12H19.7C19.04 12 18.4438 12.2663 18.0088 12.6975C19.52 13.5263 20.5925 15.0225 20.825 16.8H23.3C23.9638 16.8 24.5 16.2638 24.5 15.6V14.4C24.5 13.0763 23.4238 12 22.1 12ZM12.5 12C14.8213 12 16.7 10.1213 16.7 7.80001C16.7 5.47876 14.8213 3.60001 12.5 3.60001C10.1788 3.60001 8.3 5.47876 8.3 7.80001C8.3 10.1213 10.1788 12 12.5 12ZM15.38 13.2H15.0688C14.2888 13.575 13.4225 13.8 12.5 13.8C11.5775 13.8 10.715 13.575 9.93125 13.2H9.62C7.235 13.2 5.3 15.135 5.3 17.52V18.6C5.3 19.5938 6.10625 20.4 7.1 20.4H17.9C18.8938 20.4 19.7 19.5938 19.7 18.6V17.52C19.7 15.135 17.765 13.2 15.38 13.2ZM6.99125 12.6975C6.55625 12.2663 5.96 12 5.3 12H2.9C1.57625 12 0.5 13.0763 0.5 14.4V15.6C0.5 16.2638 1.03625 16.8 1.7 16.8H4.17125C4.4075 15.0225 5.48 13.5263 6.99125 12.6975Z" fill="#0578B9"/>
</svg>
