<svg width="25" height="25" viewBox="0 0 25 25" fill="none" xmlns="http://www.w3.org/2000/svg">
<path fill-rule="evenodd" clip-rule="evenodd" d="M4.68 3.5C4.0283 3.5 3.5 4.0283 3.5 4.68V20.32C3.5 20.9717 4.0283 21.5 4.68 21.5H20.32C20.9717 21.5 21.5 20.9717 21.5 20.32V4.68C21.5 4.0283 20.9717 3.5 20.32 3.5H4.68ZM1.5 4.68C1.5 2.92373 2.92373 1.5 4.68 1.5H20.32C22.0763 1.5 23.5 2.92373 23.5 4.68V20.32C23.5 22.0763 22.0763 23.5 20.32 23.5H4.68C2.92373 23.5 1.5 22.0763 1.5 20.32V4.68Z" fill="#212121"/>
<path fill-rule="evenodd" clip-rule="evenodd" d="M7.5 1.5C8.05228 1.5 8.5 1.94772 8.5 2.5V22.5C8.5 23.0523 8.05228 23.5 7.5 23.5C6.94772 23.5 6.5 23.0523 6.5 22.5V2.5C6.5 1.94772 6.94772 1.5 7.5 1.5Z" fill="#212121"/>
<path fill-rule="evenodd" clip-rule="evenodd" d="M17.5 1.5C18.0523 1.5 18.5 1.94772 18.5 2.5V22.5C18.5 23.0523 18.0523 23.5 17.5 23.5C16.9477 23.5 16.5 23.0523 16.5 22.5V2.5C16.5 1.94772 16.9477 1.5 17.5 1.5Z" fill="#212121"/>
<path fill-rule="evenodd" clip-rule="evenodd" d="M1.5 12.5C1.5 11.9477 1.94772 11.5 2.5 11.5H22.5C23.0523 11.5 23.5 11.9477 23.5 12.5C23.5 13.0523 23.0523 13.5 22.5 13.5H2.5C1.94772 13.5 1.5 13.0523 1.5 12.5Z" fill="#212121"/>
<path fill-rule="evenodd" clip-rule="evenodd" d="M1.5 7.5C1.5 6.94772 1.94772 6.5 2.5 6.5H7.5C8.05228 6.5 8.5 6.94772 8.5 7.5C8.5 8.05228 8.05228 8.5 7.5 8.5H2.5C1.94772 8.5 1.5 8.05228 1.5 7.5Z" fill="#212121"/>
<path fill-rule="evenodd" clip-rule="evenodd" d="M1.5 17.5C1.5 16.9477 1.94772 16.5 2.5 16.5H7.5C8.05228 16.5 8.5 16.9477 8.5 17.5C8.5 18.0523 8.05228 18.5 7.5 18.5H2.5C1.94772 18.5 1.5 18.0523 1.5 17.5Z" fill="#212121"/>
<path fill-rule="evenodd" clip-rule="evenodd" d="M16.5 17.5C16.5 16.9477 16.9477 16.5 17.5 16.5H22.5C23.0523 16.5 23.5 16.9477 23.5 17.5C23.5 18.0523 23.0523 18.5 22.5 18.5H17.5C16.9477 18.5 16.5 18.0523 16.5 17.5Z" fill="#212121"/>
<path fill-rule="evenodd" clip-rule="evenodd" d="M16.5 7.5C16.5 6.94772 16.9477 6.5 17.5 6.5H22.5C23.0523 6.5 23.5 6.94772 23.5 7.5C23.5 8.05228 23.0523 8.5 22.5 8.5H17.5C16.9477 8.5 16.5 8.05228 16.5 7.5Z" fill="#212121"/>
</svg>
