<svg width="20" height="20" viewBox="0 0 20 20" fill="none" xmlns="http://www.w3.org/2000/svg">
<path d="M3.33331 4.16667L8.33331 4.16667M8.33331 4.16667C8.33331 5.08714 9.0795 5.83333 9.99998 5.83333C10.9205 5.83333 11.6666 5.08714 11.6666 4.16667M8.33331 4.16667C8.33331 3.24619 9.07951 2.5 9.99998 2.5C10.9205 2.5 11.6666 3.24619 11.6666 4.16667M11.6666 4.16667L16.6666 4.16667M3.33331 10L13.3333 10M13.3333 10C13.3333 10.9205 14.0795 11.6667 15 11.6667C15.9205 11.6667 16.6666 10.9205 16.6666 10C16.6666 9.07953 15.9205 8.33333 15 8.33333C14.0795 8.33333 13.3333 9.07953 13.3333 10ZM6.66665 15.8333L16.6666 15.8333M6.66665 15.8333C6.66665 14.9129 5.92045 14.1667 4.99998 14.1667C4.07951 14.1667 3.33331 14.9129 3.33331 15.8333C3.33331 16.7538 4.07951 17.5 4.99998 17.5C5.92045 17.5 6.66665 16.7538 6.66665 15.8333Z" stroke="#878787" stroke-width="1.5" stroke-linecap="round"/>
</svg>
