<svg width="39" height="46" viewBox="0 0 39 46" fill="none" xmlns="http://www.w3.org/2000/svg">
<path d="M36.4533 0.015564H14.7332C13.3286 0.015564 12.186 1.15816 12.186 2.56278V21.708C12.186 21.99 12.4149 22.2188 12.6968 22.2188C12.9788 22.2188 13.2076 21.99 13.2076 21.708V5.87513H37.9784V38.5532H14.9483C14.6663 38.5532 14.4375 38.7815 14.4375 39.064C14.4375 39.3465 14.6663 39.5748 14.9483 39.5748H37.9784V43.4377C37.9784 44.2785 37.294 44.9629 36.4533 44.9629H14.7332C13.892 44.9629 13.2076 44.2785 13.2076 43.4377C13.2076 43.1553 12.9788 42.927 12.6968 42.927C12.4149 42.927 12.186 43.1553 12.186 43.4377C12.186 44.8418 13.3286 45.9844 14.7332 45.9844H36.4528C37.8569 45.9844 38.9995 44.8418 38.9995 43.4377V2.56278C39 1.15816 37.8574 0.015564 36.4533 0.015564ZM13.2081 4.85359V2.56278C13.2081 1.72154 13.892 1.03711 14.7332 1.03711H36.4528C37.2935 1.03711 37.9779 1.72154 37.9779 2.56278V4.85359H13.2081Z" fill="#212121"/>
<path d="M25.594 44.1099C24.5939 44.1099 23.7803 43.2963 23.7803 42.2962C23.7803 41.2961 24.5939 40.4819 25.594 40.4819C26.5941 40.4819 27.4078 41.2961 27.4078 42.2962C27.4078 43.2963 26.5941 44.1099 25.594 44.1099ZM25.594 41.504C25.1573 41.504 24.8018 41.8595 24.8018 42.2967C24.8018 42.7339 25.1568 43.0889 25.594 43.0889C26.0312 43.0889 26.3862 42.7339 26.3862 42.2967C26.3862 41.8595 26.0312 41.504 25.594 41.504Z" fill="#212121"/>
<path d="M28.702 3.42137H22.4849C22.2024 3.42137 21.9741 3.19254 21.9741 2.9106C21.9741 2.62865 22.2024 2.39983 22.4849 2.39983H28.702C28.9845 2.39983 29.2128 2.62865 29.2128 2.9106C29.2128 3.19254 28.9845 3.42137 28.702 3.42137Z" fill="#212121"/>
<path d="M25.5936 19.9356C28.9787 19.9356 31.7229 17.1915 31.7229 13.8064C31.7229 10.4213 28.9787 7.67712 25.5936 7.67712C22.2085 7.67712 19.4644 10.4213 19.4644 13.8064C19.4644 17.1915 22.2085 19.9356 25.5936 19.9356Z" fill="#0578B9"/>
<path d="M28.7409 20.686C28.5443 20.4893 28.3108 20.3524 28.0626 20.2748C28.296 19.6843 28.1745 18.9851 27.6974 18.508C27.5018 18.3124 27.2684 18.1765 27.0206 18.1004C27.0896 17.9181 27.1248 17.723 27.1248 17.5222C27.1248 17.0835 26.9537 16.6708 26.6437 16.3613C26.4884 16.206 26.3096 16.0885 26.1186 16.0083L27.0043 15.1226C27.6448 14.4821 27.6448 13.4407 27.0043 12.8002C26.3832 12.1791 25.3014 12.1801 24.6813 12.8002L19.2339 18.2465C19.1108 17.5238 18.5102 16.9471 17.7466 16.8853C17.3104 16.8495 16.8844 16.9869 16.5498 17.2714C16.2158 17.5559 16.0125 17.9528 15.9773 18.39L15.5686 23.463C15.5564 23.5733 15.5472 23.6852 15.5411 23.8216C15.4818 25.2287 16.0191 26.6058 17.0141 27.6008C17.9979 28.5845 19.2896 29.0764 20.5813 29.0764C21.8731 29.0764 23.1653 28.5845 24.1486 27.6008L28.7409 23.0084C29.3814 22.3684 29.3814 21.3265 28.7409 20.686ZM28.0187 22.2867L23.4263 26.879C21.8578 28.4471 19.3054 28.4476 17.7358 26.879C16.9426 26.0858 16.5141 24.9872 16.5621 23.8451C16.5662 23.7557 16.5733 23.6668 16.5851 23.5616L16.9952 18.4728C17.0085 18.3073 17.0856 18.1571 17.2118 18.0499C17.3252 17.9538 17.4661 17.9017 17.6132 17.9017C17.6301 17.9017 17.647 17.9022 17.6643 17.9038C18.0055 17.9314 18.2604 18.2312 18.2333 18.5724L18.1588 19.4933C18.1414 19.7068 18.2589 19.9086 18.4535 19.9979C18.6476 20.0873 18.8774 20.047 19.0286 19.8953L25.403 13.5209C25.6451 13.2793 26.0384 13.2787 26.2815 13.5209C26.3985 13.6378 26.4634 13.7941 26.4634 13.9601C26.4634 14.1256 26.3985 14.2819 26.2815 14.3989L24.3212 16.3602L21.9145 18.7665C21.7147 18.9662 21.7147 19.289 21.9145 19.4887C22.0141 19.5883 22.1448 19.6384 22.2756 19.6384C22.4063 19.6384 22.5371 19.5883 22.6367 19.4887L25.0434 17.0825C25.2779 16.848 25.687 16.848 25.9215 17.0825C26.0389 17.1994 26.1033 17.3557 26.1033 17.5212C26.1033 17.6872 26.0389 17.843 25.9215 17.9605L25.3749 18.5075L23.5152 20.3672C23.3155 20.5669 23.3155 20.8897 23.5152 21.0895C23.6148 21.1891 23.7456 21.2391 23.8763 21.2391C24.0071 21.2391 24.1378 21.1891 24.2374 21.0895L26.0972 19.2297C26.3393 18.9881 26.7326 18.9871 26.9757 19.2297C27.2178 19.4718 27.2178 19.8662 26.9757 20.1083L26.4118 20.6722C26.4097 20.6737 26.4082 20.6757 26.4062 20.6778L26.3576 20.7263L25.116 21.968C24.9163 22.1677 24.9163 22.491 25.116 22.6902C25.2156 22.7898 25.3463 22.8399 25.4771 22.8399C25.6078 22.8399 25.7386 22.7898 25.8382 22.6902L27.0799 21.4485L27.131 21.3975C27.2459 21.2841 27.3996 21.2223 27.5656 21.2223C27.5677 21.2223 27.5692 21.2223 27.5707 21.2223C27.7413 21.2233 27.9007 21.2897 28.0197 21.4082C28.2608 21.6503 28.2608 22.0441 28.0187 22.2867Z" fill="#212121"/>
<path d="M4.24723 40.9375C4.11647 40.9375 3.98571 40.8875 3.88611 40.7879C3.6864 40.5881 3.6864 40.2653 3.88611 40.0656L14.5883 29.3634C14.788 29.1637 15.1108 29.1637 15.3105 29.3634C15.5102 29.5631 15.5102 29.886 15.3105 30.0857L4.60834 40.7879C4.50823 40.888 4.37798 40.9375 4.24723 40.9375Z" fill="#0578B9"/>
<path d="M13.3151 38.1155C13.1843 38.1155 13.0536 38.0655 12.954 37.9659C12.7543 37.7662 12.7543 37.4434 12.954 37.2436L19.0025 31.1946C19.2022 30.9949 19.5251 30.9949 19.7248 31.1946C19.9245 31.3943 19.9245 31.7171 19.7248 31.9168L13.6762 37.9659C13.5766 38.0655 13.4459 38.1155 13.3151 38.1155Z" fill="#0578B9"/>
<path d="M2.84602 42.4841H2.18916V41.8273C2.18916 41.5448 1.96034 41.3165 1.67839 41.3165C1.39645 41.3165 1.16762 41.5448 1.16762 41.8273V42.4841H0.510771C0.228825 42.4841 0 42.7124 0 42.9949C0 43.2773 0.228825 43.5057 0.510771 43.5057H1.16762V44.1625C1.16762 44.445 1.39645 44.6733 1.67839 44.6733C1.96034 44.6733 2.18916 44.445 2.18916 44.1625V43.5057H2.84602C3.12796 43.5057 3.35679 43.2773 3.35679 42.9949C3.35679 42.7124 3.12796 42.4841 2.84602 42.4841Z" fill="#0578B9"/>
<path d="M10.573 42.0607C10.1337 42.0607 9.69496 41.8937 9.3604 41.5596C8.6918 40.8905 8.6918 39.8036 9.35989 39.1345C10.0086 38.4858 11.1374 38.4868 11.7855 39.1345C12.4541 39.8031 12.4541 40.891 11.7855 41.5596C11.451 41.8937 11.0117 42.0607 10.573 42.0607ZM10.573 39.6534C10.3881 39.6534 10.2134 39.7255 10.0826 39.8562C9.81243 40.1264 9.81243 40.5667 10.0826 40.8369C10.3528 41.1076 10.7926 41.1066 11.0628 40.8369C11.333 40.5667 11.333 40.1264 11.0628 39.8562C10.932 39.7255 10.7579 39.6534 10.573 39.6534Z" fill="#0578B9"/>
<path d="M9.3693 29.8032C9.23854 29.8032 9.10778 29.7531 9.00818 29.6535C8.80847 29.4538 8.80847 29.131 9.00818 28.9313L12.8742 25.0653C13.0739 24.8656 13.3967 24.8656 13.5964 25.0653C13.7962 25.265 13.7962 25.5878 13.5964 25.7875L9.73041 29.6535C9.6303 29.7536 9.49954 29.8032 9.3693 29.8032Z" fill="#0578B9"/>
<path d="M6.48752 33.8883C6.04826 33.8883 5.60951 33.7213 5.27495 33.3873C4.60635 32.7182 4.60635 31.6312 5.27444 30.9621C5.92312 30.3135 7.05192 30.3145 7.70009 30.9621C8.36869 31.6307 8.36869 32.7187 7.70009 33.3873C7.36554 33.7213 6.92627 33.8883 6.48752 33.8883ZM6.48752 31.4811C6.30262 31.4811 6.12794 31.5531 5.99718 31.6839C5.72698 31.9541 5.72698 32.3943 5.99718 32.6645C6.26687 32.9347 6.70715 32.9347 6.97735 32.6645C7.24755 32.3943 7.24755 31.9541 6.97735 31.6839C6.84659 31.5531 6.67242 31.4811 6.48752 31.4811Z" fill="#0578B9"/>
</svg>
