<svg width="25" height="25" viewBox="0 0 25 25" fill="none" xmlns="http://www.w3.org/2000/svg">
<path fill-rule="evenodd" clip-rule="evenodd" d="M12.1667 2.80966C12.3787 2.99937 12.5 3.27044 12.5 3.555V12.5H21.445C21.7295 12.5 22.0006 12.6212 22.1903 12.8333C22.38 13.0454 22.4704 13.3283 22.4388 13.6111C22.2296 15.4827 21.4962 17.2573 20.323 18.7305C19.1498 20.2037 17.5844 21.3158 15.8071 21.9386C14.0297 22.5614 12.1126 22.6697 10.2764 22.2511C8.44025 21.8324 6.75959 20.9038 5.42788 19.5721C4.09618 18.2404 3.16756 16.5597 2.7489 14.7235C2.33024 12.8873 2.43856 10.9703 3.06138 9.19291C3.6842 7.41557 4.79622 5.8502 6.26945 4.67698C7.74268 3.50375 9.51725 2.77035 11.3889 2.56118C11.6717 2.52958 11.9546 2.61995 12.1667 2.80966ZM10.5 4.75323C9.41567 5.03311 8.39793 5.53865 7.51537 6.24149C6.33676 7.18009 5.44712 8.43241 4.94885 9.85433C4.45057 11.2762 4.36392 12.8099 4.69886 14.2789C5.03379 15.7479 5.77671 17.0925 6.8421 18.1579C7.90749 19.2233 9.25205 19.9662 10.721 20.3011C12.19 20.636 13.7237 20.5494 15.1456 20.0511C16.5676 19.5529 17.8199 18.6632 18.7585 17.4846C19.4613 16.602 19.9669 15.5843 20.2467 14.5H11.5C10.9477 14.5 10.5 14.0523 10.5 13.5V4.75323Z" fill="#878787"/>
<path fill-rule="evenodd" clip-rule="evenodd" d="M14.9231 3.19519C15.1884 3.0078 15.5282 2.96095 15.8344 3.06955C17.2399 3.56822 18.5166 4.37423 19.5712 5.42883C20.6258 6.48343 21.4318 7.76005 21.9304 9.16564C22.0391 9.47177 21.9922 9.81158 21.8048 10.0769C21.6174 10.3422 21.3128 10.5 20.988 10.5H15.5C14.9477 10.5 14.5 10.0523 14.5 9.5V4.012C14.5 3.68717 14.6578 3.38258 14.9231 3.19519ZM16.5 5.57066V8.5H19.4293C19.0803 7.8964 18.653 7.33905 18.157 6.84305C17.661 6.34704 17.1036 5.91973 16.5 5.57066Z" fill="#878787"/>
</svg>
