<svg width="21" height="20" viewBox="0 0 21 20" fill="none" xmlns="http://www.w3.org/2000/svg">
<path fill-rule="evenodd" clip-rule="evenodd" d="M4.66699 5.00001C4.44598 5.00001 4.23402 5.08781 4.07774 5.24409C3.92146 5.40037 3.83366 5.61233 3.83366 5.83334V14.1667C3.83366 14.3877 3.92146 14.5997 4.07774 14.7559C4.23402 14.9122 4.44598 15 4.66699 15H16.3337C16.5547 15 16.7666 14.9122 16.9229 14.7559C17.0792 14.5997 17.167 14.3877 17.167 14.1667V7.50001C17.167 7.279 17.0792 7.06704 16.9229 6.91075C16.7666 6.75447 16.5547 6.66668 16.3337 6.66668H11.3337C11.1126 6.66668 10.9007 6.57888 10.7444 6.4226L9.32182 5.00001H4.66699ZM2.89923 4.06558C3.36807 3.59674 4.00395 3.33334 4.66699 3.33334H9.66699C9.88801 3.33334 10.1 3.42114 10.2562 3.57742L11.6788 5.00001H16.3337C16.9967 5.00001 17.6326 5.2634 18.1014 5.73224C18.5703 6.20108 18.8337 6.83697 18.8337 7.50001V14.1667C18.8337 14.8297 18.5703 15.4656 18.1014 15.9344C17.6326 16.4033 16.9967 16.6667 16.3337 16.6667H4.66699C4.00395 16.6667 3.36807 16.4033 2.89923 15.9344C2.43038 15.4656 2.16699 14.8297 2.16699 14.1667V5.83334C2.16699 5.1703 2.43038 4.53442 2.89923 4.06558ZM10.5003 7.50001C10.9606 7.50001 11.3337 7.87311 11.3337 8.33334V11.3215L12.4111 10.2441C12.7365 9.91865 13.2641 9.91865 13.5896 10.2441C13.915 10.5695 13.915 11.0972 13.5896 11.4226L11.0896 13.9226C10.7641 14.248 10.2365 14.248 9.91107 13.9226L7.41107 11.4226C7.08563 11.0972 7.08563 10.5695 7.41107 10.2441C7.73651 9.91865 8.26414 9.91865 8.58958 10.2441L9.66699 11.3215V8.33334C9.66699 7.87311 10.0401 7.50001 10.5003 7.50001Z" fill="white"/>
</svg>
