<svg width="24" height="25" viewBox="0 0 24 25" fill="none" xmlns="http://www.w3.org/2000/svg">
<path fill-rule="evenodd" clip-rule="evenodd" d="M5 5.5C4.73478 5.5 4.48043 5.60536 4.29289 5.79289C4.10536 5.98043 4 6.23478 4 6.5V18.5C4 18.7652 4.10536 19.0196 4.29289 19.2071C4.48043 19.3946 4.73478 19.5 5 19.5H16.1716C16.0591 19.1818 16 18.8439 16 18.5V6.5C16 6.23478 15.8946 5.98043 15.7071 5.79289C15.5196 5.60536 15.2652 5.5 15 5.5H5ZM5 3.5C4.20435 3.5 3.44129 3.81607 2.87868 4.37868C2.31607 4.94129 2 5.70435 2 6.5V18.5C2 19.2956 2.31607 20.0587 2.87868 20.6213C3.44129 21.1839 4.20435 21.5 5 21.5H19C19.7957 21.5 20.5587 21.1839 21.1213 20.6213C21.6839 20.0587 22 19.2957 22 18.5V9.5C22 8.70435 21.6839 7.94129 21.1213 7.37868C20.5587 6.81607 19.7957 6.5 19 6.5H18C18 5.70435 17.6839 4.94129 17.1213 4.37868C16.5587 3.81607 15.7956 3.5 15 3.5H5ZM18 8.5V18.5C18 18.7652 18.1054 19.0196 18.2929 19.2071C18.4804 19.3946 18.7348 19.5 19 19.5C19.2652 19.5 19.5196 19.3946 19.7071 19.2071C19.8946 19.0196 20 18.7652 20 18.5V9.5C20 9.23478 19.8946 8.98043 19.7071 8.79289C19.5196 8.60536 19.2652 8.5 19 8.5H18ZM6 8.5C6 7.94772 6.44772 7.5 7 7.5H13C13.5523 7.5 14 7.94772 14 8.5V12.5C14 13.0523 13.5523 13.5 13 13.5H7C6.44772 13.5 6 13.0523 6 12.5V8.5ZM8 9.5V11.5H12V9.5H8ZM6 16.5C6 15.9477 6.44772 15.5 7 15.5H13C13.5523 15.5 14 15.9477 14 16.5C14 17.0523 13.5523 17.5 13 17.5H7C6.44772 17.5 6 17.0523 6 16.5Z" fill="#0578B9"/>
</svg>
