<svg width="15" height="16" viewBox="0 0 15 16" fill="none" xmlns="http://www.w3.org/2000/svg">
<path d="M6.78673 2.69525C7.01173 2.0045 7.98898 2.0045 8.21323 2.69525L9.01573 5.16425C9.06476 5.31461 9.16007 5.44563 9.28803 5.53858C9.416 5.63152 9.57007 5.68163 9.72823 5.68175H12.3247C13.0515 5.68175 13.353 6.61175 12.7657 7.03925L10.6657 8.56475C10.5375 8.65777 10.442 8.789 10.393 8.93964C10.3439 9.09027 10.3439 9.25256 10.3927 9.40325L11.1952 11.8722C11.4202 12.563 10.629 13.1382 10.0402 12.7107L7.94023 11.1852C7.81214 11.0922 7.6579 11.0422 7.49961 11.0422C7.34131 11.0422 7.18708 11.0922 7.05898 11.1852L4.95898 12.7107C4.37098 13.1382 3.58048 12.563 3.80473 11.8722L4.60723 9.40325C4.65611 9.25256 4.65602 9.09027 4.60698 8.93964C4.55794 8.789 4.46246 8.65777 4.33423 8.56475L2.23498 7.04C1.64773 6.6125 1.94998 5.6825 2.67598 5.6825H5.27173C5.43002 5.68254 5.58426 5.6325 5.71237 5.53955C5.84049 5.44659 5.93591 5.31549 5.98498 5.165L6.78748 2.696L6.78673 2.69525Z" fill="#FF9500"/>
</svg>
