<svg width="24" height="23" viewBox="0 0 24 23" fill="none" xmlns="http://www.w3.org/2000/svg">
<path d="M17.9939 0H6.00611C2.69427 0 0 2.69506 0 6.00788V16.9782C0 20.291 2.69427 22.986 6.00611 22.986H17.9939C21.3057 22.986 24 20.291 24 16.9782V6.00788C24 2.69506 21.3057 0 17.9939 0ZM2.11877 6.00788C2.11877 3.86405 3.86291 2.11937 6.00611 2.11937H17.9939C20.1371 2.11937 21.8812 3.86405 21.8812 6.00788V16.9782C21.8812 19.122 20.1371 20.8667 17.9939 20.8667H6.00611C3.86291 20.8667 2.11877 19.122 2.11877 16.9782V6.00788Z" fill="white"/>
<path d="M12.0003 17.08C15.08 17.08 17.587 14.5737 17.587 11.4917C17.587 8.40968 15.0814 5.90335 12.0003 5.90335C8.91918 5.90335 6.41357 8.40968 6.41357 11.4917C6.41357 14.5737 8.91918 17.08 12.0003 17.08ZM12.0003 8.02408C13.9127 8.02408 15.4682 9.58003 15.4682 11.493C15.4682 13.4061 13.9127 14.962 12.0003 14.962C10.0878 14.962 8.53234 13.4061 8.53234 11.493C8.53234 9.58003 10.0878 8.02408 12.0003 8.02408Z" fill="white"/>
<path d="M18.1039 6.80602C18.9332 6.80602 19.6092 6.13126 19.6092 5.30034C19.6092 4.46942 18.9346 3.79462 18.1039 3.79462C17.2732 3.79462 16.5986 4.46942 16.5986 5.30034C16.5986 6.13126 17.2732 6.80602 18.1039 6.80602Z" fill="white"/>
</svg>
