<svg width="24" height="24" viewBox="0 0 24 24" fill="none" xmlns="http://www.w3.org/2000/svg">
<path fill-rule="evenodd" clip-rule="evenodd" d="M12 2.25C9.1005 2.25 6.75 4.6005 6.75 7.5C6.75 10.3995 9.1005 12.75 12 12.75C14.8995 12.75 17.25 10.3995 17.25 7.5C17.25 4.6005 14.8995 2.25 12 2.25ZM5.25 7.5C5.25 3.77208 8.27208 0.75 12 0.75C15.7279 0.75 18.75 3.77208 18.75 7.5C18.75 11.2279 15.7279 14.25 12 14.25C8.27208 14.25 5.25 11.2279 5.25 7.5Z" fill="#878787"/>
<path fill-rule="evenodd" clip-rule="evenodd" d="M7.09781 10.0234C7.4599 10.2246 7.59037 10.6812 7.38922 11.0433L3.52804 17.9938L6.31777 17.9803C6.31772 17.9803 6.31783 17.9803 6.31777 17.9803C6.57862 17.979 6.83546 18.0458 7.06263 18.174C7.28985 18.3022 7.47969 18.4875 7.6134 18.7116L8.91011 20.8853L12.4577 13.0809C12.6291 12.7038 13.0737 12.5371 13.4508 12.7085C13.8279 12.8799 13.9946 13.3245 13.8232 13.7016L9.68277 22.8104C9.56729 23.0644 9.32032 23.2333 9.04169 23.2488C8.76306 23.2643 8.49886 23.1239 8.3559 22.8842L6.32535 19.4803L2.25363 19.5C1.98725 19.5013 1.74017 19.3612 1.60452 19.1319C1.46888 18.9027 1.46501 18.6186 1.59437 18.3858L6.07797 10.3148C6.27912 9.95275 6.73572 9.82228 7.09781 10.0234Z" fill="#878787"/>
<path fill-rule="evenodd" clip-rule="evenodd" d="M16.8182 9.84388C17.1805 9.64322 17.637 9.77431 17.8376 10.1367L22.4061 18.3867C22.535 18.6196 22.5309 18.9033 22.3952 19.1324C22.2594 19.3614 22.0125 19.5013 21.7463 19.5L17.6748 19.4803L15.644 22.8842C15.5011 23.1239 15.2369 23.2644 14.9582 23.2488C14.6796 23.2333 14.4326 23.0644 14.3172 22.8104L11.3172 16.2104C11.1458 15.8333 11.3125 15.3886 11.6896 15.2172C12.0667 15.0458 12.5113 15.2126 12.6827 15.5896L15.0898 20.8853L16.3865 18.7117C16.5202 18.4877 16.7101 18.3022 16.9373 18.174C17.1645 18.0458 17.4212 17.979 17.682 17.9803C17.6819 17.9803 17.6821 17.9803 17.682 17.9803L20.4739 17.9938L16.5254 10.8633C16.3247 10.501 16.4558 10.0445 16.8182 9.84388Z" fill="#878787"/>
<path fill-rule="evenodd" clip-rule="evenodd" d="M12 5.25C10.7574 5.25 9.75 6.25736 9.75 7.5C9.75 8.74264 10.7574 9.75 12 9.75C13.2426 9.75 14.25 8.74264 14.25 7.5C14.25 6.25736 13.2426 5.25 12 5.25ZM8.25 7.5C8.25 5.42893 9.92893 3.75 12 3.75C14.0711 3.75 15.75 5.42893 15.75 7.5C15.75 9.57107 14.0711 11.25 12 11.25C9.92893 11.25 8.25 9.57107 8.25 7.5Z" fill="#878787"/>
</svg>
