<svg width="24" height="24" viewBox="0 0 24 24" fill="none" xmlns="http://www.w3.org/2000/svg">
<path fill-rule="evenodd" clip-rule="evenodd" d="M2.25 12C2.25 6.61701 6.61704 2.24998 12 2.24998C17.383 2.24998 21.75 6.61701 21.75 12C21.75 17.3829 17.383 21.75 12 21.75C6.61704 21.75 2.25 17.3829 2.25 12ZM12 3.74998C7.44546 3.74998 3.75 7.44544 3.75 12C3.75 16.5545 7.44546 20.25 12 20.25C16.5545 20.25 20.25 16.5545 20.25 12C20.25 7.44544 16.5545 3.74998 12 3.74998Z" fill="#2947A9"/>
<path fill-rule="evenodd" clip-rule="evenodd" d="M12 5.24998C12.4142 5.24998 12.75 5.58576 12.75 5.99998V12H16.5C16.9142 12 17.25 12.3358 17.25 12.75C17.25 13.1642 16.9142 13.5 16.5 13.5H12C11.5858 13.5 11.25 13.1642 11.25 12.75V5.99998C11.25 5.58576 11.5858 5.24998 12 5.24998Z" fill="#2947A9"/>
</svg>
