<svg width="66" height="66" viewBox="0 0 66 66" fill="none" xmlns="http://www.w3.org/2000/svg">
<g clip-path="url(#clip0_234_2757)">
<path d="M6.08295 31.6925L6.09276 36.2628C6.09334 36.5321 6.2009 36.7902 6.39177 36.9803C6.58265 37.1703 6.8412 37.2768 7.11056 37.2762C7.37992 37.2756 7.63802 37.1681 7.82808 36.9772C8.01814 36.7863 8.12458 36.5278 8.12401 36.2584L8.11419 31.6881C8.11362 31.4187 8.00606 31.1606 7.81518 30.9706C7.62431 30.7805 7.36575 30.6741 7.09639 30.6746C6.82703 30.6752 6.56893 30.7828 6.37888 30.9737C6.18882 31.1645 6.08237 31.4231 6.08295 31.6925ZM21.3173 31.6597L21.3271 36.23C21.3277 36.4994 21.4352 36.7575 21.6261 36.9476C21.817 37.1376 22.0755 37.2441 22.3449 37.2435C22.6143 37.2429 22.8724 37.1354 23.0624 36.9445C23.2525 36.7536 23.3589 36.495 23.3583 36.2257L23.3485 31.6554C23.348 31.386 23.2404 31.1279 23.0495 30.9379C22.8587 30.7478 22.6001 30.6414 22.3307 30.6419C22.0614 30.6425 21.8033 30.7501 21.6132 30.941C21.4232 31.1318 21.3167 31.3904 21.3173 31.6597ZM45.5464 32.2882C45.8082 32.2337 46.0379 32.0782 46.1857 31.8554C46.3336 31.6327 46.3876 31.3606 46.3361 31.0982C45.9734 29.3672 46.3085 27.5629 47.2685 26.0775C48.2285 24.5922 49.7359 23.5456 51.4632 23.1653C51.727 23.1102 51.9582 22.9525 52.1058 22.727C52.2534 22.5014 52.3054 22.2265 52.2503 21.9627C52.1951 21.6988 52.0375 21.4676 51.8119 21.32C51.5864 21.1724 51.3114 21.1205 51.0476 21.1756C48.7966 21.6671 46.8305 23.0271 45.5766 24.9601C44.3228 26.893 43.8824 29.2428 44.3514 31.4986C44.3994 31.7313 44.5274 31.9399 44.7133 32.088C44.8992 32.236 45.1312 32.3142 45.3687 32.3089C45.4285 32.3072 45.4879 32.3003 45.5464 32.2882ZM16.7292 23.377C16.9985 23.3764 17.2566 23.2689 17.4467 23.078C17.6368 22.8871 17.7432 22.6286 17.7426 22.3592L17.7355 19.0584C17.735 18.7891 17.6274 18.531 17.4365 18.3409C17.2457 18.1508 16.9871 18.0444 16.7177 18.045C16.4484 18.0456 16.1903 18.1531 16.0002 18.344C15.8102 18.5349 15.7037 18.7934 15.7043 19.0628L15.7114 22.3636C15.712 22.6329 15.8195 22.891 16.0104 23.0811C16.2013 23.2711 16.4598 23.3776 16.7292 23.377ZM1.5251 37.5015C1.79446 37.5009 2.05255 37.3933 2.24261 37.2025C2.43267 37.0116 2.53912 36.753 2.53854 36.4837L2.53145 33.1829C2.53087 32.9135 2.42332 32.6554 2.23244 32.4654C2.04157 32.2753 1.78301 32.1689 1.51365 32.1694C1.24429 32.17 0.986191 32.2776 0.796134 32.4685C0.606076 32.6593 0.499628 32.9179 0.500206 33.1873L0.507292 36.488C0.507871 36.7574 0.615428 37.0155 0.806303 37.2055C0.997178 37.3956 1.25574 37.502 1.5251 37.5015Z" fill="white"/>
<path d="M1.5507 49.4757L50.6764 49.3702L50.2556 47.3399L2.56196 47.4422L2.55445 43.9434L51.1012 43.8392C51.162 43.7883 51.2178 43.7425 51.2837 43.6966C49.6061 43.4659 47.9793 42.9544 46.4715 42.1835L46.2783 42.0773L45.8258 41.8345C45.5987 41.703 45.3784 41.568 45.1648 41.4297C44.941 41.2829 44.7173 41.1412 44.5037 40.9791L39.2547 41.8537L35.8879 41.8609L30.7765 12.1648L39.8835 10.6624L41.5496 20.3632C42.0795 19.6855 42.6678 19.0555 43.3077 18.4805L41.9089 10.328C41.8134 9.8003 41.513 9.3318 41.0733 9.02472C40.6298 8.7152 40.0824 8.59236 39.5491 8.68268L30.4371 10.1851C29.9405 10.263 29.4915 10.525 29.1793 10.919L29.1617 2.69754C29.1605 2.15882 28.9454 1.64262 28.5636 1.26251C28.1819 0.882396 27.6648 0.669499 27.1261 0.670656L17.8687 0.69053C17.3299 0.691686 16.8137 0.906801 16.4336 1.28855C16.0535 1.6703 15.8406 2.18742 15.8418 2.72614L15.8703 16.0359C16.5274 15.8046 17.2435 15.803 17.9016 16.0315L17.873 2.72177L27.1101 2.70194L27.1943 41.905L17.9572 41.9248L17.9208 24.9741C17.2637 25.2054 16.5476 25.2069 15.8895 24.9784L15.9259 41.9038L13.8946 41.9081L13.8288 11.2516C13.8277 10.7129 13.6126 10.1967 13.2308 9.81654C12.8491 9.43643 12.3319 9.22353 11.7932 9.22469L2.47996 9.24468C1.94124 9.24584 1.42504 9.46095 1.04493 9.8427C0.664814 10.2245 0.451917 10.7416 0.453074 11.2803L0.49329 30.0134C0.819026 29.8962 1.16235 29.8354 1.50853 29.8335C1.85471 29.8339 2.1983 29.8933 2.52454 30.0091L2.48432 11.2759L11.7366 11.2561L11.8025 41.9126L2.55013 41.9325L2.54374 38.9567C2.21747 39.0719 1.87449 39.1327 1.5285 39.1366C1.18251 39.1342 0.839266 39.0749 0.512499 38.9611L0.518899 41.9419C0.522628 42.1386 0.555564 42.3336 0.616626 42.5206C0.55377 42.6523 0.521116 42.7964 0.521046 42.9423L0.532897 48.4622C0.533475 48.7316 0.641032 48.9897 0.831907 49.1797C1.02278 49.3698 1.28134 49.4763 1.5507 49.4757ZM29.1881 15.017L33.8161 41.8705L29.2458 41.8803L29.1881 15.017Z" fill="white"/>
<path d="M9.6158 21.5286L9.60054 14.4193C9.59996 14.1499 9.4924 13.8918 9.30152 13.7017C9.11065 13.5117 8.85209 13.4052 8.58273 13.4058L5.53586 13.4123C5.2665 13.4129 5.00841 13.5205 4.81835 13.7114C4.62829 13.9022 4.52184 14.1608 4.52242 14.4302L4.53768 21.5395C4.53826 21.8089 4.64582 22.067 4.8367 22.257C5.02757 22.4471 5.28613 22.5535 5.55549 22.553L8.60236 22.5464C8.87172 22.5458 9.12981 22.4383 9.31987 22.2474C9.50993 22.0565 9.61638 21.798 9.6158 21.5286ZM7.58237 20.5173L6.56675 20.5195L6.55585 15.4414L7.57147 15.4392L7.58237 20.5173ZM24.8316 12.8631L24.8163 5.75375C24.8158 5.48439 24.7082 5.2263 24.5173 5.03624C24.3265 4.84618 24.0679 4.73973 23.7985 4.74031L20.7517 4.74685C20.4823 4.74743 20.2242 4.85499 20.0342 5.04586C19.8441 5.23674 19.7377 5.4953 19.7382 5.76466L19.7535 12.874C19.7541 13.1434 19.8616 13.4015 20.0525 13.5915C20.2434 13.7816 20.5019 13.888 20.7713 13.8875L23.8182 13.8809C24.0875 13.8803 24.3456 13.7728 24.5357 13.5819C24.7257 13.391 24.8322 13.1325 24.8316 12.8631ZM22.7982 11.8518L21.7826 11.854L21.7717 6.77592L22.7873 6.77374L22.7982 11.8518ZM36.6142 13.4827L33.6091 13.997C33.344 14.0423 33.1077 14.1909 32.9521 14.4102C32.7964 14.6295 32.7341 14.9016 32.7788 15.1668L33.8588 21.5223C33.8993 21.7616 34.0242 21.9784 34.2109 22.1336C34.3975 22.2888 34.6336 22.372 34.8763 22.3681L35.0438 22.3678L38.049 21.8535C38.314 21.8082 38.5503 21.6596 38.706 21.4403C38.8616 21.221 38.9239 20.9489 38.8793 20.6838L37.784 14.313C37.7386 14.048 37.59 13.8117 37.3707 13.6561C37.1515 13.5004 36.8794 13.4381 36.6142 13.4827ZM35.6942 20.1828L34.9536 15.8273L35.9689 15.6576L36.7095 20.013L35.6942 20.1828ZM40.3562 32.1267C40.9856 34.9701 42.5569 37.5176 44.8154 39.3562C47.0738 41.1948 49.8871 42.2167 52.7991 42.2563C53.3082 42.2551 53.8169 42.2235 54.3223 42.1616L54.9176 45.0701L52.4253 45.5832C52.1635 45.6388 51.9341 45.7956 51.7872 46.0194C51.6403 46.2432 51.5877 46.5159 51.6408 46.7783L54.7202 61.9045C54.8385 62.5025 55.0752 63.0707 55.4164 63.5758C55.7576 64.0809 56.1964 64.5126 56.7069 64.8456C57.4471 65.3343 58.315 65.5938 59.2019 65.5918C59.5142 65.5908 59.8255 65.5578 60.131 65.4933C61.3209 65.2334 62.3604 64.5146 63.0237 63.4931C63.687 62.4715 63.9206 61.2296 63.674 60.0369L60.5946 44.9106C60.5677 44.7794 60.5152 44.6549 60.4399 44.5441C60.3647 44.4333 60.2683 44.3385 60.1563 44.2651C60.0443 44.1917 59.9188 44.1412 59.7872 44.1165C59.6556 44.0917 59.5204 44.0933 59.3894 44.121L56.9073 44.6342L56.2917 41.7409C56.3482 42.0201 60.2689 39.818 60.5832 39.5735C62.3704 38.1832 63.7532 36.3401 64.5883 34.2354C65.4234 32.1307 65.6804 29.841 65.3326 27.6035C64.9849 25.366 64.045 23.2623 62.6105 21.5104C61.176 19.7584 59.299 18.422 57.1741 17.6397C55.0492 16.8574 52.7537 16.6577 50.5256 17.0612C48.2976 17.4647 46.2179 18.4567 44.5023 19.9346C42.7868 21.4124 41.4976 23.3221 40.7686 25.4659C40.0396 27.6097 39.8972 29.9094 40.3562 32.1267ZM58.7847 46.3059L61.674 60.4322C61.8114 61.098 61.6813 61.7912 61.312 62.362C60.9427 62.9329 60.3638 63.3356 59.7001 63.4833C59.3772 63.5519 59.0439 63.5558 58.7194 63.4946C58.395 63.4334 58.086 63.3084 57.8103 63.1268C57.5252 62.9394 57.2802 62.6972 57.0896 62.4143C56.8989 62.1313 56.7664 61.8134 56.6997 61.4788L53.8104 47.3424L58.7847 46.3059ZM47.3794 20.3557C49.4551 19.127 51.886 18.6383 54.2753 18.9694C56.6646 19.3005 58.871 20.4318 60.5344 22.1786C62.1978 23.9254 63.2199 26.1846 63.4337 28.5872C63.6475 30.9898 63.0405 33.3939 61.7117 35.407C60.1418 37.7519 57.715 39.3877 54.9524 39.9633C52.1898 40.5389 49.3117 40.0084 46.9359 38.4856C40.4877 34.2338 40.7303 24.2599 47.3794 20.3557Z" fill="white"/>
</g>
<defs>
<clipPath id="clip0_234_2757">
<rect width="65" height="65" fill="white" transform="translate(0.43042 0.727966) rotate(-0.123003)"/>
</clipPath>
</defs>
</svg>
