<svg width="20" height="21" viewBox="0 0 20 21" fill="none" xmlns="http://www.w3.org/2000/svg">
<path d="M12.5 1.33334H7.5V3.00001H12.5V1.33334ZM9.16667 12.1667H10.8333V7.16668H9.16667V12.1667ZM15.8583 6.65834L17.0417 5.47501C16.6833 5.05001 16.2917 4.65001 15.8667 4.30001L14.6833 5.48334C13.3561 4.41528 11.7036 3.83309 10 3.83334C5.85833 3.83334 2.5 7.19168 2.5 11.3333C2.5 15.475 5.85 18.8333 10 18.8333C11.4119 18.8341 12.7953 18.436 13.9909 17.685C15.1865 16.9339 16.1457 15.8604 16.7579 14.5881C17.3701 13.3158 17.6104 11.8965 17.4513 10.4936C17.2921 9.09063 16.74 7.76119 15.8583 6.65834ZM10 17.1667C6.775 17.1667 4.16667 14.5583 4.16667 11.3333C4.16667 8.10834 6.775 5.50001 10 5.50001C13.225 5.50001 15.8333 8.10834 15.8333 11.3333C15.8333 14.5583 13.225 17.1667 10 17.1667Z" fill="#0578B9"/>
</svg>
