<svg width="24" height="20" viewBox="0 0 24 20" fill="none" xmlns="http://www.w3.org/2000/svg">
<path d="M0.630534 9.05642C0.685649 9.02885 0.74079 9.00266 0.794528 8.97785C1.72874 8.54506 2.67535 8.13984 3.62058 7.73462C3.67156 7.73462 3.75697 7.67535 3.80519 7.65605C3.87822 7.62435 3.95126 7.59404 4.02429 7.56234C4.16484 7.50169 4.30539 7.44242 4.44455 7.38177C4.72564 7.26186 5.00534 7.14197 5.28642 7.02205C5.84723 6.78223 6.40802 6.54241 6.96882 6.30121C8.09042 5.82156 9.21343 5.34051 10.335 4.86087C11.4566 4.38122 12.5796 3.9002 13.7012 3.42055C14.8228 2.94091 15.9458 2.45989 17.0674 1.98024C18.189 1.5006 19.312 1.01958 20.4336 0.539933C20.683 0.432426 20.953 0.27254 21.2203 0.225678C21.4449 0.185708 21.664 0.108535 21.89 0.0658083C22.3185 -0.0155111 22.7911 -0.0485955 23.2017 0.129204C23.3437 0.191228 23.4746 0.278043 23.5834 0.386928C24.1043 0.90241 24.0312 1.7487 23.921 2.47368C23.1535 7.52651 22.386 12.5807 21.6172 17.6335C21.5124 18.3268 21.3691 19.0876 20.8221 19.5259C20.3591 19.8967 19.7005 19.938 19.1287 19.7809C18.5569 19.6224 18.0526 19.2902 17.5579 18.9636C15.5062 17.6046 13.4532 16.2456 11.4015 14.8866C10.9137 14.5641 10.3709 14.1423 10.3764 13.5565C10.3791 13.2037 10.5899 12.8894 10.8049 12.6096C12.5879 10.2831 15.1604 8.68427 17.0743 6.46522C17.3443 6.15235 17.5565 5.58725 17.1859 5.4067C16.9654 5.29919 16.7119 5.44526 16.5107 5.58447C13.9809 7.34179 11.4525 9.1005 8.92269 10.8578C8.09734 11.4312 7.23202 12.0211 6.23719 12.1617C5.34707 12.2885 4.45145 12.0404 3.59027 11.7868C2.86826 11.5745 2.1476 11.3568 1.42972 11.1321C1.04804 11.0136 0.653962 10.8854 0.359093 10.6166C0.0642253 10.3479 -0.105232 9.8958 0.0725155 9.53744C0.184124 9.31278 0.400457 9.17082 0.627809 9.05504L0.630534 9.05642Z" fill="white"/>
</svg>
