<svg width="24" height="25" viewBox="0 0 24 25" fill="none" xmlns="http://www.w3.org/2000/svg">
<path d="M5.48171 2.49232C5.39316 2.37841 5.28138 2.28465 5.15381 2.21726C5.02624 2.14987 4.88579 2.11039 4.74178 2.10145C4.59778 2.09252 4.45353 2.11432 4.3186 2.16542C4.18367 2.21651 4.06116 2.29574 3.95921 2.39782L2.40821 3.95032C1.68371 4.67632 1.41671 5.70382 1.73321 6.60532C3.04682 10.3367 5.18365 13.7245 7.98521 16.5173C10.7781 19.3188 14.1658 21.4557 17.8972 22.7693C18.7987 23.0858 19.8262 22.8188 20.5522 22.0943L22.1032 20.5433C22.2053 20.4414 22.2845 20.3189 22.3356 20.1839C22.3867 20.049 22.4085 19.9047 22.3996 19.7607C22.3906 19.6167 22.3512 19.4763 22.2838 19.3487C22.2164 19.2211 22.1226 19.1094 22.0087 19.0208L18.5482 16.3298C18.4265 16.2354 18.285 16.1699 18.1343 16.1382C17.9836 16.1065 17.8276 16.1095 17.6782 16.1468L14.3932 16.9673C13.9547 17.0769 13.4953 17.0711 13.0598 16.9504C12.6242 16.8298 12.2273 16.5984 11.9077 16.2788L8.22371 12.5933C7.90386 12.2739 7.6722 11.877 7.55128 11.4415C7.43036 11.0059 7.4243 10.5464 7.53371 10.1078L8.35571 6.82282C8.39307 6.67341 8.39601 6.51747 8.36431 6.36676C8.33261 6.21606 8.26709 6.07451 8.17271 5.95282L5.48171 2.49232ZM2.82671 1.26682C3.0892 1.00424 3.40455 0.800516 3.75182 0.669162C4.09908 0.537809 4.47032 0.481836 4.84088 0.50496C5.21144 0.528084 5.57284 0.629777 5.90108 0.803286C6.22932 0.976794 6.5169 1.21815 6.74471 1.51132L9.43571 4.97032C9.92921 5.60482 10.1032 6.43132 9.90821 7.21132L9.08771 10.4963C9.04529 10.6665 9.04758 10.8447 9.09436 11.0137C9.14114 11.1827 9.23083 11.3367 9.35471 11.4608L13.0402 15.1463C13.1645 15.2704 13.3187 15.3603 13.488 15.4071C13.6573 15.4539 13.8358 15.456 14.0062 15.4133L17.2897 14.5928C17.6746 14.4966 18.0764 14.4891 18.4646 14.571C18.8529 14.6528 19.2174 14.8219 19.5307 15.0653L22.9897 17.7563C24.2332 18.7238 24.3472 20.5613 23.2342 21.6728L21.6832 23.2238C20.5732 24.3338 18.9142 24.8213 17.3677 24.2768C13.4095 22.8841 9.81561 20.6181 6.85271 17.6468C3.88164 14.6843 1.61562 11.091 0.222706 7.13332C-0.320294 5.58832 0.167206 3.92782 1.27721 2.81782L2.82821 1.26682H2.82671ZM18.9697 1.46932C19.0394 1.39948 19.1221 1.34406 19.2133 1.30625C19.3044 1.26844 19.4021 1.24898 19.5007 1.24898C19.5994 1.24898 19.697 1.26844 19.7882 1.30625C19.8793 1.34406 19.962 1.39948 20.0317 1.46932L23.7817 5.21932C23.8516 5.28899 23.907 5.37175 23.9448 5.46287C23.9826 5.55399 24.002 5.65167 24.002 5.75032C24.002 5.84897 23.9826 5.94665 23.9448 6.03777C23.907 6.12889 23.8516 6.21165 23.7817 6.28132L20.0317 10.0313C19.8909 10.1722 19.6999 10.2513 19.5007 10.2513C19.3015 10.2513 19.1105 10.1722 18.9697 10.0313C18.8289 9.89049 18.7498 9.69948 18.7498 9.50032C18.7498 9.30116 18.8289 9.11015 18.9697 8.96932L21.4402 6.50032H14.2507C14.0518 6.50032 13.861 6.4213 13.7204 6.28065C13.5797 6.14 13.5007 5.94923 13.5007 5.75032C13.5007 5.55141 13.5797 5.36064 13.7204 5.21999C13.861 5.07934 14.0518 5.00032 14.2507 5.00032H21.4402L18.9697 2.53132C18.8999 2.46165 18.8444 2.37889 18.8066 2.28777C18.7688 2.19665 18.7494 2.09897 18.7494 2.00032C18.7494 1.90167 18.7688 1.80399 18.8066 1.71287C18.8444 1.62175 18.8999 1.53899 18.9697 1.46932Z" fill="#2947A9"/>
</svg>
