<svg width="24" height="17" viewBox="0 0 24 17" fill="none" xmlns="http://www.w3.org/2000/svg">
<path d="M23.7955 4.48713C23.648 3.06385 23.3308 1.49047 22.1633 0.66363C21.2591 0.0224322 20.0705 -0.00127227 18.9609 4.43582e-05C16.6154 0.00136099 14.2685 0.00399939 11.923 0.00531602C9.66693 0.00794927 7.41089 0.00927233 5.15485 0.0119056C4.21242 0.0132222 3.29632 -0.0605026 2.42102 0.347652C1.66944 0.697876 1.08108 1.36407 0.727014 2.10533C0.236056 3.13625 0.133395 4.30412 0.074164 5.44432C-0.0350841 7.52064 -0.0232379 9.60224 0.10707 11.6772C0.203156 13.1914 0.446656 14.8648 1.61679 15.8299C2.65399 16.6844 4.11765 16.7265 5.46285 16.7278C9.73273 16.7318 14.0039 16.7357 18.2752 16.7384C18.8227 16.7397 19.394 16.7291 19.952 16.6686C21.0498 16.5501 22.0962 16.2354 22.8017 15.4217C23.5138 14.6015 23.6967 13.4599 23.8047 12.379C24.0679 9.75627 24.0653 7.10853 23.7955 4.48713ZM9.4537 12.0459V4.69253L15.8191 8.36855L9.4537 12.0459Z" fill="white"/>
</svg>
