<svg width="20" height="20" viewBox="0 0 20 20" fill="none" xmlns="http://www.w3.org/2000/svg">
<path fill-rule="evenodd" clip-rule="evenodd" d="M6.2395 17.9167H13.196C15.7513 17.9167 17.7117 16.9937 17.1548 13.279L16.5065 8.24466C16.1632 6.39111 14.9809 5.68173 13.9435 5.68173H5.46147C4.40884 5.68173 3.29519 6.44451 2.89854 8.24466L2.25018 13.279C1.77726 16.5742 3.6842 17.9167 6.2395 17.9167Z" stroke="#0578B9" stroke-width="1.5" stroke-linecap="round" stroke-linejoin="round"/>
<path d="M6.12398 5.49865C6.12398 3.51026 7.73589 1.89835 9.72428 1.89835V1.89835C10.6818 1.89429 11.6015 2.27182 12.28 2.94744C12.9584 3.62307 13.3399 4.54114 13.3398 5.49865V5.49865" stroke="#0578B9" stroke-width="1.5" stroke-linecap="round" stroke-linejoin="round"/>
<path d="M7.25579 9.25151H7.29393" stroke="#0578B9" stroke-width="1.5" stroke-linecap="round" stroke-linejoin="round"/>
<path d="M12.1113 9.25151H12.1494" stroke="#0578B9" stroke-width="1.5" stroke-linecap="round" stroke-linejoin="round"/>
</svg>
