<svg width="35" height="34" viewBox="0 0 35 34" fill="none" xmlns="http://www.w3.org/2000/svg">
<path d="M13.251 24.7917V26.2083C13.251 28.5555 15.1538 29.75 17.501 29.75C19.8482 29.75 21.751 28.5555 21.751 26.2083V24.7917M9.00094 12.0417C9.00094 7.34724 12.8065 4.95833 17.5009 4.95833C22.1954 4.95833 26.0009 7.34724 26.0009 12.0417C26.0009 14.7888 26.9998 17.8689 28.029 20.3135C28.8836 22.3432 27.4491 24.7917 25.2467 24.7917H9.75515C7.55282 24.7917 6.1183 22.3432 6.97288 20.3135C8.00211 17.8689 9.00094 14.7888 9.00094 12.0417Z" stroke="#212121" stroke-width="1.5" stroke-linecap="round" stroke-linejoin="round"/>
<circle cx="26" cy="9" r="3.5" fill="#2947A9" stroke="white"/>
</svg>
