<svg width="24" height="24" viewBox="0 0 24 24" fill="none" xmlns="http://www.w3.org/2000/svg">
<path d="M12.279 1.6695C12.0999 1.59773 11.9001 1.59773 11.721 1.6695L2.769 5.25L6.375 6.6915L15.606 3L12.279 1.6695ZM17.625 3.8085L8.394 7.5L12 8.9415L21.231 5.25L17.625 3.8085ZM22.5 6.3585L12.75 10.2585V22.1415L22.5 18.2415V6.3585ZM11.25 22.143V10.257L1.5 6.3585V18.243L11.25 22.143ZM11.1645 0.276C11.7008 0.0614985 12.2992 0.0614985 12.8355 0.276L23.529 4.554C23.668 4.60972 23.7872 4.70579 23.8711 4.82983C23.9551 4.95388 24 5.10022 24 5.25V18.243C23.9998 18.5427 23.9098 18.8355 23.7417 19.0836C23.5735 19.3318 23.3348 19.5238 23.0565 19.635L12.279 23.946C12.0999 24.0178 11.9001 24.0178 11.721 23.946L0.945 19.635C0.666377 19.524 0.427414 19.3321 0.258963 19.084C0.0905126 18.8358 0.000309494 18.5429 0 18.243L0 5.25C3.48599e-05 5.10022 0.0449156 4.95388 0.128861 4.82983C0.212805 4.70579 0.331969 4.60972 0.471 4.554L11.1645 0.276Z" fill="white"/>
</svg>
