<svg width="25" height="25" viewBox="0 0 25 25" fill="none" xmlns="http://www.w3.org/2000/svg">
<path d="M13.625 10.25C13.625 10.0511 13.546 9.86032 13.4053 9.71967C13.2646 9.57902 13.0739 9.5 12.875 9.5C12.6761 9.5 12.4853 9.57902 12.3446 9.71967C12.204 9.86032 12.125 10.0511 12.125 10.25V15.9395L10.406 14.219C10.3362 14.1493 10.2535 14.094 10.1623 14.0562C10.0712 14.0185 9.97359 13.9991 9.87497 13.9991C9.77636 13.9991 9.6787 14.0185 9.5876 14.0562C9.49649 14.094 9.4137 14.1493 9.34397 14.219C9.27424 14.2887 9.21892 14.3715 9.18119 14.4626C9.14345 14.5537 9.12402 14.6514 9.12402 14.75C9.12402 14.8486 9.14345 14.9463 9.18119 15.0374C9.21892 15.1285 9.27424 15.2113 9.34397 15.281L12.344 18.281C12.4136 18.3508 12.4964 18.4063 12.5875 18.4441C12.6786 18.4819 12.7763 18.5013 12.875 18.5013C12.9736 18.5013 13.0713 18.4819 13.1624 18.4441C13.2535 18.4063 13.3363 18.3508 13.406 18.281L16.406 15.281C16.4757 15.2113 16.531 15.1285 16.5688 15.0374C16.6065 14.9463 16.6259 14.8486 16.6259 14.75C16.6259 14.6514 16.6065 14.5537 16.5688 14.4626C16.531 14.3715 16.4757 14.2887 16.406 14.219C16.3362 14.1493 16.2535 14.094 16.1623 14.0562C16.0712 14.0185 15.9736 13.9991 15.875 13.9991C15.7764 13.9991 15.6787 14.0185 15.5876 14.0562C15.4965 14.094 15.4137 14.1493 15.344 14.219L13.625 15.9395V10.25Z" fill="#595959"/>
<path d="M21.875 21.5V7.25L15.125 0.5H6.875C6.07935 0.5 5.31629 0.816071 4.75368 1.37868C4.19107 1.94129 3.875 2.70435 3.875 3.5V21.5C3.875 22.2956 4.19107 23.0587 4.75368 23.6213C5.31629 24.1839 6.07935 24.5 6.875 24.5H18.875C19.6706 24.5 20.4337 24.1839 20.9963 23.6213C21.5589 23.0587 21.875 22.2956 21.875 21.5ZM15.125 5C15.125 5.59674 15.3621 6.16903 15.784 6.59099C16.206 7.01295 16.7783 7.25 17.375 7.25H20.375V21.5C20.375 21.8978 20.217 22.2794 19.9357 22.5607C19.6544 22.842 19.2728 23 18.875 23H6.875C6.47718 23 6.09564 22.842 5.81434 22.5607C5.53304 22.2794 5.375 21.8978 5.375 21.5V3.5C5.375 3.10218 5.53304 2.72064 5.81434 2.43934C6.09564 2.15804 6.47718 2 6.875 2H15.125V5Z" fill="#595959"/>
</svg>
