<svg width="20" height="21" viewBox="0 0 20 21" fill="none" xmlns="http://www.w3.org/2000/svg">
<path d="M2.5 4.875C2.5 4.70924 2.56585 4.55027 2.68306 4.43306C2.80027 4.31585 2.95924 4.25 3.125 4.25H16.875C17.0408 4.25 17.1997 4.31585 17.3169 4.43306C17.4342 4.55027 17.5 4.70924 17.5 4.875C17.5 5.04076 17.4342 5.19973 17.3169 5.31694C17.1997 5.43415 17.0408 5.5 16.875 5.5H3.125C2.95924 5.5 2.80027 5.43415 2.68306 5.31694C2.56585 5.19973 2.5 5.04076 2.5 4.875ZM15.8075 7.5575C15.9249 7.44014 16.084 7.37421 16.25 7.37421C16.416 7.37421 16.5751 7.44014 16.6925 7.5575C16.8099 7.67486 16.8758 7.83403 16.8758 8C16.8758 8.16597 16.8099 8.32514 16.6925 8.4425L14.6337 10.5L16.6925 12.5575C16.8099 12.6749 16.8758 12.834 16.8758 13C16.8758 13.166 16.8099 13.3251 16.6925 13.4425C16.5751 13.5599 16.416 13.6258 16.25 13.6258C16.084 13.6258 15.9249 13.5599 15.8075 13.4425L13.3075 10.9425C13.2493 10.8844 13.2031 10.8155 13.1716 10.7395C13.1401 10.6636 13.1239 10.5822 13.1239 10.5C13.1239 10.4178 13.1401 10.3364 13.1716 10.2605C13.2031 10.1845 13.2493 10.1156 13.3075 10.0575L15.8075 7.5575ZM2.5 8.625C2.5 8.45924 2.56585 8.30027 2.68306 8.18306C2.80027 8.06585 2.95924 8 3.125 8H10.625C10.7908 8 10.9497 8.06585 11.0669 8.18306C11.1842 8.30027 11.25 8.45924 11.25 8.625C11.25 8.79076 11.1842 8.94973 11.0669 9.06694C10.9497 9.18415 10.7908 9.25 10.625 9.25H3.125C2.95924 9.25 2.80027 9.18415 2.68306 9.06694C2.56585 8.94973 2.5 8.79076 2.5 8.625ZM2.5 12.375C2.5 12.2092 2.56585 12.0503 2.68306 11.9331C2.80027 11.8158 2.95924 11.75 3.125 11.75H10.625C10.7908 11.75 10.9497 11.8158 11.0669 11.9331C11.1842 12.0503 11.25 12.2092 11.25 12.375C11.25 12.5408 11.1842 12.6997 11.0669 12.8169C10.9497 12.9342 10.7908 13 10.625 13H3.125C2.95924 13 2.80027 12.9342 2.68306 12.8169C2.56585 12.6997 2.5 12.5408 2.5 12.375ZM2.5 16.125C2.5 15.9592 2.56585 15.8003 2.68306 15.6831C2.80027 15.5658 2.95924 15.5 3.125 15.5H16.875C17.0408 15.5 17.1997 15.5658 17.3169 15.6831C17.4342 15.8003 17.5 15.9592 17.5 16.125C17.5 16.2908 17.4342 16.4497 17.3169 16.5669C17.1997 16.6842 17.0408 16.75 16.875 16.75H3.125C2.95924 16.75 2.80027 16.6842 2.68306 16.5669C2.56585 16.4497 2.5 16.2908 2.5 16.125Z" fill="#0578B9"/>
</svg>
