<svg width="66" height="66" viewBox="0 0 66 66" fill="none" xmlns="http://www.w3.org/2000/svg">
<path d="M30.9688 16.9081H28.9375V18.9393H30.9688V16.9081Z" fill="white"/>
<path d="M37.0625 16.9081H35.0312V18.9393H37.0625V16.9081Z" fill="white"/>
<path d="M63.4688 4.72058H61.4375V2.68933H59.4062V4.72058H57.375V6.75183H59.4062V8.78308H61.4375V6.75183H63.4688V4.72058Z" fill="white"/>
<path d="M61.4375 10.8143H59.4062V14.8768H61.4375V10.8143Z" fill="white"/>
<path d="M61.4375 16.9081H59.4062V18.9393H61.4375V16.9081Z" fill="white"/>
<path d="M61.4375 20.9706H59.4062V23.0018H61.4375V20.9706Z" fill="white"/>
<path d="M52.2969 18.9393H54.3281V16.9081H56.3594V14.8768H54.3281V12.8456H52.2969V14.8768H50.2656V16.9081H52.2969V18.9393Z" fill="white"/>
<path d="M54.3281 20.9706H52.2969V25.0331H54.3281V20.9706Z" fill="white"/>
<path d="M54.3281 27.0643H52.2969V29.0956H54.3281V27.0643Z" fill="white"/>
<path d="M54.3281 31.1268H52.2969V33.1581H54.3281V31.1268Z" fill="white"/>
<path d="M4.5625 8.78308H6.59375V6.75183H8.625V4.72058H6.59375V2.68933H4.5625V4.72058H2.53125V6.75183H4.5625V8.78308Z" fill="white"/>
<path d="M6.59375 10.8143H4.5625V14.8768H6.59375V10.8143Z" fill="white"/>
<path d="M6.59375 16.9081H4.5625V18.9393H6.59375V16.9081Z" fill="white"/>
<path d="M6.59375 20.9706H4.5625V23.0018H6.59375V20.9706Z" fill="white"/>
<path d="M11.6719 18.9393H13.7031V16.9081H15.7344V14.8768H13.7031V12.8456H11.6719V14.8768H9.64062V16.9081H11.6719V18.9393Z" fill="white"/>
<path d="M13.7031 20.9706H11.6719V25.0331H13.7031V20.9706Z" fill="white"/>
<path d="M13.7031 27.0643H11.6719V29.0956H13.7031V27.0643Z" fill="white"/>
<path d="M13.7031 31.1268H11.6719V33.1581H13.7031V31.1268Z" fill="white"/>
<path d="M59.4062 42.2987C59.6755 42.2987 59.9339 42.1917 60.1243 42.0012C60.3148 41.8108 60.4218 41.5524 60.4218 41.2831V38.2362C60.4218 37.9668 60.3148 37.7085 60.1243 37.518C59.9339 37.3276 59.6755 37.2206 59.4062 37.2206H46.203V36.1034C46.2023 34.7301 45.8039 33.3865 45.056 32.2348C44.308 31.0831 43.2425 30.1727 41.9882 29.6135L37.0624 27.4198V25.9675C37.9932 25.4254 38.8078 24.705 39.4596 23.8475C40.1114 22.9901 40.5876 22.0124 40.8609 20.9706H41.1249C41.933 20.9706 42.708 20.6496 43.2794 20.0782C43.8508 19.5068 44.1718 18.7318 44.1718 17.9237C44.1718 17.1156 43.8508 16.3406 43.2794 15.7692C42.708 15.1978 41.933 14.8768 41.1249 14.8768V10.1948L44.1718 9.17917V13.8612H46.203V7.76745C46.2015 7.55504 46.1343 7.3483 46.0106 7.17557C45.887 7.00285 45.713 6.87257 45.5124 6.80261L33.3249 2.74011C33.1141 2.66891 32.8857 2.66891 32.6749 2.74011L20.4874 6.80261C20.2842 6.8694 20.1073 6.99863 19.9819 7.17188C19.8564 7.34514 19.7889 7.55357 19.7889 7.76745C19.7889 7.98134 19.8564 8.18977 19.9819 8.36303C20.1073 8.53628 20.2842 8.66551 20.4874 8.7323L24.8749 10.1948V14.8768C24.0668 14.8768 23.2918 15.1978 22.7204 15.7692C22.149 16.3406 21.828 17.1156 21.828 17.9237C21.828 18.7318 22.149 19.5068 22.7204 20.0782C23.2918 20.6496 24.0668 20.9706 24.8749 20.9706H25.139C25.4122 22.0124 25.8884 22.9901 26.5402 23.8475C27.192 24.705 28.0067 25.4254 28.9374 25.9675V27.4198L24.0116 29.6135C22.7573 30.1727 21.6918 31.0831 20.9439 32.2348C20.1959 33.3865 19.7975 34.7301 19.7968 36.1034V37.2206H16.7499C15.3302 37.218 13.9423 37.6414 12.7657 38.4358C11.589 39.2303 10.6777 40.3594 10.1495 41.6772C9.62129 42.995 9.50045 44.441 9.8026 45.8282C10.1047 47.2154 10.816 48.4801 11.8444 49.4589C10.0459 49.675 8.39761 50.5696 7.2363 51.9599C6.07499 53.3502 5.48822 55.1314 5.59581 56.9397C5.7034 58.748 6.49724 60.4471 7.81522 61.6899C9.13319 62.9327 10.8759 63.6255 12.6874 63.6268H55.3437C55.613 63.6268 55.8714 63.5198 56.0618 63.3294C56.2523 63.1389 56.3593 62.8806 56.3593 62.6112V59.5643C56.3593 59.295 56.2523 59.0366 56.0618 58.8462C55.8714 58.6557 55.613 58.5487 55.3437 58.5487C54.8049 58.5487 54.2883 58.3347 53.9074 57.9538C53.5264 57.5728 53.3124 57.0562 53.3124 56.5175C53.3124 55.9787 53.5264 55.4621 53.9074 55.0811C54.2883 54.7002 54.8049 54.4862 55.3437 54.4862C55.613 54.4862 55.8714 54.3792 56.0618 54.1887C56.2523 53.9983 56.3593 53.7399 56.3593 53.4706V51.4393H59.4062C59.6755 51.4393 59.9339 51.3323 60.1243 51.1419C60.3148 50.9514 60.4218 50.6931 60.4218 50.4237V47.3768C60.4218 47.1075 60.3148 46.8491 60.1243 46.6587C59.9339 46.4682 59.6755 46.3612 59.4062 46.3612C58.8674 46.3612 58.3508 46.1472 57.9699 45.7663C57.5889 45.3853 57.3749 44.8687 57.3749 44.33C57.3749 43.7912 57.5889 43.2746 57.9699 42.8936C58.3508 42.5127 58.8674 42.2987 59.4062 42.2987ZM24.8749 18.9393C24.6055 18.9393 24.3472 18.8323 24.1568 18.6419C23.9663 18.4514 23.8593 18.1931 23.8593 17.9237C23.8593 17.6543 23.9663 17.396 24.1568 17.2055C24.3472 17.0151 24.6055 16.9081 24.8749 16.9081V18.9393ZM38.078 33.1581C38.2482 33.1589 38.4158 33.117 38.5655 33.0362C38.6884 32.9675 38.7959 32.8744 38.8815 32.7626C38.9671 32.6508 39.0289 32.5227 39.0632 32.3862L39.4796 30.7206L41.1554 31.462C42.0533 31.8609 42.8162 32.5117 43.3516 33.3356C43.887 34.1594 44.1719 35.1209 44.1718 36.1034V37.2206H36.8085L35.3562 32.305L37.753 33.1073C37.8585 33.139 37.9679 33.1561 38.078 33.1581ZM37.6007 29.8776L37.3569 30.8323L35.7523 30.294L35.3765 29.5526L36.0773 29.2073L37.6007 29.8776ZM39.0937 13.8612H26.9062V10.8651L32.6749 12.7948C32.8863 12.8625 33.1135 12.8625 33.3249 12.7948L39.0937 10.8651V13.8612ZM42.1405 17.9237C42.1405 18.1931 42.0335 18.4514 41.8431 18.6419C41.6526 18.8323 41.3943 18.9393 41.1249 18.9393V16.9081C41.3943 16.9081 41.6526 17.0151 41.8431 17.2055C42.0335 17.396 42.1405 17.6543 42.1405 17.9237ZM24.0218 7.76745L32.9999 4.77136L41.978 7.76745L32.9999 10.7635L24.0218 7.76745ZM26.9062 18.9393V15.8925H39.0937V18.9393C39.0937 20.5555 38.4516 22.1055 37.3088 23.2483C36.166 24.3911 34.6161 25.0331 32.9999 25.0331C31.3837 25.0331 29.8338 24.3911 28.691 23.2483C27.5482 22.1055 26.9062 20.5555 26.9062 18.9393ZM32.289 33.8792C32.4775 34.0677 32.7333 34.1736 32.9999 34.1736C33.2666 34.1736 33.5223 34.0677 33.7108 33.8792L34.6858 37.2206H31.314L32.289 33.8792ZM32.2077 30.9237L32.614 30.1112H33.3858L33.7921 30.9237L32.9999 31.726L32.2077 30.9237ZM33.7718 28.08H32.228L30.9687 27.4503V26.8003C32.2999 27.1524 33.6999 27.1524 35.0312 26.8003V27.4503L33.7718 28.08ZM29.9226 29.2073L30.6233 29.5526L30.2476 30.294L28.6429 30.8323L28.3991 29.8776L29.9226 29.2073ZM21.828 36.1034C21.8279 35.1209 22.1128 34.1594 22.6482 33.3356C23.1836 32.5117 23.9465 31.8609 24.8444 31.462L26.5202 30.7206L26.9366 32.3862C26.9709 32.5227 27.0327 32.6508 27.1183 32.7626C27.2039 32.8744 27.3114 32.9675 27.4343 33.0362C27.584 33.117 27.7516 33.1589 27.9218 33.1581C28.0319 33.1561 28.1413 33.139 28.2468 33.1073L30.6437 32.305L29.1913 37.2206H21.828V36.1034ZM55.9124 42.2987C55.723 42.6154 55.5794 42.9574 55.4859 43.3143H18.7812V45.3456H55.4859C55.5794 45.7025 55.723 46.0445 55.9124 46.3612H16.7499C16.2112 46.3612 15.6945 46.1472 15.3136 45.7663C14.9327 45.3853 14.7187 44.8687 14.7187 44.33C14.7187 43.7912 14.9327 43.2746 15.3136 42.8936C15.6945 42.5127 16.2112 42.2987 16.7499 42.2987H55.9124ZM11.6718 44.33C11.6718 42.9832 12.2068 41.6915 13.1591 40.7392C14.1115 39.7868 15.4031 39.2518 16.7499 39.2518H19.7968V40.2675H16.7499C15.6725 40.2675 14.6392 40.6955 13.8773 41.4573C13.1154 42.2192 12.6874 43.2525 12.6874 44.33C12.6874 45.4074 13.1154 46.4407 13.8773 47.2026C14.6392 47.9644 15.6725 48.3925 16.7499 48.3925H19.7968V49.4081H16.7499C16.083 49.4081 15.4227 49.2767 14.8066 49.0215C14.1905 48.7663 13.6307 48.3923 13.1591 47.9207C12.6876 47.4492 12.3135 46.8894 12.0583 46.2733C11.8031 45.6572 11.6718 44.9968 11.6718 44.33ZM51.4234 57.5331C51.5169 57.89 51.6605 58.232 51.8499 58.5487H12.6874C12.1487 58.5487 11.632 58.3347 11.2511 57.9538C10.8702 57.5728 10.6562 57.0562 10.6562 56.5175C10.6562 55.9787 10.8702 55.4621 11.2511 55.0811C11.632 54.7002 12.1487 54.4862 12.6874 54.4862H51.8499C51.6605 54.8029 51.5169 55.1449 51.4234 55.5018H14.7187V57.5331H51.4234ZM18.7812 61.5956H12.6874C11.3406 61.5956 10.049 61.0606 9.09663 60.1082C8.1443 59.1559 7.60928 57.8643 7.60928 56.5175C7.60928 55.1707 8.1443 53.879 9.09663 52.9267C10.049 51.9743 11.3406 51.4393 12.6874 51.4393H18.7812V52.455H12.6874C11.61 52.455 10.5767 52.883 9.81479 53.6448C9.05292 54.4067 8.62491 55.44 8.62491 56.5175C8.62491 57.5949 9.05292 58.6282 9.81479 59.3901C10.5767 60.1519 11.61 60.58 12.6874 60.58H18.7812V61.5956ZM54.328 60.58V61.5956H20.8124V60.58H54.328ZM54.328 52.455H20.8124V51.4393H54.328V52.455ZM58.3905 48.3925V49.4081H21.828V48.3925H58.3905ZM21.828 40.2675V39.2518H58.3905V40.2675H21.828Z" fill="white"/>
</svg>
