<svg width="65" height="65" viewBox="0 0 65 65" fill="none" xmlns="http://www.w3.org/2000/svg">
<path d="M31.9647 34.2344H11.4786C11.0848 34.2344 10.7651 34.5534 10.7651 34.9479C10.7651 35.3425 11.0848 35.6614 11.4786 35.6614H31.9647C32.3585 35.6614 32.6781 35.3425 32.6781 34.9479C32.6781 34.5534 32.3585 34.2344 31.9647 34.2344Z" fill="white"/>
<path d="M31.9648 38.2456H11.3995C11.0057 38.2456 10.686 38.5645 10.686 38.9591C10.686 39.3536 11.0057 39.6726 11.3995 39.6726H31.9648C32.3586 39.6726 32.6782 39.3536 32.6782 38.9591C32.6782 38.5645 32.3586 38.2456 31.9648 38.2456Z" fill="white"/>
<path d="M26.6415 42.2568H16.8504C16.4566 42.2568 16.137 42.5757 16.137 42.9703C16.137 43.3648 16.4566 43.6837 16.8504 43.6837H26.6415C27.0353 43.6837 27.355 43.3648 27.355 42.9703C27.355 42.5757 27.0353 42.2568 26.6415 42.2568Z" fill="white"/>
<path d="M11.7198 21.1707C11.281 21.3148 10.9856 21.7222 10.9856 22.1845C10.9856 22.4756 11.1119 22.7361 11.3088 22.9323V28.5809C11.3088 28.9747 11.6284 29.2943 12.0223 29.2943C12.4161 29.2943 12.7358 28.9747 12.7358 28.5809V23.5266L16.0641 24.5975L15.4491 28.807C15.4191 29.0125 15.4798 29.2201 15.6153 29.3764C15.7509 29.5326 15.9478 29.6233 16.1547 29.6233H28.6962C28.7505 29.6233 28.7983 29.604 28.8489 29.5926C28.9046 29.6061 28.9595 29.6233 29.018 29.6233C29.0522 29.6233 29.0872 29.6211 29.1222 29.6154C29.5117 29.5583 29.7821 29.1966 29.7251 28.8063L29.1022 24.5462L33.2782 23.1984C33.717 23.0536 34.0123 22.6462 34.0116 22.1838C34.0116 21.7215 33.7162 21.3141 33.2775 21.17L23.7611 18.0428C22.9356 17.7717 22.0623 17.7717 21.2354 18.0428L11.7198 21.1707ZM23.3166 19.3991L31.7849 22.1817L28.8275 23.1363C28.8082 23.1071 28.7804 23.0857 28.7569 23.0593C28.7369 23.0357 28.7183 23.0129 28.6948 22.9922C28.6498 22.953 28.6006 22.9251 28.5478 22.898C28.525 22.8859 28.5079 22.8666 28.4829 22.8566C28.0805 22.7011 27.6781 22.5606 27.275 22.4364C26.8983 22.3208 26.4994 22.5306 26.3831 22.908C26.2668 23.2847 26.478 23.6836 26.8547 23.7999C27.0995 23.8755 27.3449 23.9675 27.5896 24.056L28.1946 28.1977H16.9802L17.5952 23.9847C19.4588 23.3382 21.3389 23.055 23.1939 23.1435C23.5913 23.1691 23.9224 22.8609 23.9416 22.4664C23.9616 22.0725 23.6584 21.7379 23.2645 21.7186C21.0185 21.6031 18.7496 21.9905 16.5136 22.8581C16.3695 22.9137 16.2646 23.0186 16.1861 23.1385L13.2145 22.1824L21.6813 19.4006C22.2157 19.2236 22.7815 19.2236 23.3166 19.3991Z" fill="white"/>
<path d="M40.3204 55.9063C40.3204 56.7311 39.6497 57.4024 38.8242 57.4024H8.72764C8.3338 57.4024 8.01416 57.7214 8.01416 58.1159C8.01416 58.5105 8.3338 58.8294 8.72764 58.8294H38.8242C40.436 58.8294 41.7473 57.518 41.7473 55.9063C41.7473 55.5117 41.4284 55.1928 41.0339 55.1928C40.6393 55.1928 40.3204 55.5124 40.3204 55.9063Z" fill="white"/>
<path d="M56.4063 34.2715V5.69038C56.4063 2.74943 54.0133 0.357147 51.0731 0.357147H27.1181C24.1779 0.357147 21.7856 2.74943 21.7856 5.69038V10.7682H8.81245C5.20654 10.7682 2.27344 13.7013 2.27344 17.3072V58.1166C2.27344 61.6755 5.16873 64.5707 8.72755 64.5707H38.8241C40.4359 64.5707 41.7472 63.2594 41.7472 61.6476C41.7472 61.2531 41.4283 60.9342 41.0338 60.9342C40.6392 60.9342 40.3203 61.2531 40.3203 61.6476C40.3203 62.4724 39.6496 63.1438 38.8241 63.1438H8.72755C5.95569 63.1438 3.70039 60.8885 3.70039 58.1166C3.70039 55.3441 5.95569 53.0888 8.72755 53.0888H33.605H38.8234C40.4352 53.0888 41.7465 51.7774 41.7465 50.1657V13.6906C41.7465 12.0789 40.4352 10.7675 38.8234 10.7675H23.2125V5.69038C23.2125 3.5364 24.9648 1.7841 27.1181 1.7841H51.0731C53.2271 1.7841 54.9794 3.5364 54.9794 5.69038V34.2715C51.4748 34.6297 48.7322 37.5978 48.7322 41.1958V47.2119C48.7322 51.0504 51.8544 54.1725 55.6929 54.1725C59.5314 54.1725 62.6535 51.0504 62.6535 47.2119V41.1958C62.6528 37.5978 59.9102 34.6297 56.4063 34.2715ZM40.3203 13.6906V50.1657C40.3203 50.9904 39.6496 51.6618 38.8241 51.6618H33.6058H8.72755C6.69628 51.6618 4.88405 52.6072 3.70039 54.0784V17.3065C3.70039 14.4876 5.9935 12.1944 8.81245 12.1944H38.8241C39.6489 12.1944 40.3203 12.8658 40.3203 13.6906ZM61.2259 41.1951V41.3571H56.4056V35.7135C59.1204 36.0652 61.2259 38.3869 61.2259 41.1951ZM54.9794 35.7128V41.3564H50.1591V41.1944C50.1591 38.3869 52.2646 36.0652 54.9794 35.7128ZM55.6929 52.7449C52.642 52.7449 50.1591 50.2627 50.1591 47.2112V42.784H61.2266V47.2112C61.2259 50.262 58.7437 52.7449 55.6929 52.7449Z" fill="white"/>
</svg>
