<svg width="40" height="40" viewBox="0 0 40 40" fill="none" xmlns="http://www.w3.org/2000/svg">
<g clip-path="url(#clip0_377_2454)">
<path d="M19.7191 20.6327C20.3862 20.6327 20.927 20.0919 20.927 19.4248C20.927 18.7577 20.3862 18.2169 19.7191 18.2169C19.052 18.2169 18.5112 18.7577 18.5112 19.4248C18.5112 20.0919 19.052 20.6327 19.7191 20.6327Z" fill="#0578B9"/>
<path d="M15.5042 22.165C16.1713 22.165 16.7121 21.6242 16.7121 20.9572C16.7121 20.2901 16.1713 19.7493 15.5042 19.7493C14.8372 19.7493 14.2964 20.2901 14.2964 20.9572C14.2964 21.6242 14.8372 22.165 15.5042 22.165Z" fill="#0578B9"/>
<path d="M23.9344 19.1004C24.6015 19.1004 25.1423 18.5596 25.1423 17.8925C25.1423 17.2254 24.6015 16.6846 23.9344 16.6846C23.2673 16.6846 22.7266 17.2254 22.7266 17.8925C22.7266 18.5596 23.2673 19.1004 23.9344 19.1004Z" fill="#0578B9"/>
<path d="M21.1375 24.5228C21.8046 24.5228 22.3454 23.982 22.3454 23.3149C22.3454 22.6478 21.8046 22.1071 21.1375 22.1071C20.4705 22.1071 19.9297 22.6478 19.9297 23.3149C19.9297 23.982 20.4705 24.5228 21.1375 24.5228Z" fill="#0578B9"/>
<path d="M16.9222 26.0595C17.5893 26.0595 18.1301 25.5187 18.1301 24.8516C18.1301 24.1845 17.5893 23.6438 16.9222 23.6438C16.2551 23.6438 15.7144 24.1845 15.7144 24.8516C15.7144 25.5187 16.2551 26.0595 16.9222 26.0595Z" fill="#0578B9"/>
<path d="M25.3524 22.9905C26.0195 22.9905 26.5603 22.4497 26.5603 21.7826C26.5603 21.1155 26.0195 20.5747 25.3524 20.5747C24.6853 20.5747 24.1445 21.1155 24.1445 21.7826C24.1445 22.4497 24.6853 22.9905 25.3524 22.9905Z" fill="#212121"/>
<path d="M32.1828 23.0519L28.1368 11.937V11.9357L28.136 11.9344L27.4506 10.0513C27.3154 9.67983 27.0427 9.38258 26.6827 9.21486C26.3226 9.04626 25.9191 9.0287 25.5481 9.16393L22.3803 10.3169L21.9197 9.05197C21.8372 8.82409 21.5838 8.70555 21.3573 8.78985C21.129 8.87239 21.0117 9.12485 21.0947 9.35272L21.5548 10.6172L12.6524 13.8575L12.1923 12.593C12.1093 12.3651 11.8568 12.2479 11.6294 12.3304C11.4015 12.4134 11.2839 12.6655 11.3668 12.8933L11.827 14.1583L8.65915 15.3112C7.88991 15.5914 7.49168 16.4449 7.7718 17.2137L12.5036 30.2143C12.7227 30.8163 13.2935 31.1913 13.9002 31.1913C14.0684 31.1913 14.2392 31.1627 14.406 31.1017L31.295 24.9548C32.0647 24.6747 32.4625 23.8211 32.1828 23.0519ZM8.61919 16.4506C8.68812 16.3031 8.80887 16.1916 8.9599 16.1367L12.5396 14.8335H12.5405L12.5409 14.8331L25.8484 9.98936C25.9152 9.96478 25.9846 9.95292 26.0539 9.95292C26.1417 9.95292 26.2295 9.97224 26.3121 10.0109C26.4596 10.0794 26.5711 10.2006 26.626 10.3516L27.1617 11.8233L9.13333 18.3851L8.59768 16.9134C8.54279 16.7623 8.55026 16.5981 8.61919 16.4506ZM30.9951 24.1294L14.1066 30.2762C13.7922 30.3886 13.4436 30.2279 13.329 29.914L9.43321 19.2101L27.4616 12.6483L31.3578 23.3522C31.472 23.6666 31.3095 24.0152 30.9951 24.1294Z" fill="#212121"/>
<path d="M37.1489 9.71188C36.9957 9.71188 36.8468 9.63153 36.7665 9.48884C34.18 4.91337 29.3121 2.07132 24.0618 2.07132C19.5798 2.07132 15.4109 4.08881 12.6242 7.60658C12.4736 7.79669 12.1979 7.82786 12.0073 7.67814C11.8172 7.52755 11.7851 7.25138 11.9357 7.06126C14.8902 3.33186 19.3098 1.19319 24.0618 1.19319C29.6282 1.19319 34.7889 4.20648 37.5305 9.0568C37.6499 9.26799 37.5757 9.53582 37.3645 9.65524C37.2964 9.69388 37.2222 9.71188 37.1489 9.71188Z" fill="#0578B9"/>
<path d="M15.0486 39.0061C10.2966 39.0061 5.87702 36.8674 2.92256 33.1385C2.77197 32.9484 2.80402 32.6722 2.99413 32.5216C3.18381 32.371 3.45998 32.4026 3.61101 32.5932C6.39774 36.1109 10.5666 38.1284 15.0486 38.1284C20.2985 38.1284 25.1663 35.2859 27.7533 30.7105C27.8727 30.4993 28.141 30.4255 28.3513 30.5445C28.5621 30.6635 28.6367 30.9318 28.5173 31.1425C25.7753 35.9928 20.6146 39.0061 15.0486 39.0061Z" fill="#0578B9"/>
<path d="M39.1811 11.6877H38.7618V11.2679C38.7618 11.0256 38.5656 10.8289 38.3228 10.8289C38.08 10.8289 37.8837 11.0256 37.8837 11.2679V11.6877H37.464C37.2212 11.6877 37.0249 11.8844 37.0249 12.1267C37.0249 12.3691 37.2212 12.5658 37.464 12.5658H37.8837V12.9855C37.8837 13.2279 38.08 13.4246 38.3228 13.4246C38.5656 13.4246 38.7618 13.2279 38.7618 12.9855V12.5658H39.1811C39.4239 12.5658 39.6202 12.3691 39.6202 12.1267C39.6202 11.8844 39.4239 11.6877 39.1811 11.6877Z" fill="#0578B9"/>
<path d="M12.0512 2.86777C11.6973 2.86777 11.365 2.72991 11.1147 2.47964C10.8644 2.22982 10.7266 1.89701 10.7266 1.54312C10.7266 1.18924 10.8644 0.856867 11.1147 0.606601C11.631 0.0902639 12.4714 0.090703 12.9877 0.606601C13.5041 1.12338 13.5041 1.9633 12.9877 2.47964C12.7375 2.72991 12.4051 2.86777 12.0512 2.86777ZM12.0512 1.09747C11.9371 1.09747 11.8225 1.14094 11.7355 1.22787C11.6512 1.31174 11.6047 1.42414 11.6047 1.54312C11.6047 1.66211 11.6512 1.77451 11.7355 1.85837C11.9094 2.03224 12.1926 2.03268 12.3669 1.85837C12.5408 1.6845 12.5408 1.4013 12.3669 1.227C12.2795 1.14094 12.1654 1.09747 12.0512 1.09747Z" fill="#0578B9"/>
<path d="M7.21841 28.243C7.1227 28.243 7.02654 28.2122 6.94576 28.1481C3.2168 25.1937 1.07812 20.7741 1.07812 16.0216C1.07812 10.4557 4.09141 5.29447 8.94173 2.55253C9.15336 2.4331 9.42075 2.50774 9.54018 2.71849C9.65916 2.92968 9.58496 3.19751 9.37421 3.31693C4.79874 5.90345 1.95625 10.7718 1.95625 16.0216C1.95625 20.504 3.97374 24.6729 7.49107 27.4592C7.68119 27.6103 7.71324 27.8864 7.56264 28.0761C7.47614 28.1859 7.34794 28.243 7.21841 28.243Z" fill="#0578B9"/>
<path d="M32.7508 37.256C32.6212 37.256 32.4926 37.199 32.4061 37.0896C32.2555 36.8995 32.2876 36.6233 32.4777 36.4727C35.9954 33.686 38.0129 29.5176 38.0129 25.0356C38.0129 19.7853 35.1704 14.917 30.595 12.3309C30.3842 12.2115 30.3096 11.9436 30.429 11.7325C30.548 11.5213 30.8167 11.4471 31.027 11.5665C35.8773 14.3084 38.8906 19.4692 38.8906 25.0356C38.8906 29.7871 36.7519 34.2072 33.023 37.1616C32.9426 37.2253 32.846 37.256 32.7508 37.256Z" fill="#0578B9"/>
<path d="M29.9689 39.7354C29.6146 39.7354 29.2822 39.598 29.0319 39.3473C28.516 38.8314 28.516 37.991 29.0319 37.4742C29.5492 36.9579 30.3882 36.9583 30.9054 37.4738L30.9059 37.4742C31.4218 37.991 31.4218 38.8314 30.9054 39.3473C30.6552 39.598 30.3228 39.7354 29.9689 39.7354ZM29.9689 37.9651C29.8543 37.9651 29.7402 38.0086 29.6532 38.0955C29.4793 38.2694 29.4793 38.5526 29.6532 38.7269C29.8223 38.8959 30.1155 38.8959 30.2846 38.7269C30.4585 38.553 30.4585 38.2703 30.2846 38.096C30.1977 38.0086 30.0831 37.9651 29.9689 37.9651Z" fill="#0578B9"/>
<path d="M2.49169 29.8631H2.07238V29.4433C2.07238 29.2005 1.87568 29.0043 1.63332 29.0043C1.39096 29.0043 1.19426 29.2005 1.19426 29.4433V29.8631H0.774512C0.532149 29.8631 0.335449 30.0593 0.335449 30.3021C0.335449 30.5449 0.532149 30.7412 0.774512 30.7412H1.19426V31.1605C1.19426 31.4033 1.39096 31.5996 1.63332 31.5996C1.87568 31.5996 2.07238 31.4033 2.07238 31.1605V30.7412H2.49169C2.73405 30.7412 2.93075 30.5449 2.93075 30.3021C2.93075 30.0598 2.73405 29.8631 2.49169 29.8631Z" fill="#0578B9"/>
</g>
<defs>
<clipPath id="clip0_377_2454">
<rect width="40" height="40" fill="white"/>
</clipPath>
</defs>
</svg>
