<svg width="24" height="24" viewBox="0 0 24 24" fill="none" xmlns="http://www.w3.org/2000/svg">
<path d="M7.80006 15.6C7.71044 15.6 7.62081 15.6131 7.53531 15.6409C7.04931 15.7987 6.53819 15.9 6.00006 15.9C5.46194 15.9 4.95081 15.7987 4.46444 15.6409C4.37894 15.6131 4.28969 15.6 4.20006 15.6C1.87281 15.6 -0.0123144 17.493 6.05805e-05 19.8232C0.00531058 20.808 0.814936 21.6 1.80006 21.6H10.2001C11.1852 21.6 11.9948 20.808 12.0001 19.8232C12.0124 17.493 10.1273 15.6 7.80006 15.6ZM6.00006 14.4C7.98831 14.4 9.60006 12.7882 9.60006 10.8C9.60006 8.81173 7.98831 7.19998 6.00006 7.19998C4.01181 7.19998 2.40006 8.81173 2.40006 10.8C2.40006 12.7882 4.01181 14.4 6.00006 14.4ZM22.2001 2.39998H7.80006C6.80744 2.39998 6.00006 3.23435 6.00006 4.2596V5.99998C6.87831 5.99998 7.69131 6.25423 8.40006 6.66748V4.79998H21.6001V15.6H19.2001V13.2H14.4001V15.6H11.5411C12.2573 16.2259 12.7831 17.0524 13.0294 18H22.2001C23.1927 18 24.0001 17.1656 24.0001 16.1404V4.2596C24.0001 3.23435 23.1927 2.39998 22.2001 2.39998Z" fill="#2947A9"/>
</svg>
