<svg width="24" height="24" viewBox="0 0 24 24" fill="none" xmlns="http://www.w3.org/2000/svg">
<path d="M12.0047 6.60937C9.02344 6.60937 6.61876 9.01406 6.61876 11.9953C6.61876 14.9766 9.02344 17.3812 12.0047 17.3812C14.9859 17.3812 17.3906 14.9766 17.3906 11.9953C17.3906 9.01406 14.9859 6.60937 12.0047 6.60937ZM12.0047 15.4969C10.0781 15.4969 8.50313 13.9266 8.50313 11.9953C8.50313 10.0641 10.0734 8.49374 12.0047 8.49374C13.9359 8.49374 15.5063 10.0641 15.5063 11.9953C15.5063 13.9266 13.9313 15.4969 12.0047 15.4969ZM18.8672 6.38906C18.8672 7.08749 18.3047 7.64531 17.6109 7.64531C16.9125 7.64531 16.3547 7.08281 16.3547 6.38906C16.3547 5.69531 16.9172 5.13281 17.6109 5.13281C18.3047 5.13281 18.8672 5.69531 18.8672 6.38906ZM22.4344 7.66406C22.3547 5.98124 21.9703 4.49062 20.7375 3.26249C19.5094 2.03437 18.0188 1.64999 16.3359 1.56562C14.6016 1.46718 9.40313 1.46718 7.66876 1.56562C5.99063 1.64531 4.50001 2.02968 3.26719 3.25781C2.03438 4.48593 1.65469 5.97656 1.57032 7.65937C1.47188 9.39374 1.47188 14.5922 1.57032 16.3266C1.65001 18.0094 2.03438 19.5 3.26719 20.7281C4.50001 21.9562 5.98594 22.3406 7.66876 22.425C9.40313 22.5234 14.6016 22.5234 16.3359 22.425C18.0188 22.3453 19.5094 21.9609 20.7375 20.7281C21.9656 19.5 22.35 18.0094 22.4344 16.3266C22.5328 14.5922 22.5328 9.39843 22.4344 7.66406ZM20.1938 18.1875C19.8281 19.1062 19.1203 19.8141 18.1969 20.1844C16.8141 20.7328 13.5328 20.6062 12.0047 20.6062C10.4766 20.6062 7.19063 20.7281 5.81251 20.1844C4.89376 19.8187 4.18594 19.1109 3.81563 18.1875C3.26719 16.8047 3.39376 13.5234 3.39376 11.9953C3.39376 10.4672 3.27188 7.18124 3.81563 5.80312C4.18126 4.88437 4.88907 4.17656 5.81251 3.80624C7.19532 3.25781 10.4766 3.38437 12.0047 3.38437C13.5328 3.38437 16.8188 3.26249 18.1969 3.80624C19.1156 4.17187 19.8234 4.87968 20.1938 5.80312C20.7422 7.18593 20.6156 10.4672 20.6156 11.9953C20.6156 13.5234 20.7422 16.8094 20.1938 18.1875Z" fill="#595959"/>
</svg>
