<svg width="24" height="24" viewBox="0 0 24 24" fill="none" xmlns="http://www.w3.org/2000/svg">
<path d="M6.20062 21H1.84688V6.97969H6.20062V21ZM4.02141 5.06719C2.62922 5.06719 1.5 3.91407 1.5 2.52188C1.5 1.85316 1.76565 1.21183 2.2385 0.738976C2.71136 0.26612 3.35269 0.000473022 4.02141 0.000473022C4.69012 0.000473022 5.33145 0.26612 5.80431 0.738976C6.27716 1.21183 6.54281 1.85316 6.54281 2.52188C6.54281 3.91407 5.41313 5.06719 4.02141 5.06719ZM22.4953 21H18.1509V14.175C18.1509 12.5484 18.1181 10.4625 15.8873 10.4625C13.6237 10.4625 13.2769 12.2297 13.2769 14.0578V21H8.92781V6.97969H13.1034V8.89219H13.1644C13.7456 7.79063 15.1655 6.62813 17.2838 6.62813C21.69 6.62813 22.5 9.52969 22.5 13.2984V21H22.4953Z" fill="#595959"/>
</svg>
