<svg width="24" height="24" viewBox="0 0 24 24" fill="none" xmlns="http://www.w3.org/2000/svg">
<path d="M22.0103 8.74089L8.73828 4.28889L4.28628 17.5609L17.5583 22.0129L22.0103 8.74089Z" fill="#64B5F6"/>
<path d="M20.0782 9.6622L9.61719 6.2522L6.51719 15.7622L16.9782 19.1722L20.0782 9.6622Z" fill="#1E88E5"/>
<path d="M19.2034 5.42321L5.44141 2.88921L2.90741 16.6512L16.6694 19.1852L19.2034 5.42321Z" fill="#90CAF9"/>
<path d="M17.4444 6.64676L6.60938 4.72176L4.85937 14.5718L15.6944 16.4968L17.4444 6.64676Z" fill="#42A5F5"/>
<path d="M16 2H2V16H16V2Z" fill="#BBDEFB"/>
<path d="M14.5 3.5H3.5V13.5H14.5V3.5Z" fill="#4CAF50"/>
<path d="M8 6.5C8 5.95 8.45 5.5 9 5.5C9.55 5.5 10 5.95 10 6.5C10 7.05 9 8.5 9 8.5C9 8.5 8 7.05 8 6.5Z" fill="white"/>
<path d="M10 10.5C10 11.05 9.55 11.5 9 11.5C8.45 11.5 8 11.05 8 10.5C8 9.95 9 8.5 9 8.5C9 8.5 10 9.95 10 10.5Z" fill="white"/>
<path d="M6.75002 8.35001C6.25002 8.05 6.10002 7.45 6.40002 7C6.70002 6.5 7.30002 6.35 7.75002 6.65C8.25002 6.95 9.00002 8.5 9.00002 8.5C9.00002 8.5 7.25002 8.65001 6.75002 8.35001Z" fill="white"/>
<path d="M11.25 8.64999C11.75 8.94999 11.9 9.54999 11.6 9.99999C11.3 10.5 10.7 10.65 10.25 10.35C9.75 10.1 9 8.49999 9 8.49999C9 8.49999 10.75 8.34999 11.25 8.64999Z" fill="white"/>
<path d="M11.25 8.35001C11.75 8.05 11.9 7.45 11.6 7C11.3 6.5 10.7 6.35 10.25 6.65C9.75 6.9 9 8.5 9 8.5C9 8.5 10.75 8.65001 11.25 8.35001Z" fill="white"/>
<path d="M6.75002 8.64999C6.25002 8.94999 6.10002 9.54999 6.40002 9.99999C6.70002 10.5 7.30002 10.65 7.75002 10.35C8.25002 10.05 9.00002 8.49999 9.00002 8.49999C9.00002 8.49999 7.25002 8.34999 6.75002 8.64999Z" fill="white"/>
<path d="M9 9.5C9.55228 9.5 10 9.05228 10 8.5C10 7.94772 9.55228 7.5 9 7.5C8.44772 7.5 8 7.94772 8 8.5C8 9.05228 8.44772 9.5 9 9.5Z" fill="#FFC107"/>
</svg>
