<svg width="150" height="150" viewBox="0 0 150 150" fill="none" xmlns="http://www.w3.org/2000/svg">
<path fill-rule="evenodd" clip-rule="evenodd" d="M70.4984 30C64.3681 30 59.3984 34.9696 59.3984 41.1V78.3C59.3984 79.9568 58.0553 81.3 56.3984 81.3C54.7416 81.3 53.3984 79.9568 53.3984 78.3V41.1C53.3984 31.6559 61.0544 24 70.4984 24C79.9425 24 87.5984 31.6559 87.5984 41.1V42.6046C87.5984 44.2614 86.2553 45.6046 84.5984 45.6046C82.9416 45.6046 81.5984 44.2614 81.5984 42.6046V41.1C81.5984 34.9696 76.6288 30 70.4984 30Z" fill="url(#paint0_linear_582_5632)"/>
<mask id="mask0_582_5632" style="mask-type:alpha" maskUnits="userSpaceOnUse" x="53" y="24" width="35" height="58">
<path fill-rule="evenodd" clip-rule="evenodd" d="M70.4984 30C64.3681 30 59.3984 34.9696 59.3984 41.1V78.3C59.3984 79.9568 58.0553 81.3 56.3984 81.3C54.7416 81.3 53.3984 79.9568 53.3984 78.3V41.1C53.3984 31.6559 61.0544 24 70.4984 24C79.9425 24 87.5984 31.6559 87.5984 41.1V42.6046C87.5984 44.2614 86.2553 45.6046 84.5984 45.6046C82.9416 45.6046 81.5984 44.2614 81.5984 42.6046V41.1C81.5984 34.9696 76.6288 30 70.4984 30Z" fill="#4D94FF"/>
</mask>
<g mask="url(#mask0_582_5632)">
<path d="M60.0037 35.1C60.0037 29.3441 65.9219 24.6115 73.4995 24.0548C74.3257 23.9941 74.9984 23.3284 74.9984 22.5V19.5C74.9984 18.6716 74.3251 17.9962 73.4976 18.0355C61.4393 18.608 51.8984 26.0292 51.8984 35.1V72.3C51.8984 73.9569 53.7129 75.3 55.9511 75.3C58.1893 75.3 60.0037 73.9569 60.0037 72.3V35.1Z" fill="url(#paint1_linear_582_5632)"/>
</g>
<path d="M100.8 88.65C100.8 105.301 87.3014 118.8 70.65 118.8C53.9986 118.8 40.5 105.301 40.5 88.65C40.5 71.9986 53.9986 58.5 70.65 58.5C87.3014 58.5 100.8 71.9986 100.8 88.65Z" fill="url(#paint2_linear_582_5632)"/>
<mask id="mask1_582_5632" style="mask-type:alpha" maskUnits="userSpaceOnUse" x="40" y="58" width="61" height="61">
<path d="M100.8 88.65C100.8 105.301 87.3014 118.8 70.65 118.8C53.9986 118.8 40.5 105.301 40.5 88.65C40.5 71.9986 53.9986 58.5 70.65 58.5C87.3014 58.5 100.8 71.9986 100.8 88.65Z" fill="url(#paint3_linear_582_5632)"/>
</mask>
<g mask="url(#mask1_582_5632)">
<path d="M101.999 87.75C101.999 104.401 88.5006 117.9 71.8492 117.9C55.1978 117.9 41.6992 104.401 41.6992 87.75C41.6992 71.0986 55.1978 57.6 71.8492 57.6C88.5006 57.6 101.999 71.0986 101.999 87.75Z" fill="#4383FF"/>
<path d="M104.101 86.85C104.101 103.501 90.6022 117 73.9508 117C57.2994 117 43.8008 103.501 43.8008 86.85C43.8008 70.1986 57.2994 56.7 73.9508 56.7C90.6022 56.7 104.101 70.1986 104.101 86.85Z" fill="url(#paint4_linear_582_5632)"/>
</g>
<path d="M75.54 89.3272C75.54 88.7714 75.8538 88.2701 76.3149 87.9598C78.5979 86.4237 80.1 83.815 80.1 80.8552C80.1 76.1303 76.272 72.3 71.55 72.3C66.828 72.3 63 76.1303 63 80.8552C63 83.677 64.3653 86.1798 66.471 87.7381C66.8957 88.0524 67.18 88.5338 67.18 89.0622V103.5C67.18 104.328 67.8516 105 68.68 105H74.04C74.8684 105 75.54 104.328 75.54 103.5V89.3272Z" fill="url(#paint5_linear_582_5632)"/>
<g filter="url(#filter0_b_582_5632)">
<path d="M82.5 90.3C82.5 86.9863 85.1863 84.3 88.5 84.3H118.5C121.814 84.3 124.5 86.9863 124.5 90.3V120.3C124.5 123.614 121.814 126.3 118.5 126.3H88.5C85.1863 126.3 82.5 123.614 82.5 120.3V90.3Z" fill="#B9CDFF" fill-opacity="0.5"/>
</g>
<path d="M102.961 91.3902C103.181 90.9443 103.817 90.9443 104.037 91.3902L107.768 98.9495C107.855 99.1266 108.024 99.2494 108.22 99.2778L116.562 100.49C117.054 100.561 117.25 101.166 116.894 101.513L110.858 107.397C110.716 107.535 110.652 107.734 110.685 107.929L112.11 116.237C112.194 116.727 111.68 117.101 111.24 116.87L103.778 112.947C103.603 112.855 103.395 112.855 103.22 112.947L95.7583 116.87C95.3181 117.101 94.8037 116.727 94.8877 116.237L96.3128 107.929C96.3461 107.734 96.2816 107.535 96.1402 107.397L90.1037 101.513C89.7476 101.166 89.9441 100.561 90.4363 100.49L98.7785 99.2778C98.9739 99.2494 99.1428 99.1266 99.2302 98.9495L102.961 91.3902Z" fill="#4D7FFE"/>
<path fill-rule="evenodd" clip-rule="evenodd" d="M104.313 43.8696C104.486 43.5715 104.917 43.5715 105.09 43.8696L105.734 44.9754C105.756 45.0118 105.791 45.0376 105.832 45.0465L107.083 45.3173C107.42 45.3903 107.553 45.7998 107.323 46.057L106.471 47.0112C106.443 47.0426 106.429 47.0844 106.433 47.1263L106.562 48.3995C106.597 48.7426 106.249 48.9957 105.933 48.8566L104.762 48.3406C104.723 48.3236 104.68 48.3236 104.641 48.3406L103.47 48.8566C103.154 48.9957 102.806 48.7426 102.841 48.3995L102.97 47.1263C102.974 47.0844 102.96 47.0426 102.932 47.0112L102.08 46.057C101.85 45.7998 101.983 45.3903 102.32 45.3173L103.571 45.0465C103.612 45.0376 103.647 45.0118 103.669 44.9754L104.313 43.8696ZM104.831 44.0206C104.773 43.9212 104.63 43.9212 104.572 44.0206L103.928 45.1264C103.864 45.2355 103.758 45.3129 103.634 45.3397L102.383 45.6105C102.271 45.6349 102.227 45.7713 102.303 45.8571L103.156 46.8113C103.24 46.9055 103.281 47.0308 103.268 47.1565L103.139 48.4297C103.128 48.5441 103.244 48.6284 103.349 48.5821L104.52 48.066C104.636 48.0151 104.767 48.0151 104.883 48.066L106.054 48.5821C106.159 48.6284 106.275 48.5441 106.264 48.4297L106.135 47.1565C106.122 47.0308 106.163 46.9055 106.247 46.8113L107.1 45.8571C107.176 45.7713 107.132 45.6349 107.02 45.6105L105.769 45.3397C105.645 45.3129 105.539 45.2355 105.475 45.1264L104.831 44.0206Z" fill="#6F6CFF"/>
<path opacity="0.796364" fill-rule="evenodd" clip-rule="evenodd" d="M35.8581 19.5041C35.9557 19.8349 35.6601 20.1479 35.3243 20.0696L32.5768 19.4286C32.5358 19.419 32.4926 19.4271 32.4579 19.4509L30.1308 21.0461C29.8464 21.2411 29.4573 21.0568 29.428 20.7131L29.1886 17.902C29.1851 17.86 29.164 17.8215 29.1306 17.7958L26.8944 16.0756C26.6211 15.8654 26.6762 15.4384 26.9939 15.3043L29.5935 14.208C29.6323 14.1916 29.6624 14.1597 29.6765 14.12L30.6215 11.4617C30.737 11.1367 31.1602 11.0572 31.3858 11.318L33.2318 13.4515C33.2594 13.4833 33.2991 13.5021 33.3412 13.5033L36.1614 13.5806C36.5061 13.59 36.7126 13.9678 36.5343 14.263L35.0756 16.678C35.0538 16.714 35.0482 16.7576 35.0601 16.798L35.8581 19.5041ZM35.3924 19.7774C35.5044 19.8035 35.6029 19.6992 35.5704 19.5889L34.7724 16.8828C34.7366 16.7617 34.7535 16.631 34.8188 16.5229L36.2775 14.1079C36.3369 14.0095 36.2681 13.8836 36.1532 13.8804L33.3329 13.8032C33.2067 13.7997 33.0876 13.7433 33.005 13.6478L31.159 11.5143C31.0837 11.4273 30.9427 11.4538 30.9042 11.5622L29.9592 14.2205C29.9169 14.3395 29.8265 14.4353 29.7101 14.4844L27.1105 15.5808C27.0046 15.6254 26.9862 15.7678 27.0774 15.8379L29.3135 17.5581C29.4137 17.6351 29.4768 17.7507 29.4875 17.8766L29.7269 20.6877C29.7367 20.8022 29.8664 20.8637 29.9612 20.7987L32.2882 19.2035C32.3925 19.132 32.5219 19.1077 32.6449 19.1364L35.3924 19.7774Z" fill="#6F6CFF"/>
<path opacity="0.73011" fill-rule="evenodd" clip-rule="evenodd" d="M27.9421 115.36C28.2771 115.442 28.3993 115.855 28.1627 116.106L26.7712 117.582C26.7423 117.613 26.7276 117.654 26.7307 117.696L26.8815 119.72C26.9071 120.064 26.5522 120.307 26.2404 120.16L24.4061 119.293C24.368 119.275 24.3241 119.274 24.2851 119.29L22.4074 120.058C22.0882 120.189 21.7467 119.927 21.7906 119.585L22.0485 117.572C22.0538 117.53 22.0414 117.488 22.0141 117.456L20.7029 115.908C20.48 115.645 20.6239 115.239 20.9628 115.175L22.9565 114.798C22.9979 114.79 23.0341 114.765 23.0562 114.73L24.1236 113.004C24.305 112.711 24.7354 112.722 24.901 113.025L25.8753 114.805C25.8955 114.841 25.9303 114.868 25.9712 114.878L27.9421 115.36ZM27.9444 115.9C28.0232 115.816 27.9825 115.679 27.8709 115.652L25.9 115.17C25.7772 115.14 25.6728 115.059 25.6121 114.949L24.6378 113.169C24.5826 113.068 24.4392 113.064 24.3787 113.162L23.3113 114.887C23.2449 114.995 23.1363 115.069 23.0122 115.093L21.0185 115.47C20.9055 115.491 20.8575 115.626 20.9318 115.714L22.2431 117.262C22.3247 117.359 22.3621 117.485 22.346 117.61L22.0881 119.623C22.0735 119.737 22.1873 119.824 22.2937 119.781L24.1715 119.012C24.2884 118.964 24.4201 118.968 24.5343 119.022L26.3686 119.889C26.4725 119.938 26.5908 119.857 26.5823 119.742L26.4316 117.719C26.4222 117.593 26.4662 117.469 26.5528 117.377L27.9444 115.9Z" fill="#6F6CFF"/>
<path opacity="0.902331" d="M132.517 79.2616C132.668 79.4344 132.577 79.7066 132.352 79.7533L129.59 80.326C129.507 80.3431 129.436 80.3941 129.393 80.4665L127.951 82.8918C127.834 83.0894 127.547 83.0869 127.433 82.8872L126.034 80.4368C125.993 80.3637 125.922 80.3114 125.84 80.2929L123.088 79.6715C122.864 79.6208 122.777 79.3471 122.932 79.177L124.83 77.0899C124.887 77.0275 124.915 76.9443 124.907 76.8604L124.648 74.0511C124.627 73.8221 124.86 73.6555 125.07 73.75L127.641 74.9105C127.718 74.9451 127.806 74.9459 127.883 74.9126L130.475 73.7978C130.686 73.7069 130.917 73.8777 130.892 74.1062L130.583 76.9105C130.574 76.9942 130.6 77.078 130.655 77.1413L132.517 79.2616Z" fill="#6F6CFF"/>
<path opacity="0.370759" d="M15.38 53.7859C15.4493 53.5667 15.7293 53.5037 15.8858 53.6721L17.0286 54.9021C17.086 54.9638 17.1666 54.9986 17.2508 54.9979L18.9297 54.9845C19.1596 54.9827 19.3061 55.2295 19.1942 55.4304L18.3776 56.8974C18.3366 56.971 18.3285 57.0584 18.3551 57.1383L18.8867 58.7309C18.9595 58.949 18.77 59.1645 18.5444 59.1202L16.8969 58.7969C16.8142 58.7806 16.7286 58.7999 16.6608 58.85L15.3104 59.8477C15.1255 59.9843 14.8619 59.8707 14.8343 59.6424L14.6328 57.9756C14.6227 57.892 14.5779 57.8165 14.5093 57.7675L13.1432 56.7915C12.9561 56.6579 12.9827 56.3721 13.1913 56.2753L14.7142 55.5685C14.7906 55.5331 14.8486 55.4671 14.874 55.3868L15.38 53.7859Z" fill="#6F6CFF"/>
<path opacity="0.806242" d="M32.9605 85.3551C32.8448 85.5537 32.5577 85.5537 32.442 85.3551L31.022 82.9172C30.9796 82.8444 30.9086 82.7928 30.8262 82.775L28.0689 82.178C27.8441 82.1293 27.7554 81.8564 27.9086 81.6849L29.7884 79.581C29.8445 79.5182 29.8716 79.4347 29.8631 79.3509L29.5788 76.544C29.5557 76.3152 29.7879 76.1465 29.9983 76.2392L32.58 77.3768C32.6571 77.4108 32.7449 77.4108 32.822 77.3768L35.4037 76.2391C35.6141 76.1464 35.8463 76.3151 35.8231 76.5438L35.539 79.3508C35.5305 79.4346 35.5577 79.5181 35.6138 79.5809L37.4937 81.6846C37.6469 81.8561 37.5582 82.129 37.3335 82.1777L34.5761 82.7749C34.4938 82.7927 34.4228 82.8443 34.3804 82.9171L32.9605 85.3551Z" fill="#6F6CFF"/>
<path opacity="0.547916" d="M86.2802 19.4741C86.052 19.5023 85.8782 19.2739 85.9663 19.0615L87.0465 16.4552C87.0788 16.3774 87.0768 16.2896 87.0412 16.2133L85.8466 13.6574C85.7492 13.4491 85.9128 13.2132 86.142 13.2313L88.9545 13.4533C89.0385 13.4599 89.1214 13.4309 89.1829 13.3734L91.2446 11.4475C91.4126 11.2906 91.6875 11.3732 91.7411 11.5968L92.3991 14.3403C92.4188 14.4222 92.4719 14.4921 92.5456 14.5328L95.0144 15.8985C95.2156 16.0097 95.2219 16.2967 95.0259 16.4168L92.62 17.8904C92.5482 17.9344 92.4981 18.0065 92.4821 18.0892L91.9462 20.8591C91.9025 21.0849 91.6316 21.1796 91.4568 21.0302L89.3119 19.1975C89.2479 19.1427 89.1638 19.1175 89.0802 19.1278L86.2802 19.4741Z" fill="#6F6CFF"/>
<path opacity="0.392959" d="M88.139 137.965C88.0395 138.173 87.7534 138.196 87.6222 138.007L86.0128 135.69C85.9647 135.62 85.8898 135.575 85.8063 135.563L83.0102 135.188C82.7823 135.157 82.6722 134.892 82.8112 134.709L84.5176 132.462C84.5686 132.395 84.589 132.31 84.5739 132.227L84.0672 129.451C84.0259 129.225 84.2439 129.039 84.4611 129.114L87.1251 130.043C87.2047 130.071 87.2922 130.064 87.3663 130.024L89.8493 128.684C90.0517 128.575 90.2966 128.725 90.2917 128.954L90.2318 131.775C90.23 131.859 90.2637 131.94 90.3246 131.999L92.3659 133.946C92.5322 134.105 92.4655 134.384 92.2454 134.45L89.5443 135.265C89.4636 135.289 89.3969 135.346 89.3605 135.422L88.139 137.965Z" fill="#6F6CFF"/>
<defs>
<filter id="filter0_b_582_5632" x="77.5" y="79.3" width="52" height="52" filterUnits="userSpaceOnUse" color-interpolation-filters="sRGB">
<feFlood flood-opacity="0" result="BackgroundImageFix"/>
<feGaussianBlur in="BackgroundImageFix" stdDeviation="2.5"/>
<feComposite in2="SourceAlpha" operator="in" result="effect1_backgroundBlur_582_5632"/>
<feBlend mode="normal" in="SourceGraphic" in2="effect1_backgroundBlur_582_5632" result="shape"/>
</filter>
<linearGradient id="paint0_linear_582_5632" x1="82.7984" y1="53.7" x2="50.0984" y2="45.6" gradientUnits="userSpaceOnUse">
<stop stop-color="#93B0FF"/>
<stop offset="1" stop-color="#5694FF"/>
</linearGradient>
<linearGradient id="paint1_linear_582_5632" x1="54.33" y1="65.85" x2="60.3535" y2="30.692" gradientUnits="userSpaceOnUse">
<stop stop-color="#70B5FF"/>
<stop offset="1" stop-color="#ADCCFF"/>
</linearGradient>
<linearGradient id="paint2_linear_582_5632" x1="70.65" y1="58.5" x2="75.45" y2="122.85" gradientUnits="userSpaceOnUse">
<stop stop-color="#759CFF"/>
<stop offset="1" stop-color="#70BAFF"/>
</linearGradient>
<linearGradient id="paint3_linear_582_5632" x1="70.65" y1="58.5" x2="70.65" y2="118.8" gradientUnits="userSpaceOnUse">
<stop stop-color="#AAB8FF"/>
<stop offset="1" stop-color="#61A0FF"/>
</linearGradient>
<linearGradient id="paint4_linear_582_5632" x1="73.9508" y1="56.7" x2="73.9508" y2="117" gradientUnits="userSpaceOnUse">
<stop stop-color="#AAB8FF"/>
<stop offset="1" stop-color="#61A0FF"/>
</linearGradient>
<linearGradient id="paint5_linear_582_5632" x1="63" y1="91.3116" x2="77.4438" y2="98.909" gradientUnits="userSpaceOnUse">
<stop stop-color="#0048FF"/>
<stop offset="1" stop-color="#5081FD"/>
</linearGradient>
</defs>
</svg>
