<svg width="20" height="20" viewBox="0 0 20 20" fill="none" xmlns="http://www.w3.org/2000/svg">
<path d="M7.63166 17.3095V14.7539C7.63165 14.1039 8.16158 13.5757 8.81816 13.5713H11.2232C11.8829 13.5713 12.4177 14.1008 12.4177 14.7539V14.7539V17.3174C12.4176 17.8693 12.8625 18.3204 13.4198 18.3333H15.0232C16.6216 18.3333 17.9173 17.0506 17.9173 15.4682V15.4682V8.19819C17.9088 7.57568 17.6135 6.99111 17.1156 6.61085L11.6321 2.23774C10.6714 1.4763 9.30582 1.4763 8.34517 2.23774L2.88567 6.61879C2.38587 6.99751 2.09014 7.58305 2.08398 8.20612V15.4682C2.08398 17.0506 3.37971 18.3333 4.97808 18.3333H6.58145C7.15261 18.3333 7.61563 17.8749 7.61563 17.3095V17.3095" stroke="#0578B9" stroke-width="1.5" stroke-linecap="round" stroke-linejoin="round"/>
</svg>
