<svg width="25" height="24" viewBox="0 0 25 24" fill="none" xmlns="http://www.w3.org/2000/svg">
<path fill-rule="evenodd" clip-rule="evenodd" d="M6.19636 3.64848C6.69877 3.3215 7.37006 3.2603 7.96264 3.61416L19.5834 10.5693C19.5834 10.5693 19.5835 10.5693 19.5834 10.5693C20.1295 10.896 20.3745 11.4721 20.3745 12C20.3745 12.5278 20.1297 13.1038 19.5836 13.4305C19.5836 13.4306 19.5837 13.4305 19.5836 13.4305L7.96329 20.3854C7.37071 20.7392 6.69877 20.6784 6.19636 20.3514C5.70029 20.0286 5.375 19.4567 5.375 18.7968V5.20309C5.375 4.54326 5.70029 3.97134 6.19636 3.64848ZM7.01458 4.90567C6.94815 4.9489 6.875 5.04542 6.875 5.20309V18.7968C6.875 18.9545 6.94815 19.051 7.01458 19.0943C7.04832 19.1162 7.07901 19.1241 7.10275 19.125C7.1236 19.1258 7.15299 19.1221 7.19318 19.0982C7.19304 19.0983 7.19332 19.0981 7.19318 19.0982L18.8133 12.1435C18.8352 12.1303 18.8745 12.0892 18.8745 12C18.8745 11.9107 18.8354 11.8697 18.8134 11.8566L7.19361 4.90202C7.19353 4.90197 7.19368 4.90206 7.19361 4.90202C7.15331 4.87801 7.12364 4.87412 7.10275 4.87492C7.07901 4.87582 7.04832 4.88371 7.01458 4.90567Z" fill="#595959"/>
</svg>
