<svg width="25" height="24" viewBox="0 0 25 24" fill="none" xmlns="http://www.w3.org/2000/svg">
<path d="M13.3159 20.6077C17.3509 18.5502 20.5 15.1429 20.5 11C20.5 6.58172 16.9183 3 12.5 3C8.08172 3 4.5 6.58172 4.5 11C4.5 15.1429 7.64909 18.5502 11.6841 20.6077C12.1968 20.8691 12.8032 20.8691 13.3159 20.6077Z" stroke="#0578B9" stroke-width="1.5" stroke-linecap="round" stroke-linejoin="round"/>
<path d="M15.5 11C15.5 12.6569 14.1569 14 12.5 14C10.8431 14 9.5 12.6569 9.5 11C9.5 9.34315 10.8431 8 12.5 8C14.1569 8 15.5 9.34315 15.5 11Z" stroke="#0578B9" stroke-width="1.5" stroke-linecap="round" stroke-linejoin="round"/>
</svg>
