<svg width="40" height="40" viewBox="0 0 40 40" fill="none" xmlns="http://www.w3.org/2000/svg">
<g clip-path="url(#clip0_377_2426)">
<path d="M20.6102 25.1902C23.724 25.1902 26.2482 22.6659 26.2482 19.5522C26.2482 16.4384 23.724 13.9142 20.6102 13.9142C17.4964 13.9142 14.9722 16.4384 14.9722 19.5522C14.9722 22.6659 17.4964 25.1902 20.6102 25.1902Z" fill="#0578B9"/>
<path d="M20.0598 39.7354C16.9188 39.7354 13.7878 38.9811 10.9185 37.4821C6.24297 35.0383 2.79852 30.9204 1.22053 25.8861C-0.357897 20.8518 0.118485 15.5044 2.56231 10.8289C6.48006 3.3323 14.7261 -0.837038 23.0797 0.451611C23.326 0.489809 23.4946 0.719878 23.4569 0.966192C23.4191 1.21251 23.1881 1.38155 22.9423 1.34335C14.9667 0.112655 7.10046 4.09232 3.3614 11.2468C1.02954 15.7086 0.574671 20.8118 2.08109 25.616C3.58752 30.4203 6.87434 34.3503 11.3365 36.6822C16.3836 39.3201 22.2828 39.5418 27.5195 37.2907C27.7465 37.1937 28.0134 37.2982 28.1118 37.5274C28.2101 37.7561 28.1043 38.0217 27.8751 38.1197C25.365 39.1984 22.7087 39.7354 20.0598 39.7354Z" fill="#0578B9"/>
<path d="M34.1224 34.972H33.0423V33.8924C33.0423 33.643 32.8407 33.4414 32.5913 33.4414C32.342 33.4414 32.1404 33.643 32.1404 33.8924V34.972H31.0608C30.8114 34.972 30.6099 35.1735 30.6099 35.4229C30.6099 35.6723 30.8114 35.8738 31.0608 35.8738H32.1404V36.9539C32.1404 37.2033 32.342 37.4049 32.5913 37.4049C32.8407 37.4049 33.0423 37.2033 33.0423 36.9539V35.8738H34.1224C34.3718 35.8738 34.5733 35.6723 34.5733 35.4229C34.5733 35.1735 34.3713 34.972 34.1224 34.972Z" fill="#0578B9"/>
<path d="M39.5442 6.36841L35.5254 1.57034C35.4486 1.47858 35.3388 1.42106 35.2194 1.41052C35.1013 1.40086 34.9814 1.4373 34.8901 1.51414L21.2994 12.8982C21.2502 12.9394 21.2133 12.9886 21.1865 13.0426C21.1861 13.0439 21.1848 13.0444 21.1843 13.0457L17.8031 19.96C17.725 20.1203 17.7482 20.3113 17.8624 20.4483C17.9493 20.5519 18.0771 20.6094 18.2084 20.6094C18.2496 20.6094 18.2913 20.6037 18.3322 20.5923L25.7326 18.4756C25.7365 18.4742 25.7396 18.4712 25.7436 18.4699C25.7984 18.4527 25.8511 18.4273 25.8981 18.3878L39.4884 7.00374C39.679 6.84392 39.704 6.55941 39.5442 6.36841ZM21.6893 14.0661L24.8163 17.7994L19.0584 19.4463L21.6893 14.0661ZM25.6641 17.4064L22.2245 13.3003L35.1237 2.49544L38.5629 6.60156L25.6641 17.4064Z" fill="black"/>
<path d="M27.2639 22.4227C27.2569 22.4227 27.2507 22.4227 27.2437 22.4227H19.5496C19.3006 22.4227 19.0986 22.2212 19.0986 21.9718C19.0986 21.7224 19.3006 21.5209 19.5496 21.5209H27.2454C27.2507 21.5209 27.2564 21.5209 27.2621 21.5209C29.0948 21.5209 30.815 20.3846 31.8679 18.4773C33.081 16.2785 35.0963 14.9679 37.2609 14.9679C37.2679 14.9679 37.2741 14.9679 37.2811 14.9679L39.0909 14.9749C39.3399 14.9758 39.5409 15.1786 39.5401 15.4276C39.5392 15.6761 39.3377 15.8768 39.0891 15.8768H39.0874L37.2776 15.8697C35.4375 15.8535 33.7124 17.0008 32.6573 18.9129C31.4433 21.1117 29.428 22.4227 27.2639 22.4227Z" fill="black"/>
<path d="M19.5591 32.2924C14.833 32.2929 10.3932 29.5623 8.33622 25.011C6.79863 21.6087 6.87414 17.7397 8.54302 14.3958C8.6541 14.1732 8.92457 14.0819 9.14805 14.1938C9.37109 14.3049 9.46154 14.5758 9.35002 14.7989C7.80276 17.8991 7.73295 21.4858 9.15815 24.6391C11.602 30.0458 17.672 32.6819 23.2815 30.7693C23.6318 30.6495 23.9796 30.512 24.3155 30.3601C24.5433 30.2569 24.8098 30.3584 24.9121 30.5854C25.0149 30.8124 24.9139 31.0797 24.6869 31.182C24.3247 31.3458 23.9502 31.4938 23.5726 31.6229C22.2435 32.076 20.8899 32.2924 19.5591 32.2924Z" fill="#0578B9"/>
<path d="M11.7561 12.6764C11.5142 12.6764 11.2723 12.6286 11.0422 12.5324C10.5852 12.3419 10.23 11.9845 10.0412 11.5261C9.85281 11.0682 9.85413 10.5637 10.0451 10.1066C10.4385 9.16306 11.5261 8.71522 12.4705 9.1095C13.414 9.5029 13.8614 10.5913 13.4676 11.5349C13.2771 11.9919 12.9197 12.3471 12.4613 12.5359C12.2338 12.6299 11.995 12.6764 11.7561 12.6764ZM10.8776 10.4543C10.6756 10.9391 10.9052 11.498 11.39 11.7C11.6249 11.7983 11.8835 11.7988 12.1188 11.7017C12.3541 11.6051 12.5377 11.4225 12.6356 11.1876C12.8376 10.7029 12.6079 10.1444 12.1232 9.94196C11.6389 9.74087 11.08 9.97006 10.8776 10.4543Z" fill="#0578B9"/>
</g>
<defs>
<clipPath id="clip0_377_2426">
<rect width="40" height="40" fill="white"/>
</clipPath>
</defs>
</svg>
