<svg width="21" height="20" viewBox="0 0 21 20" fill="none" xmlns="http://www.w3.org/2000/svg">
<path d="M13.9414 16.5667H7.06641C6.23828 16.5645 5.4447 16.2345 4.85913 15.6489C4.27355 15.0634 3.94361 14.2698 3.94141 13.4417V6.56665C3.94141 5.73785 4.27065 4.94299 4.8567 4.35694C5.44275 3.77089 6.2376 3.44165 7.06641 3.44165H13.9414C14.7695 3.44385 15.5631 3.7738 16.1487 4.35937C16.7343 4.94495 17.0642 5.73853 17.0664 6.56665V13.4417C17.0642 14.2698 16.7343 15.0634 16.1487 15.6489C15.5631 16.2345 14.7695 16.5645 13.9414 16.5667ZM7.06641 4.69165C6.81987 4.69055 6.57556 4.73829 6.34757 4.83213C6.11959 4.92597 5.91245 5.06404 5.73812 5.23837C5.56379 5.4127 5.42572 5.61983 5.33189 5.84782C5.23805 6.0758 5.1903 6.32011 5.19141 6.56665V13.4417C5.19141 13.6879 5.2399 13.9317 5.33413 14.1592C5.42836 14.3867 5.56647 14.5934 5.74058 14.7675C5.91469 14.9416 6.12139 15.0797 6.34887 15.1739C6.57636 15.2682 6.82018 15.3167 7.06641 15.3167H13.9414C14.1876 15.3167 14.4315 15.2682 14.6589 15.1739C14.8864 15.0797 15.0931 14.9416 15.2672 14.7675C15.4413 14.5934 15.5795 14.3867 15.6737 14.1592C15.7679 13.9317 15.8164 13.6879 15.8164 13.4417V6.56665C15.8164 6.32042 15.7679 6.0766 15.6737 5.84912C15.5795 5.62163 15.4413 5.41493 15.2672 5.24083C15.0931 5.06672 14.8864 4.9286 14.6589 4.83438C14.4315 4.74015 14.1876 4.69165 13.9414 4.69165H7.06641Z" fill="white"/>
<path d="M8.57476 4.64166C8.49238 4.64278 8.4106 4.62738 8.33427 4.59636C8.25793 4.56535 8.18859 4.51936 8.13032 4.4611C8.07206 4.40283 8.02607 4.33349 7.99506 4.25715C7.96404 4.18082 7.94864 4.09904 7.94976 4.01666V1.66666C7.94976 1.5009 8.01561 1.34192 8.13282 1.22471C8.25003 1.1075 8.409 1.04166 8.57476 1.04166C8.74052 1.04166 8.8995 1.1075 9.01671 1.22471C9.13392 1.34192 9.19976 1.5009 9.19976 1.66666V4.01666C9.19976 4.18242 9.13392 4.34139 9.01671 4.4586C8.8995 4.57581 8.74052 4.64166 8.57476 4.64166Z" fill="white"/>
<path d="M12.4248 4.66666C12.2597 4.6645 12.102 4.59796 11.9852 4.48121C11.8685 4.36447 11.802 4.20675 11.7998 4.04166V1.66666C11.7998 1.5009 11.8657 1.34193 11.9829 1.22471C12.1001 1.1075 12.259 1.04166 12.4248 1.04166C12.5906 1.04166 12.7495 1.1075 12.8667 1.22471C12.984 1.34193 13.0498 1.5009 13.0498 1.66666V4.04166C13.0498 4.20742 12.984 4.36639 12.8667 4.4836C12.7495 4.60081 12.5906 4.66666 12.4248 4.66666Z" fill="white"/>
<path d="M8.57471 18.9583C8.40895 18.9583 8.24998 18.8925 8.13277 18.7753C8.01556 18.6581 7.94971 18.4991 7.94971 18.3333V15.9417C7.94971 15.7759 8.01556 15.6169 8.13277 15.4997C8.24998 15.3825 8.40895 15.3167 8.57471 15.3167C8.74047 15.3167 8.89944 15.3825 9.01665 15.4997C9.13386 15.6169 9.19971 15.7759 9.19971 15.9417V18.3333C9.19755 18.4984 9.13101 18.6561 9.01426 18.7729C8.89752 18.8896 8.7398 18.9562 8.57471 18.9583Z" fill="white"/>
<path d="M12.4248 18.9833C12.2597 18.9812 12.102 18.9146 11.9852 18.7979C11.8685 18.6811 11.802 18.5234 11.7998 18.3583V15.9417C11.7998 15.7759 11.8657 15.6169 11.9829 15.4997C12.1001 15.3825 12.259 15.3167 12.4248 15.3167C12.5906 15.3167 12.7495 15.3825 12.8667 15.4997C12.984 15.6169 13.0498 15.7759 13.0498 15.9417V18.3333C13.0532 18.4175 13.0395 18.5014 13.0096 18.5802C12.9797 18.6589 12.9342 18.7308 12.8758 18.7915C12.8175 18.8522 12.7474 18.9005 12.6699 18.9335C12.5924 18.9664 12.509 18.9834 12.4248 18.9833Z" fill="white"/>
<path d="M18.833 8.73331H16.458C16.2922 8.73331 16.1333 8.66746 16.0161 8.55025C15.8989 8.43304 15.833 8.27407 15.833 8.10831C15.833 7.94255 15.8989 7.78358 16.0161 7.66637C16.1333 7.54916 16.2922 7.48331 16.458 7.48331H18.833C18.9988 7.48331 19.1577 7.54916 19.2749 7.66637C19.3922 7.78358 19.458 7.94255 19.458 8.10831C19.458 8.27407 19.3922 8.43304 19.2749 8.55025C19.1577 8.66746 18.9988 8.73331 18.833 8.73331Z" fill="white"/>
<path d="M18.8332 12.5833H16.4165C16.2507 12.5833 16.0918 12.5175 15.9746 12.4003C15.8574 12.283 15.7915 12.1241 15.7915 11.9583C15.7915 11.7926 15.8574 11.6336 15.9746 11.5164C16.0918 11.3992 16.2507 11.3333 16.4165 11.3333H18.8332C18.9989 11.3333 19.1579 11.3992 19.2751 11.5164C19.3923 11.6336 19.4582 11.7926 19.4582 11.9583C19.4582 12.1241 19.3923 12.283 19.2751 12.4003C19.1579 12.5175 18.9989 12.5833 18.8332 12.5833Z" fill="white"/>
<path d="M4.58301 8.73333H2.16635C2.02019 8.70922 1.88736 8.63399 1.79152 8.52105C1.69568 8.4081 1.64307 8.26479 1.64307 8.11667C1.64307 7.96854 1.69568 7.82523 1.79152 7.71228C1.88736 7.59934 2.02019 7.52411 2.16635 7.5H4.58301C4.74877 7.5 4.90774 7.56585 5.02495 7.68306C5.14216 7.80027 5.20801 7.95924 5.20801 8.125C5.20801 8.29076 5.14216 8.44973 5.02495 8.56694C4.90774 8.68415 4.74877 8.75 4.58301 8.75V8.73333Z" fill="white"/>
<path d="M4.58317 12.5833H2.1665C2.00074 12.5833 1.84177 12.5175 1.72456 12.4003C1.60735 12.283 1.5415 12.1241 1.5415 11.9583C1.5415 11.7926 1.60735 11.6336 1.72456 11.5164C1.84177 11.3992 2.00074 11.3333 2.1665 11.3333H4.58317C4.74893 11.3333 4.9079 11.3992 5.02511 11.5164C5.14232 11.6336 5.20817 11.7926 5.20817 11.9583C5.20817 12.1241 5.14232 12.283 5.02511 12.4003C4.9079 12.5175 4.74893 12.5833 4.58317 12.5833Z" fill="white"/>
</svg>
