<svg width="18" height="14" viewBox="0 0 18 14" fill="none" xmlns="http://www.w3.org/2000/svg">
<path d="M9.00001 1.16666C5.86884 1.16666 3.53002 3.20032 2.13948 4.86611C1.09601 6.11612 1.096 7.88386 2.13948 9.13387C3.53002 10.7997 5.86884 12.8333 9.00001 12.8333C12.1312 12.8333 14.47 10.7997 15.8605 9.13387C16.904 7.88386 16.904 6.11612 15.8605 4.86611C14.47 3.20032 12.1312 1.16666 9.00001 1.16666Z" stroke="#878787" stroke-width="1.5" stroke-linecap="round" stroke-linejoin="round"/>
<path d="M9 9.49999C10.3807 9.49999 11.5 8.3807 11.5 6.99999C11.5 5.61928 10.3807 4.49999 9 4.49999C7.61929 4.49999 6.5 5.61928 6.5 6.99999C6.5 8.3807 7.61929 9.49999 9 9.49999Z" stroke="#878787" stroke-width="1.5" stroke-linecap="round" stroke-linejoin="round"/>
</svg>
