<svg width="15" height="16" viewBox="0 0 15 16" fill="none" xmlns="http://www.w3.org/2000/svg">
<path d="M7.81847 11.6197C7.61799 11.5181 7.38201 11.5181 7.18153 11.6197L4.61214 12.922C4.06798 13.1978 3.45526 12.6995 3.60282 12.1012L4.2036 9.66529C4.26104 9.43238 4.20049 9.18577 4.04206 9.00732L2.05885 6.77364C1.66353 6.3284 1.94434 5.61697 2.53354 5.57103L5.30016 5.3553C5.55896 5.33512 5.78643 5.17381 5.89383 4.93428L6.85171 2.79815C7.10471 2.23395 7.89529 2.23395 8.14829 2.79814L9.10617 4.93428C9.21357 5.17381 9.44104 5.33512 9.69984 5.3553L12.4665 5.57103C13.0557 5.61697 13.3365 6.3284 12.9412 6.77364L10.9579 9.00732C10.7995 9.18577 10.739 9.43238 10.7964 9.66529L11.3972 12.1012C11.5447 12.6995 10.932 13.1978 10.3879 12.922L7.81847 11.6197Z" fill="white"/>
<path d="M7.81847 11.6197C7.61799 11.5181 7.38201 11.5181 7.18153 11.6197L4.61214 12.922C4.06798 13.1978 3.45526 12.6995 3.60282 12.1012L4.2036 9.66529C4.26104 9.43238 4.20049 9.18577 4.04206 9.00732L2.05885 6.77364C1.66353 6.3284 1.94434 5.61697 2.53354 5.57103L5.30016 5.3553C5.55896 5.33512 5.78643 5.17381 5.89383 4.93428L6.85171 2.79815C7.10471 2.23395 7.89529 2.23395 8.14829 2.79814L9.10617 4.93428C9.21357 5.17381 9.44104 5.33512 9.69984 5.3553L12.4665 5.57103C13.0557 5.61697 13.3365 6.3284 12.9412 6.77364L10.9579 9.00732C10.7995 9.18577 10.739 9.43238 10.7964 9.66529L11.3972 12.1012C11.5447 12.6995 10.932 13.1978 10.3879 12.922L7.81847 11.6197Z" stroke="#FF9500" stroke-width="1.5" stroke-linecap="round" stroke-linejoin="round"/>
</svg>
