<svg width="20" height="20" viewBox="0 0 20 20" fill="none" xmlns="http://www.w3.org/2000/svg">
<path d="M10.4246 14.8263C10.1573 14.6908 9.84268 14.6908 9.57538 14.8263L6.14953 16.5626C5.42397 16.9303 4.60702 16.2661 4.80376 15.4683L5.6048 12.2204C5.68139 11.9098 5.60066 11.581 5.38941 11.3431L2.74513 8.36485C2.21804 7.77119 2.59246 6.82262 3.37805 6.76137L7.06688 6.47373C7.41195 6.44683 7.71524 6.23174 7.85844 5.91238L9.13562 3.06419C9.47294 2.31194 10.5271 2.31193 10.8644 3.06419L12.1416 5.91237C12.2848 6.23174 12.5881 6.44683 12.9331 6.47373L16.6219 6.76137C17.4075 6.82262 17.782 7.77119 17.2549 8.36485L14.6106 11.3431C14.3993 11.581 14.3186 11.9098 14.3952 12.2204L15.1962 15.4683C15.393 16.2661 14.576 16.9303 13.8505 16.5626L10.4246 14.8263Z" stroke="#FFBC47" stroke-width="1.5" stroke-linecap="round" stroke-linejoin="round"/>
</svg>
