<svg width="15" height="15" viewBox="0 0 15 15" fill="none" xmlns="http://www.w3.org/2000/svg">
<path d="M7.81847 11.1197C7.61799 11.0181 7.38201 11.0181 7.18153 11.1197L4.61214 12.422C4.06798 12.6978 3.45526 12.1995 3.60282 11.6012L4.2036 9.16529C4.26104 8.93238 4.20049 8.68577 4.04206 8.50732L2.05885 6.27364C1.66353 5.8284 1.94434 5.11697 2.53354 5.07103L5.30016 4.8553C5.55896 4.83512 5.78643 4.67381 5.89383 4.43428L6.85171 2.29815C7.10471 1.73395 7.89529 1.73395 8.14829 2.29814L9.10617 4.43428C9.21357 4.67381 9.44104 4.83512 9.69984 4.8553L12.4665 5.07103C13.0557 5.11697 13.3365 5.8284 12.9412 6.27364L10.9579 8.50732C10.7995 8.68577 10.739 8.93238 10.7964 9.16529L11.3972 11.6012C11.5447 12.1995 10.932 12.6978 10.3879 12.422L7.81847 11.1197Z" fill="#878787"/>
<path d="M7.81847 11.1197C7.61799 11.0181 7.38201 11.0181 7.18153 11.1197L4.61214 12.422C4.06798 12.6978 3.45526 12.1995 3.60282 11.6012L4.2036 9.16529C4.26104 8.93238 4.20049 8.68577 4.04206 8.50732L2.05885 6.27364C1.66353 5.8284 1.94434 5.11697 2.53354 5.07103L5.30016 4.8553C5.55896 4.83512 5.78643 4.67381 5.89383 4.43428L6.85171 2.29815C7.10471 1.73395 7.89529 1.73395 8.14829 2.29814L9.10617 4.43428C9.21357 4.67381 9.44104 4.83512 9.69984 4.8553L12.4665 5.07103C13.0557 5.11697 13.3365 5.8284 12.9412 6.27364L10.9579 8.50732C10.7995 8.68577 10.739 8.93238 10.7964 9.16529L11.3972 11.6012C11.5447 12.1995 10.932 12.6978 10.3879 12.422L7.81847 11.1197Z" stroke="#595959" stroke-width="1.5" stroke-linecap="round" stroke-linejoin="round"/>
</svg>
