<svg width="120" height="105" viewBox="0 0 120 105" fill="none" xmlns="http://www.w3.org/2000/svg">
<path d="M49.2107 5.19769C50.8012 2.89903 54.1988 2.89904 55.7893 5.19769L70.2083 26.0363C70.7303 26.7908 71.4959 27.3429 72.3766 27.6L96.7843 34.7264C99.494 35.5176 100.554 38.7908 98.8221 41.02L83.3377 60.9532C82.7691 61.6851 82.4723 62.5917 82.4981 63.5181L83.1972 88.6956C83.2751 91.5004 80.5164 93.5116 77.8699 92.5795L53.8288 84.1119C52.9688 83.809 52.0312 83.809 51.1712 84.1119L27.1301 92.5795C24.4836 93.5116 21.7249 91.5004 21.8028 88.6956L22.5019 63.5181C22.5277 62.5917 22.2309 61.6851 21.6623 60.9532L6.17788 41.02C4.44619 38.7908 5.50601 35.5176 8.21567 34.7264L32.6234 27.6C33.5041 27.3429 34.2697 26.7908 34.7917 26.0363L49.2107 5.19769Z" stroke="#0578B9" stroke-width="5" stroke-linejoin="round"/>
<g filter="url(#filter0_b_582_5624)">
<path d="M64.2107 5.19769C65.8012 2.89903 69.1988 2.89904 70.7893 5.19769L85.2083 26.0363C85.7303 26.7908 86.4959 27.3429 87.3766 27.6L111.784 34.7264C114.494 35.5176 115.554 38.7908 113.822 41.02L98.3377 60.9532C97.7691 61.6851 97.4723 62.5917 97.4981 63.5181L98.1972 88.6956C98.2751 91.5004 95.5164 93.5116 92.8699 92.5795L68.8288 84.1119C67.9688 83.809 67.0312 83.809 66.1712 84.1119L42.1301 92.5795C39.4836 93.5116 36.7249 91.5004 36.8028 88.6956L37.5019 63.5181C37.5277 62.5917 37.2309 61.6851 36.6623 60.9532L21.1779 41.02C19.4462 38.7908 20.506 35.5176 23.2157 34.7264L47.6234 27.6C48.5041 27.3429 49.2697 26.7908 49.7917 26.0363L64.2107 5.19769Z" fill="#2947A9" fill-opacity="0.5"/>
</g>
<defs>
<filter id="filter0_b_582_5624" x="15.3359" y="-1.5263" width="104.328" height="99.3365" filterUnits="userSpaceOnUse" color-interpolation-filters="sRGB">
<feFlood flood-opacity="0" result="BackgroundImageFix"/>
<feGaussianBlur in="BackgroundImageFix" stdDeviation="2.5"/>
<feComposite in2="SourceAlpha" operator="in" result="effect1_backgroundBlur_582_5624"/>
<feBlend mode="normal" in="SourceGraphic" in2="effect1_backgroundBlur_582_5624" result="shape"/>
</filter>
</defs>
</svg>
