<svg width="467" height="289" viewBox="0 0 467 289" fill="none" xmlns="http://www.w3.org/2000/svg">
<g clip-path="url(#clip0_698_4899)">
<path d="M389.797 273.789H372.641V289H389.797V273.789Z" fill="#F0F0F0"/>
<path d="M467 127.768C467.007 150.704 460.869 173.219 449.23 192.949C437.591 212.679 420.881 228.897 400.852 239.9C399.717 240.524 398.566 241.133 397.411 241.721C393.125 243.916 388.716 245.859 384.206 247.541C382.409 248.221 380.594 248.853 378.761 249.437C378.585 249.498 378.403 249.559 378.226 249.61C360.271 255.338 341.271 256.977 322.607 254.41C303.942 251.842 286.081 245.131 270.318 234.764C268.204 233.375 266.134 231.925 264.107 230.414C262.961 229.557 261.831 228.685 260.716 227.788C257.562 225.273 254.534 222.608 251.633 219.792C239.298 207.887 229.488 193.597 222.794 177.782C216.1 161.967 212.661 144.954 212.683 127.768C212.683 57.2017 269.612 0 339.842 0C410.071 0 467 57.2017 467 127.768Z" fill="#F2F2F2"/>
<path d="M370.208 187.394L367.342 198.284L378.226 249.61C348.969 258.87 317.373 257.237 289.215 245.011L297.713 209.211L297.995 189.792L298.919 125.761L299.151 125.639C299.165 125.63 299.18 125.623 299.196 125.619L320.844 114.449L358.194 113.511L386.063 127.15L385.851 127.946L370.208 187.394Z" fill="#3F3D56"/>
<path d="M385.479 280.961C384.622 279.935 383.998 278.732 383.653 277.438C383.308 276.144 383.249 274.789 383.481 273.47C383.714 272.15 384.231 270.898 384.997 269.801C385.763 268.704 386.759 267.789 387.915 267.121L381.852 235.125L397.401 241.636L400.774 271.022C401.763 273.047 401.977 275.367 401.378 277.541C400.778 279.715 399.405 281.592 397.52 282.817C395.635 284.042 393.368 284.53 391.149 284.188C388.93 283.846 386.912 282.697 385.479 280.961Z" fill="#9E616A"/>
<path d="M380.445 128.146L384.434 126.841C384.434 126.841 397.09 135.002 395.886 154.733C395.886 154.733 396.36 164.943 395.907 171.738C395.388 179.532 402.35 256.982 402.35 256.982H379.799L370.134 186.845L380.445 128.146Z" fill="#3F3D56"/>
<path d="M367.364 78.5014C367.364 83.6468 365.845 88.6767 363 92.9549C360.155 97.2332 356.112 100.568 351.381 102.537C346.65 104.506 341.444 105.021 336.421 104.017C331.399 103.013 326.785 100.536 323.164 96.8972C319.544 93.2589 317.078 88.6234 316.079 83.5768C315.08 78.5303 315.592 73.2995 317.552 68.5457C319.512 63.792 322.83 59.7289 327.088 56.8703C331.346 54.0117 336.352 52.4859 341.472 52.4859C344.864 52.4773 348.224 53.1402 351.361 54.4364C354.498 55.7327 357.349 57.6371 359.754 60.0408C362.158 62.4446 364.067 65.3006 365.373 68.4458C366.679 71.5911 367.355 74.9639 367.364 78.3718C367.364 78.415 367.364 78.4582 367.364 78.5014Z" fill="#9E616A"/>
<path d="M315.667 43.5578C318.7 37.0044 324.57 38.3001 329.703 40.5215C336.204 39.0726 342.386 34.735 349.39 37.3003C356.289 47.3829 379.453 44.4164 374.525 60.831C374.518 64.7643 381.891 62.4749 380.604 68.9167C384.509 81.3139 366.507 104.792 356.172 99.8483C358.728 95.1415 364.567 84.4509 355.711 83.3905C336.662 101.201 353.746 49.4759 329.81 64.5183C321.885 71.806 311.035 50.8472 315.667 43.5578Z" fill="#2F2E41"/>
<path d="M355.288 252.244L313.958 244.019L324.556 190.255C339.18 195.812 352.956 198.554 365.885 198.48C354.586 215.131 349.453 233.01 355.288 252.244Z" fill="#E4E4E4"/>
<path d="M349.278 255.402L307.949 247.177C304.556 222.82 307.64 204.482 318.546 193.413C333.17 198.971 346.947 201.712 359.876 201.638C353.045 218.74 349.451 236.974 349.278 255.402Z" fill="#2947A9"/>
<path d="M321.895 240.425C321.731 239.096 321.279 237.818 320.571 236.683C319.863 235.548 318.915 234.582 317.795 233.855C316.675 233.127 315.41 232.655 314.089 232.472C312.768 232.289 311.424 232.399 310.149 232.794L290.955 206.547L285.114 222.423L304.237 244.914C305.04 247.02 306.585 248.758 308.578 249.796C310.571 250.835 312.873 251.104 315.05 250.55C317.227 249.997 319.126 248.661 320.387 246.795C321.649 244.929 322.185 242.662 321.895 240.425Z" fill="#9E616A"/>
<path d="M304.685 127.145L301.209 124.786C301.209 124.786 280.52 126.721 276.263 146.021C276.263 146.021 273.151 157.617 271.721 164.274C270.986 167.698 261.183 200.779 261.183 200.779L294.428 237.284L303.511 223.595L294.428 200.779L304.685 127.145Z" fill="#3F3D56"/>
<path d="M17.1563 64.1474H0V79.3579H17.1563V64.1474Z" fill="#2947A9"/>
<path d="M53.9917 124.99H36.8354V140.2H53.9917V124.99Z" fill="#2947A9"/>
<path d="M80.7354 228.928H63.5791V244.139H80.7354V228.928Z" fill="#2947A9"/>
<path d="M63.7037 29.229C63.1951 29.229 62.7074 29.432 62.3478 29.7933C61.9881 30.1547 61.7861 30.6447 61.7861 31.1557C61.7861 31.6667 61.9881 32.1568 62.3478 32.5181C62.7074 32.8795 63.1951 33.0824 63.7037 33.0824H203.705C204.213 33.0813 204.7 32.8778 205.058 32.5166C205.417 32.1554 205.618 31.666 205.618 31.1557C205.618 30.6455 205.417 30.1561 205.058 29.7949C204.7 29.4337 204.213 29.2302 203.705 29.229H63.7037Z" fill="#E4E4E4"/>
<path d="M63.7036 40.7893C63.4516 40.7886 63.202 40.8377 62.9689 40.9339C62.7359 41.0301 62.524 41.1716 62.3454 41.3501C62.1668 41.5287 62.0249 41.7409 61.928 41.9746C61.831 42.2082 61.7808 42.4588 61.7803 42.712C61.7797 42.9651 61.8289 43.2159 61.9249 43.45C62.0208 43.6841 62.1618 43.8969 62.3397 44.0762C62.5175 44.2555 62.7288 44.3978 62.9615 44.495C63.1941 44.5923 63.4435 44.6425 63.6955 44.6428H152.206C152.715 44.6428 153.202 44.4398 153.562 44.0784C153.921 43.7171 154.124 43.227 154.124 42.716C154.124 42.205 153.921 41.715 153.562 41.3536C153.202 40.9923 152.715 40.7893 152.206 40.7893H63.7036Z" fill="#E4E4E4"/>
<path d="M45.5381 167.645C45.0296 167.645 44.5418 167.848 44.1822 168.209C43.8226 168.57 43.6206 169.06 43.6206 169.571C43.6206 170.082 43.8226 170.573 44.1822 170.934C44.5418 171.295 45.0296 171.498 45.5381 171.498H185.54C186.048 171.497 186.534 171.294 186.893 170.932C187.251 170.571 187.453 170.082 187.453 169.571C187.453 169.061 187.251 168.572 186.893 168.211C186.534 167.849 186.048 167.646 185.54 167.645H45.5381Z" fill="#E4E4E4"/>
<path d="M45.5381 179.205C45.2861 179.204 45.0365 179.253 44.8034 179.35C44.5704 179.446 44.3585 179.587 44.1798 179.766C44.0012 179.944 43.8594 180.157 43.7624 180.39C43.6655 180.624 43.6153 180.875 43.6148 181.128C43.6142 181.381 43.6633 181.632 43.7593 181.866C43.8553 182.1 43.9963 182.313 44.1741 182.492C44.352 182.671 44.5633 182.814 44.796 182.911C45.0286 183.008 45.278 183.058 45.53 183.059H134.04C134.549 183.059 135.037 182.856 135.396 182.494C135.756 182.133 135.958 181.643 135.958 181.132C135.958 180.621 135.756 180.131 135.396 179.769C135.037 179.408 134.549 179.205 134.04 179.205H45.5381Z" fill="#E4E4E4"/>
<path d="M125.265 266.513C124.756 266.513 124.268 266.716 123.909 267.078C123.549 267.439 123.347 267.929 123.347 268.44C123.347 268.951 123.549 269.441 123.909 269.802C124.268 270.164 124.756 270.367 125.265 270.367H265.266C265.774 270.365 266.261 270.162 266.619 269.801C266.978 269.44 267.179 268.95 267.179 268.44C267.179 267.93 266.978 267.44 266.619 267.079C266.261 266.718 265.774 266.514 265.266 266.513H125.265Z" fill="#E4E4E4"/>
<path d="M125.265 278.073C125.013 278.073 124.763 278.122 124.53 278.218C124.297 278.314 124.085 278.456 123.906 278.634C123.728 278.813 123.586 279.025 123.489 279.259C123.392 279.492 123.342 279.743 123.341 279.996C123.341 280.249 123.39 280.5 123.486 280.734C123.582 280.968 123.723 281.181 123.901 281.36C124.079 281.54 124.29 281.682 124.523 281.779C124.755 281.876 125.005 281.927 125.257 281.927H213.767C214.276 281.927 214.763 281.724 215.123 281.363C215.483 281.001 215.685 280.511 215.685 280C215.685 279.489 215.483 278.999 215.123 278.638C214.763 278.276 214.276 278.073 213.767 278.073H125.265Z" fill="#E4E4E4"/>
<path d="M8.06761 71.8214C12.1777 70.9145 16.0658 69.191 19.5033 66.7523C22.9408 64.3135 25.8584 61.2088 28.0843 57.6206C29.3481 55.5806 30.3666 53.3972 31.1186 51.1161C31.1754 50.9272 31.157 50.7235 31.0673 50.548C30.9776 50.3725 30.8236 50.2389 30.6377 50.1752C30.4518 50.1116 30.2486 50.123 30.071 50.207C29.8933 50.291 29.755 50.441 29.6853 50.6255C28.395 54.4381 26.3584 57.9527 23.6955 60.9622C21.0327 63.9718 17.7973 66.4155 14.1801 68.1495C12.1419 69.128 9.99493 69.8591 7.78456 70.3272C6.8311 70.5292 7.11213 72.0239 8.06761 71.8214Z" fill="#3F3D56"/>
<path d="M22.8168 54.0289C25.5455 52.4848 28.2742 50.9407 31.003 49.3965C31.1294 49.3254 31.4833 49.056 31.6155 49.0882C31.5095 49.0624 31.6057 49.1413 31.6089 49.2376C31.6131 49.3673 31.6294 49.4989 31.6342 49.6295C31.6638 50.4302 31.6783 51.2318 31.7004 52.0327L31.8273 56.639C31.854 57.6086 33.3648 57.7239 33.3378 56.7429L33.1888 51.3355C33.1547 50.0963 33.4632 47.3476 31.4649 47.5852C30.7439 47.671 30.0772 48.1786 29.4621 48.5266L26.9706 49.9365L22.1657 52.6555C21.3195 53.1343 21.967 54.5098 22.8168 54.0289Z" fill="#3F3D56"/>
<path d="M45.569 132.541C41.5007 133.614 37.6868 135.493 34.3515 138.068C31.0162 140.643 28.2268 143.862 26.1473 147.536C24.9667 149.624 24.037 151.845 23.3776 154.154C23.332 154.345 23.3624 154.548 23.4623 154.718C23.5622 154.887 23.7238 155.012 23.9131 155.064C24.1025 155.117 24.3046 155.093 24.477 154.999C24.6495 154.904 24.7787 154.746 24.8374 154.558C25.9798 150.695 27.8802 147.101 30.4265 143.988C32.9729 140.874 36.1137 138.305 39.6639 136.43C41.6631 135.374 43.7806 134.561 45.9714 134.008C46.9154 133.768 46.5154 132.301 45.569 132.541Z" fill="#3F3D56"/>
<path d="M31.5327 150.915L23.6221 155.815C23.4866 155.899 23.3533 155.991 23.2122 156.066C23.0721 156.14 22.9281 156.138 23.0186 156.227C22.8965 156.106 22.9277 155.66 22.9185 155.523L22.7644 153.224L22.4563 148.627C22.3912 147.655 20.8769 147.648 20.9425 148.627L21.3043 154.024C21.3866 155.253 21.1588 157.796 23.0312 157.694C23.8649 157.648 24.6592 156.96 25.3424 156.537L27.6026 155.136L32.2967 152.229C33.1245 151.716 32.3651 150.399 31.5327 150.915Z" fill="#3F3D56"/>
<path d="M71.5995 235.918C75.4792 236.939 79.1164 238.73 82.2967 241.185C85.4769 243.64 88.1357 246.71 90.1165 250.214C91.2333 252.187 92.1118 254.286 92.7336 256.468C92.7923 256.657 92.9215 256.815 93.0939 256.909C93.2663 257.004 93.4684 257.027 93.6577 256.975C93.847 256.922 94.0087 256.798 94.1086 256.628C94.2085 256.458 94.2388 256.256 94.1933 256.064C92.9991 252.012 91.0107 248.24 88.3451 244.971C85.6795 241.702 82.3903 239.001 78.671 237.027C76.5573 235.907 74.3186 235.042 72.0019 234.452C71.0571 234.212 70.654 235.679 71.5995 235.918Z" fill="#3F3D56"/>
<path d="M85.2742 254.139L89.9683 257.047L92.2285 258.447C92.9134 258.871 93.7047 259.558 94.5396 259.604C96.4116 259.707 96.1842 257.164 96.2666 255.935L96.6284 250.537C96.6939 249.56 95.1798 249.564 95.1146 250.537L94.8064 255.135L94.659 257.334C94.6478 257.502 94.6916 257.998 94.5522 258.137C94.6517 258.038 94.548 258.085 94.4369 258.017C94.2754 257.919 94.1099 257.826 93.9487 257.726L86.0382 252.826C85.2066 252.31 84.4455 253.626 85.2742 254.139Z" fill="#3F3D56"/>
<path d="M34.3124 43.3597C38.2139 43.3597 41.3768 40.1817 41.3768 36.2615C41.3768 32.3412 38.2139 29.1632 34.3124 29.1632C30.4109 29.1632 27.248 32.3412 27.248 36.2615C27.248 40.1817 30.4109 43.3597 34.3124 43.3597Z" fill="#2947A9"/>
<path d="M22.202 182.45C26.1036 182.45 29.2664 179.272 29.2664 175.352C29.2664 171.431 26.1036 168.253 22.202 168.253C18.3005 168.253 15.1377 171.431 15.1377 175.352C15.1377 179.272 18.3005 182.45 22.202 182.45Z" fill="#2947A9"/>
<path d="M98.3964 281.151C102.298 281.151 105.461 277.973 105.461 274.053C105.461 270.132 102.298 266.954 98.3964 266.954C94.4948 266.954 91.332 270.132 91.332 274.053C91.332 277.973 94.4948 281.151 98.3964 281.151Z" fill="#2947A9"/>
</g>
<defs>
<clipPath id="clip0_698_4899">
<rect width="467" height="289" fill="white"/>
</clipPath>
</defs>
</svg>
