<svg width="34" height="35" viewBox="0 0 34 35" fill="none" xmlns="http://www.w3.org/2000/svg">
<path d="M28.3346 10.4308V10.4167M28.3346 18.9167V13.9583M9.20964 30.2502H24.793C26.749 30.2502 28.3346 28.6645 28.3346 26.7085C28.3346 20.9274 19.8346 21.0418 17.0013 21.0418C14.168 21.0418 5.66797 20.9274 5.66797 26.7085C5.66797 28.6645 7.25363 30.2502 9.20964 30.2502ZM22.668 10.4167C22.668 13.5463 20.1309 16.0833 17.0013 16.0833C13.8717 16.0833 11.3346 13.5463 11.3346 10.4167C11.3346 7.28705 13.8717 4.75 17.0013 4.75C20.1309 4.75 22.668 7.28705 22.668 10.4167Z" stroke="#B0B0B0" stroke-width="1.5" stroke-linecap="round" stroke-linejoin="round"/>
</svg>
