<svg width="18" height="16" viewBox="0 0 18 16" fill="none" xmlns="http://www.w3.org/2000/svg">
<path d="M0 1.25C0 1.05109 0.0790178 0.860322 0.21967 0.71967C0.360322 0.579018 0.551088 0.5 0.75 0.5H17.25C17.4489 0.5 17.6397 0.579018 17.7803 0.71967C17.921 0.860322 18 1.05109 18 1.25C18 1.44891 17.921 1.63968 17.7803 1.78033C17.6397 1.92098 17.4489 2 17.25 2H0.75C0.551088 2 0.360322 1.92098 0.21967 1.78033C0.0790178 1.63968 0 1.44891 0 1.25ZM0.969 4.469C1.03867 4.39915 1.12143 4.34374 1.21255 4.30593C1.30367 4.26812 1.40135 4.24866 1.5 4.24866C1.59865 4.24866 1.69633 4.26812 1.78745 4.30593C1.87857 4.34374 1.96133 4.39915 2.031 4.469L5.031 7.469C5.10084 7.53867 5.15626 7.62143 5.19407 7.71255C5.23188 7.80367 5.25134 7.90135 5.25134 8C5.25134 8.09865 5.23188 8.19633 5.19407 8.28745C5.15626 8.37857 5.10084 8.46133 5.031 8.531L2.031 11.531C1.96127 11.6007 1.87848 11.656 1.78738 11.6938C1.69627 11.7315 1.59862 11.7509 1.5 11.7509C1.40138 11.7509 1.30373 11.7315 1.21262 11.6938C1.12152 11.656 1.03873 11.6007 0.969 11.531C0.899268 11.4613 0.843954 11.3785 0.806215 11.2874C0.768477 11.1963 0.749053 11.0986 0.749053 11C0.749053 10.9014 0.768477 10.8037 0.806215 10.7126C0.843954 10.6215 0.899268 10.5387 0.969 10.469L3.4395 8L0.969 5.531C0.899155 5.46133 0.843741 5.37857 0.805931 5.28745C0.768122 5.19633 0.748659 5.09865 0.748659 5C0.748659 4.90135 0.768122 4.80367 0.805931 4.71255C0.843741 4.62143 0.899155 4.53867 0.969 4.469ZM7.5 5.75C7.5 5.55109 7.57902 5.36032 7.71967 5.21967C7.86032 5.07902 8.05109 5 8.25 5H17.25C17.4489 5 17.6397 5.07902 17.7803 5.21967C17.921 5.36032 18 5.55109 18 5.75C18 5.94891 17.921 6.13968 17.7803 6.28033C17.6397 6.42098 17.4489 6.5 17.25 6.5H8.25C8.05109 6.5 7.86032 6.42098 7.71967 6.28033C7.57902 6.13968 7.5 5.94891 7.5 5.75ZM7.5 10.25C7.5 10.0511 7.57902 9.86032 7.71967 9.71967C7.86032 9.57902 8.05109 9.5 8.25 9.5H17.25C17.4489 9.5 17.6397 9.57902 17.7803 9.71967C17.921 9.86032 18 10.0511 18 10.25C18 10.4489 17.921 10.6397 17.7803 10.7803C17.6397 10.921 17.4489 11 17.25 11H8.25C8.05109 11 7.86032 10.921 7.71967 10.7803C7.57902 10.6397 7.5 10.4489 7.5 10.25ZM0 14.75C0 14.5511 0.0790178 14.3603 0.21967 14.2197C0.360322 14.079 0.551088 14 0.75 14H17.25C17.4489 14 17.6397 14.079 17.7803 14.2197C17.921 14.3603 18 14.5511 18 14.75C18 14.9489 17.921 15.1397 17.7803 15.2803C17.6397 15.421 17.4489 15.5 17.25 15.5H0.75C0.551088 15.5 0.360322 15.421 0.21967 15.2803C0.0790178 15.1397 0 14.9489 0 14.75Z" fill="white"/>
</svg>
